<?xml version="1.0" standalone="no"?>
<!DOCTYPE svg PUBLIC "-//W3C//DTD SVG 20010904//EN"
 "http://www.w3.org/TR/2001/REC-SVG-20010904/DTD/svg10.dtd">
<svg version="1.0" xmlns="http://www.w3.org/2000/svg"
 width="314.000000pt" height="160.000000pt" viewBox="0 0 314.000000 160.000000"
 preserveAspectRatio="xMidYMid meet">

<g transform="translate(0.000000,160.000000) scale(0.100000,-0.100000)"
fill="#000000" stroke="none">
<path d="M436 1589 c3 -6 15 -9 25 -6 10 3 20 0 22 -6 2 -6 6 -3 10 6 5 14 0
17 -29 17 -23 0 -33 -4 -28 -11z"/>
<path d="M740 1591 c0 -5 16 -12 35 -15 20 -4 33 -11 30 -16 -3 -4 1 -11 7
-13 7 -3 -23 -6 -67 -6 -44 -1 -87 -6 -95 -11 -12 -8 -9 -10 13 -10 15 0 27
-4 27 -10 0 -6 30 -10 70 -10 58 0 73 4 92 23 13 12 36 31 51 42 15 11 27 23
27 27 0 5 -43 8 -95 8 -52 0 -95 -4 -95 -9z"/>
<path d="M1015 1577 c16 -12 33 -22 37 -22 9 0 46 -25 62 -42 12 -13 22 -26
123 -150 63 -78 112 -113 158 -113 8 0 33 -24 55 -52 22 -29 50 -63 62 -75
l22 -22 11 22 c7 14 8 33 3 52 -12 44 -10 48 16 41 38 -9 22 25 -39 88 -55 56
-58 66 -20 66 13 0 41 6 63 14 37 13 44 13 78 -5 46 -23 58 -15 23 15 -21 18
-24 26 -16 44 14 31 -7 54 -25 29 -7 -10 -38 -22 -68 -28 -73 -14 -211 -22
-185 -10 l20 8 -20 5 c-18 5 -17 6 3 7 18 1 22 5 17 20 -4 15 4 21 42 36 112
41 123 49 78 61 -13 3 -46 -1 -72 -10 -25 -9 -74 -15 -107 -15 l-61 2 51 6
c49 6 84 24 84 42 0 5 -96 9 -212 9 l-213 -1 30 -22z"/>
<path d="M1896 1591 c-4 -5 -3 -16 0 -25 3 -9 1 -23 -6 -31 -8 -9 -8 -15 -2
-15 6 0 4 -13 -5 -31 -12 -24 -13 -33 -3 -39 8 -5 7 -9 -5 -14 -11 -4 -15 -13
-10 -28 4 -17 3 -19 -3 -8 -5 8 -13 36 -16 61 -6 39 -11 48 -31 51 -15 3 -32
-2 -45 -14 -15 -14 -24 -16 -39 -8 -28 15 -61 12 -61 -5 0 -8 20 -36 45 -62
25 -26 48 -58 51 -70 3 -13 10 -23 15 -23 10 0 69 -88 69 -104 0 -5 -11 1 -25
14 -14 13 -25 18 -25 12 0 -7 4 -12 9 -12 9 0 51 -61 51 -74 0 -16 -33 -4 -37
15 -4 12 -11 18 -20 15 -8 -3 -28 -6 -44 -6 -18 0 -29 -5 -29 -14 0 -10 -7
-12 -22 -8 -18 4 -14 -4 20 -37 24 -24 41 -45 38 -48 -3 -4 5 -25 19 -49 30
-51 32 -74 7 -74 -24 0 -82 -29 -82 -41 0 -14 -27 -11 -43 6 -8 8 -17 11 -21
8 -6 -6 -11 5 -20 50 -8 34 -23 27 -34 -16 -11 -42 18 -104 61 -133 l32 -21
43 21 44 21 17 -21 c17 -21 40 -24 74 -9 11 5 24 2 35 -8 12 -11 29 -14 59
-10 63 8 128 -39 96 -71 -4 -3 -8 -13 -9 -21 -2 -11 2 -12 16 -5 24 13 30 4
30 -42 0 -42 -14 -78 -37 -91 -7 -5 -11 -12 -8 -18 4 -5 -1 -9 -10 -9 -9 0
-13 5 -10 10 3 6 1 10 -4 10 -6 0 -11 -4 -11 -10 0 -5 -7 -7 -15 -4 -17 7 -21
-11 -5 -21 14 -9 12 -47 -5 -69 -14 -18 -15 -18 -29 15 l-15 34 -1 -35 c-1
-30 -2 -32 -11 -16 -8 13 -14 15 -19 7 -5 -9 -10 -8 -18 2 -8 10 -7 20 4 42 8
15 13 28 12 29 -2 1 -18 11 -35 24 -27 19 -33 20 -33 7 0 -9 -5 -13 -11 -10
-6 4 -8 14 -5 22 5 11 2 13 -10 9 -8 -3 -27 -6 -40 -6 -15 0 -24 -6 -24 -16 0
-10 -5 -14 -15 -10 -12 4 -12 -1 4 -32 10 -20 22 -50 26 -67 4 -16 10 -24 12
-17 3 6 15 12 28 12 23 0 24 -1 10 -34 -8 -18 -11 -37 -7 -40 13 -14 -34 8
-53 24 -48 41 -115 78 -132 74 -12 -3 -30 8 -52 30 -44 45 -20 48 26 4 37 -36
45 -27 10 12 -43 47 -53 53 -79 39 -13 -7 -26 -17 -30 -23 -4 -6 -8 -8 -10 -6
-2 3 -18 34 -37 70 -19 36 -46 83 -61 105 -15 22 -35 58 -46 80 -10 22 -33 56
-51 75 -18 19 -33 41 -33 49 0 8 -3 12 -6 8 -3 -3 -17 6 -30 21 -14 16 5 -30
47 -118 39 -80 84 -174 100 -210 16 -36 34 -73 40 -83 5 -10 19 -37 30 -60 11
-23 25 -50 30 -59 5 -10 9 -20 9 -22 0 -5 -37 0 -66 9 -12 4 -25 2 -28 -4 -5
-7 -1 -8 10 -4 12 4 15 3 10 -5 -4 -6 0 -25 9 -42 14 -28 14 -31 -1 -37 -11
-4 -24 2 -36 17 -37 46 -28 10 26 -99 59 -122 59 -124 -24 -95 -60 21 -68 29
-97 94 -51 115 -61 138 -108 230 -27 52 -58 111 -70 130 -23 37 -95 185 -95
195 0 4 -13 25 -29 48 -15 23 -41 66 -56 95 -16 30 -33 56 -40 58 -6 3 -29 32
-50 64 -21 33 -44 60 -50 60 -6 0 -35 26 -65 58 -73 79 -107 100 -40 24 171
-192 173 -196 319 -477 26 -49 79 -149 119 -221 39 -72 75 -146 78 -165 5 -30
1 -26 -30 29 -20 34 -36 66 -36 70 0 5 -10 18 -23 30 -28 27 -55 16 -38 -16
27 -50 -4 -74 -35 -27 -9 14 -20 22 -25 19 -21 -13 -7 -74 31 -140 22 -38 40
-71 40 -74 0 -5 -34 -6 -67 -2 -7 1 -31 18 -53 38 -35 32 -40 34 -40 16 0 -11
15 -32 33 -47 17 -14 48 -39 67 -55 20 -16 51 -39 70 -52 19 -13 36 -34 38
-46 3 -19 8 -14 28 25 13 27 24 60 24 74 0 14 6 33 13 44 13 17 15 17 33 -9
10 -15 42 -54 69 -87 28 -33 59 -73 70 -89 24 -34 62 -39 106 -13 29 17 31 23
33 74 1 14 6 32 13 40 6 8 11 35 10 61 -1 25 -5 42 -8 36 -3 -5 -14 9 -23 33
-9 23 -31 63 -47 88 l-30 46 37 -40 c35 -39 36 -39 20 -8 -20 40 -20 44 2 36
24 -8 72 -54 67 -63 -3 -4 2 -13 10 -20 8 -7 15 -18 15 -26 0 -7 6 -19 13 -26
13 -14 13 -11 26 -147 12 -117 24 -134 15 -20 -6 82 -6 85 21 111 14 15 34 29
43 31 9 2 2 2 -17 0 -28 -4 -33 -2 -27 12 3 9 6 32 6 50 0 29 4 34 28 38 22 3
21 4 -10 6 -41 1 -80 38 -106 101 -8 19 -18 37 -22 40 -4 3 -10 14 -12 25 -1
11 -7 23 -13 27 -6 5 -2 8 7 8 10 0 62 -44 115 -98 54 -54 120 -116 148 -139
l49 -42 -17 -36 c-22 -46 -22 -79 2 -96 10 -8 46 -38 80 -66 61 -52 63 -53
127 -53 63 0 79 10 55 35 -5 6 -12 26 -16 46 -6 32 -3 40 28 72 28 30 41 37
73 37 l39 0 -104 104 c-72 72 -99 106 -91 111 9 6 11 4 6 -6 -4 -8 2 -3 13 11
13 15 21 20 21 11 0 -8 20 7 44 32 24 26 50 47 58 47 7 1 31 9 53 20 47 23 99
24 177 6 55 -13 57 -13 78 9 29 31 62 38 96 20 40 -20 46 -19 76 15 25 28 26
35 18 83 -6 39 -17 62 -43 90 -20 20 -40 37 -45 37 -5 0 -14 6 -20 13 -11 13
4 45 33 72 40 36 92 127 97 170 5 48 -14 41 -45 -16 -29 -54 -45 -71 -58 -63
-4 2 -9 -3 -13 -11 -3 -8 -10 -15 -17 -15 -6 0 -9 6 -6 14 3 8 1 16 -5 18 -7
3 -7 15 0 41 6 22 7 37 1 37 -5 0 -9 10 -9 23 0 24 -28 75 -60 107 -25 25 -45
25 -140 0 -100 -27 -220 -38 -202 -19 6 7 12 21 12 30 0 9 7 19 15 23 8 3 15
0 15 -6 0 -7 6 -3 14 8 11 15 28 19 83 21 93 3 191 22 210 42 9 9 22 16 28 16
14 0 65 58 65 73 0 6 4 12 8 14 5 2 12 16 16 32 l7 28 -43 -7 c-24 -3 -81 -7
-128 -8 l-85 -2 4 75 c2 41 7 83 12 93 13 24 2 21 -38 -9 -27 -20 -33 -32 -33
-61 0 -28 -8 -43 -35 -69 -24 -23 -35 -42 -35 -61 0 -60 -38 -80 -92 -50 -38
21 -62 17 -40 -5 25 -25 11 -27 -33 -6 -34 16 -45 28 -45 45 0 16 4 21 15 17
10 -4 15 0 15 14 0 11 8 23 17 26 14 6 15 9 4 15 -10 6 -7 13 14 27 15 11 35
28 46 40 16 17 30 20 87 18 68 -1 69 -1 82 30 7 17 15 34 18 39 2 4 -30 7 -71
7 -68 0 -76 -2 -91 -25 -9 -13 -25 -29 -35 -35 -16 -8 -23 -4 -42 28 -22 36
-23 36 -26 12 -2 -14 -9 -35 -15 -47 -9 -17 -8 -33 2 -64 12 -34 12 -42 0 -49
-10 -6 -21 -3 -33 8 -16 15 -18 26 -12 94 l7 78 -40 0 c-23 0 -43 -4 -46 -9z
m2 -403 c7 -7 12 -16 12 -20 0 -15 -15 -8 -28 12 -13 22 -3 27 16 8z m42 -48
c0 -5 -4 -10 -10 -10 -5 0 -10 5 -10 10 0 6 5 10 10 10 6 0 10 -4 10 -10z
m-56 -12 c-3 -4 4 -8 15 -8 17 0 21 -6 21 -30 0 -20 5 -30 15 -30 8 0 15 -5
15 -11 0 -6 7 -9 14 -6 10 4 13 1 9 -9 -3 -7 -17 -15 -32 -15 -20 -1 -16 -4
17 -12 23 -5 42 -13 42 -17 0 -10 -79 -1 -102 12 -10 4 -23 26 -29 48 -7 22
-15 40 -19 40 -4 0 -11 10 -17 23 -10 20 -8 22 23 23 18 0 31 -3 28 -8z m141
-28 c16 0 25 -6 25 -15 0 -8 6 -15 13 -15 7 0 18 -9 24 -19 11 -17 8 -22 -21
-40 -37 -23 -51 -27 -40 -10 3 6 -5 23 -18 37 -26 29 -58 77 -58 88 0 3 11 -1
25 -10 13 -9 36 -16 50 -16z m226 -214 c-26 -11 -164 7 -169 23 -2 6 -10 11
-18 11 -8 0 -14 5 -14 10 0 9 25 13 102 14 14 1 30 4 34 8 4 4 25 -7 47 -24
38 -31 39 -32 18 -42z m-408 14 c26 -53 22 -58 -23 -35 -27 14 -28 17 -17 50
5 19 12 35 13 35 2 0 14 -22 27 -50z m-13 -360 c9 -16 8 -20 -5 -20 -8 0 -15
9 -15 20 0 11 2 20 5 20 2 0 9 -9 15 -20z m-132 -108 c3 -9 -2 -13 -14 -10 -9
1 -19 9 -22 16 -3 9 2 13 14 10 9 -1 19 -9 22 -16z m267 -2 c3 -5 1 -10 -4
-10 -6 0 -11 5 -11 10 0 6 2 10 4 10 3 0 8 -4 11 -10z m-157 -95 c51 -38 63
-55 41 -55 -15 0 -119 90 -119 102 0 7 5 7 13 1 6 -5 36 -27 65 -48z m152 -9
c0 -13 7 -27 16 -30 34 -13 4 -17 -30 -5 -38 14 -44 27 -24 47 20 20 38 14 38
-12z"/>
<path d="M2128 1407 c-14 -20 -16 -27 -6 -19 10 8 26 11 37 7 26 -8 32 6 10
27 -17 16 -19 16 -41 -15z"/>
<path d="M1080 1160 c23 -27 46 -50 50 -50 5 0 -12 23 -37 50 -25 28 -48 50
-50 50 -3 0 14 -22 37 -50z"/>
<path d="M335 1103 c30 -50 42 -64 64 -68 32 -6 26 8 -24 54 -52 48 -62 51
-40 14z"/>
<path d="M1490 1104 c0 -5 7 -22 16 -39 9 -16 19 -43 23 -59 3 -16 17 -36 31
-45 23 -15 24 -15 16 4 -26 66 -12 130 19 89 12 -15 14 -16 15 -4 0 9 -9 23
-20 33 -11 9 -20 12 -20 7 0 -16 -42 -11 -62 7 -10 9 -18 12 -18 7z"/>
<path d="M430 1016 c0 -2 7 -9 15 -16 9 -7 15 -8 15 -2 0 5 -7 12 -15 16 -8 3
-15 4 -15 2z"/>
<path d="M515 950 c3 -5 8 -10 11 -10 2 0 4 5 4 10 0 6 -5 10 -11 10 -5 0 -7
-4 -4 -10z"/>
<path d="M1720 811 c0 -5 5 -13 10 -16 6 -3 10 -2 10 4 0 5 -4 13 -10 16 -5 3
-10 2 -10 -4z"/>
<path d="M1751 796 c-13 -15 -28 -16 -49 -2 -10 6 -10 0 1 -26 32 -73 41 -88
47 -78 9 15 38 2 45 -21 4 -11 33 -37 65 -59 l59 -40 -14 47 c-8 26 -19 49
-25 51 -5 2 -19 11 -31 21 -18 14 -20 21 -10 39 7 14 8 29 1 46 -12 33 -21 33
-45 -3 -23 -35 -39 -30 -33 10 5 33 5 34 -11 15z"/>
<path d="M1590 774 c0 -15 30 -87 39 -94 4 -3 20 -26 36 -52 17 -27 33 -48 37
-48 10 0 -2 26 -35 80 -16 25 -39 63 -52 85 -13 22 -25 35 -25 29z"/>
<path d="M484 675 c18 -44 18 -55 2 -55 -9 0 -25 14 -35 31 -18 30 -20 30 -30
11 -15 -29 -14 -58 4 -76 8 -8 15 -19 15 -25 0 -6 11 -30 26 -52 23 -37 28
-40 57 -34 18 4 41 15 51 26 20 18 20 19 -9 78 -15 33 -32 58 -36 56 -3 -3 -6
2 -5 11 0 9 -10 23 -24 32 -23 16 -24 16 -16 -3z"/>
<path d="M1995 680 c-3 -5 1 -10 9 -10 9 0 16 5 16 10 0 6 -4 10 -9 10 -6 0
-13 -4 -16 -10z"/>
<path d="M1766 655 c-3 -8 -1 -15 4 -15 6 0 10 7 10 15 0 8 -2 15 -4 15 -2 0
-6 -7 -10 -15z"/>
<path d="M1942 564 c10 -10 20 -16 22 -13 3 3 -5 11 -17 18 -21 13 -21 12 -5
-5z"/>
<path d="M2930 331 c-15 -37 -43 -71 -58 -71 -6 0 -16 -9 -21 -19 -8 -14 -27
-21 -72 -26 -55 -6 -63 -10 -72 -34 -14 -37 -72 -53 -196 -57 -53 -1 -104 -3
-114 -3 -23 -1 -32 -27 -15 -45 7 -8 24 -28 37 -45 l23 -31 252 1 c220 1 247
2 221 14 -16 8 -63 21 -102 30 -77 18 -91 30 -45 41 38 10 86 34 95 50 12 20
27 17 27 -5 0 -29 115 -131 149 -131 30 0 51 31 51 75 0 29 -39 44 -123 48
-68 2 -67 1 -37 138 22 96 21 121 0 70z"/>
<path d="M1750 173 c1 -13 40 -59 40 -47 0 6 -7 17 -15 24 -8 7 -12 16 -9 21
3 5 0 9 -5 9 -6 0 -11 -3 -11 -7z"/>
<path d="M775 15 l-30 -13 31 -1 c20 -1 34 5 38 14 7 18 0 18 -39 0z"/>
<path d="M3110 10 c0 -5 7 -10 15 -10 8 0 15 5 15 10 0 6 -7 10 -15 10 -8 0
-15 -4 -15 -10z"/>
</g>
</svg>
