<?xml version="1.0" encoding="UTF-8"?>
<!-- Generator: visioncortex VTracer 0.6.3 -->
<svg version="1.1" xmlns="http://www.w3.org/2000/svg" width="1280" height="1280">
<path d="M0 0 C0.78 0 1.56 0 2.36 0.01 C3.24 0.01 4.12 0.01 5.03 0.01 C5.99 0.01 6.95 0.02 7.93 0.02 C9.39 0.02 9.39 0.02 10.89 0.03 C14.02 0.03 17.14 0.05 20.27 0.06 C22.39 0.06 24.5 0.07 26.62 0.07 C31.81 0.08 37.01 0.1 42.21 0.12 C42.21 0.78 42.21 1.44 42.21 2.12 C43.47 2.11 43.47 2.11 44.75 2.1 C47.85 2.09 50.96 2.07 54.06 2.07 C56.07 2.06 58.07 2.05 60.08 2.03 C61.97 2.03 61.97 2.03 63.89 2.02 C65.63 2.01 65.63 2.01 67.41 2.01 C70.21 2.12 70.21 2.12 72.21 3.12 C74.5 3.4 76.79 3.64 79.08 3.87 C87.27 4.76 95.36 6.11 103.46 7.56 C104.62 7.76 105.78 7.97 106.97 8.18 C113.84 9.43 120.64 10.86 127.43 12.47 C129.77 13.02 132.11 13.52 134.46 14 C154.6 18.45 175.18 25.26 194.21 33.12 C195.58 33.68 196.96 34.23 198.33 34.79 C199.83 35.4 201.33 36.01 202.83 36.62 C203.54 36.9 204.24 37.19 204.97 37.48 C209.84 39.48 214.54 41.71 219.21 44.12 C225.07 47.13 230.88 49.88 237.08 52.13 C239.34 53.18 240.49 54.34 242.21 56.12 C244.14 57.28 244.14 57.28 246.21 58.25 C246.89 58.58 247.57 58.91 248.27 59.25 C250.35 60.22 250.35 60.22 253.21 61.12 C253.21 61.78 253.21 62.44 253.21 63.12 C255.68 63.62 255.68 63.62 258.21 64.12 C258.21 64.78 258.21 65.44 258.21 66.12 C259.04 66.31 259.04 66.31 259.9 66.5 C262.43 67.18 264.79 68.11 267.21 69.12 C267.21 69.78 267.21 70.44 267.21 71.12 C268.01 71.33 268.82 71.53 269.65 71.75 C274.26 73.53 278.37 75.98 282.21 79.12 C282.21 79.78 282.21 80.44 282.21 81.12 C283.28 81.35 284.35 81.57 285.46 81.81 C289.67 83.28 290.62 84.64 293.21 88.12 C295.34 88.99 295.34 88.99 297.21 89.12 C297.21 89.78 297.21 90.44 297.21 91.12 C298.08 91.52 298.08 91.52 298.96 91.93 C301.88 93.47 304.31 95.32 306.77 97.51 C309.61 100.02 312.07 102.05 315.46 103.81 C320.27 106.36 323.77 110.56 327.46 114.46 C329.53 116.46 331.18 117.84 333.55 119.34 C334.43 119.93 335.3 120.51 336.21 121.12 C336.21 121.78 336.21 122.44 336.21 123.12 C336.75 123.35 337.28 123.57 337.83 123.81 C344.67 127.58 349.82 133.53 354.65 139.53 C356.13 141.23 356.13 141.23 358.21 142.02 C360.93 143.52 361.66 145.45 363.21 148.12 C364.83 149.9 366.5 151.62 368.21 153.31 C369.08 154.17 369.94 155.03 370.83 155.91 C373.2 158.23 373.2 158.23 376.21 160.12 C376.9 163.25 376.9 163.25 377.21 166.12 C377.87 166.12 378.53 166.12 379.21 166.12 C379.21 166.78 379.21 167.44 379.21 168.12 C379.75 168.33 380.28 168.53 380.83 168.75 C386.1 171.8 389.03 175.51 391.21 181.12 C392.17 181.55 392.17 181.55 393.15 182 C395.91 183.5 396.23 185.4 397.28 188.25 C398.36 190.41 399.61 191.63 401.4 193.25 C404.17 195.79 404.17 195.79 404.58 199 C404.4 200.05 404.4 200.05 404.21 201.12 C405.53 201.12 406.85 201.12 408.21 201.12 C408.46 201.84 408.7 202.56 408.96 203.31 C410.73 207.29 413.14 210.18 416.4 213.06 C418.69 215.67 418.9 217.71 419.21 221.12 C419.87 221.12 420.53 221.12 421.21 221.12 C423.75 224.54 424.57 226.88 424.21 231.12 C425.17 231.49 425.17 231.49 426.15 231.87 C428.21 233.12 428.21 233.12 428.83 235.18 C429.02 236.14 429.02 236.14 429.21 237.12 C429.87 237.45 430.53 237.78 431.21 238.12 C431.54 240.12 431.88 242.12 432.21 244.12 C432.87 244.45 433.53 244.78 434.21 245.12 C436.4 246.87 436.4 246.87 438.21 249.12 C437.96 251.87 437.96 251.87 437.21 254.12 C437.87 254.45 438.53 254.78 439.21 255.12 C441.21 256.12 441.21 256.12 442.27 258.93 C442.97 261.32 443.65 263.69 444.21 266.12 C444.87 266.12 445.53 266.12 446.21 266.12 C446.54 268.43 446.87 270.74 447.21 273.12 C448.2 273.12 449.19 273.12 450.21 273.12 C450.44 275.11 450.67 277.09 450.89 279.08 C451.18 281.31 451.18 281.31 452.21 284.12 C452.87 284.45 453.53 284.78 454.21 285.12 C456.16 289.1 457.21 291.64 457.21 296.12 C458.2 296.12 459.19 296.12 460.21 296.12 C459.88 297.44 459.55 298.76 459.21 300.12 C459.87 300.12 460.53 300.12 461.21 300.12 C461.26 300.76 461.31 301.4 461.36 302.05 C461.43 302.88 461.51 303.71 461.58 304.56 C461.65 305.38 461.72 306.21 461.8 307.05 C461.93 307.74 462.07 308.42 462.21 309.12 C462.87 309.45 463.53 309.78 464.21 310.12 C465.06 312.05 465.06 312.05 465.83 314.43 C466.09 315.21 466.36 315.99 466.62 316.8 C467.21 319.12 467.21 319.12 467.21 323.12 C468.2 323.12 469.19 323.12 470.21 323.12 C470.33 324.32 470.46 325.51 470.58 326.75 C471.04 330.41 471.95 333.65 473.21 337.12 C473.37 337.82 473.54 338.52 473.71 339.25 C474.14 341.17 474.14 341.17 475.21 342.93 C476.21 345.12 476.21 345.12 476.71 348.75 C476.88 352.18 476.88 352.18 479.21 354.12 C479.21 356.45 479.21 358.79 479.21 361.12 C479.87 362.79 480.54 364.46 481.21 366.12 C481.47 368.43 481.65 370.72 481.77 373.03 C482.31 375.6 483.37 376.33 485.21 378.12 C485.93 382.43 486.18 386.65 486.42 391.01 C486.45 391.69 486.49 392.37 486.53 393.06 C486.64 395.06 486.74 397.06 486.83 399.06 C486.96 400.07 487.08 401.08 487.21 402.12 C487.87 402.45 488.53 402.78 489.21 403.12 C489.17 404.46 489.17 404.46 489.14 405.82 C489.12 406.99 489.1 408.16 489.08 409.37 C489.05 411.11 489.05 411.11 489.01 412.89 C488.96 415.98 488.96 415.98 490.2 417.86 C491.61 421.02 491.57 424.1 491.62 427.51 C491.65 428.57 491.65 428.57 491.68 429.65 C491.74 431.89 491.79 434.13 491.83 436.37 C491.87 437.89 491.91 439.42 491.95 440.94 C492.05 444.67 492.13 448.39 492.21 452.12 C492.87 452.45 493.53 452.78 494.21 453.12 C494.26 459.21 494.3 465.29 494.32 471.38 C494.33 473.45 494.34 475.53 494.36 477.6 C494.38 480.57 494.4 483.54 494.4 486.52 C494.41 487.45 494.43 488.38 494.44 489.34 C494.44 490.63 494.44 490.63 494.44 491.95 C494.44 492.71 494.45 493.46 494.45 494.25 C494.21 496.12 494.21 496.12 492.21 498.12 C491.98 500.54 491.86 502.86 491.83 505.28 C491.81 505.99 491.8 506.69 491.78 507.42 C491.73 509.67 491.69 511.93 491.65 514.18 C491.6 516.44 491.56 518.7 491.5 520.96 C491.47 522.37 491.45 523.77 491.42 525.18 C491.32 530.01 491.32 530.01 490.21 531.12 C489.97 534.3 489.81 537.47 489.69 540.66 C489.42 545.91 489.42 545.91 487.21 548.12 C486.68 550.8 486.68 550.8 486.43 553.93 C486.25 555.67 486.25 555.67 486.06 557.44 C485.95 558.65 485.83 559.87 485.71 561.12 C485.48 563.52 485.24 565.91 484.99 568.31 C484.89 569.37 484.79 570.44 484.68 571.54 C484.21 574.12 484.21 574.12 482.21 576.12 C481.69 578.21 481.69 578.21 481.43 580.62 C481.25 581.95 481.25 581.95 481.06 583.31 C480.95 584.24 480.83 585.16 480.71 586.12 C480.48 587.95 480.24 589.79 479.99 591.62 C479.89 592.43 479.79 593.25 479.68 594.09 C479.21 596.12 479.21 596.12 477.21 598.12 C476.84 600.45 476.51 602.78 476.21 605.12 C475.88 605.45 475.55 605.78 475.21 606.12 C474.91 607.45 474.65 608.78 474.4 610.12 C473.66 613.63 472.62 616.63 471.08 619.87 C469.52 623.17 468.99 625.42 469.21 629.12 C468.55 629.78 467.89 630.44 467.21 631.12 C466.75 633.09 466.75 633.09 466.58 635.25 C466.4 637.16 466.4 637.16 466.21 639.12 C464.89 639.12 463.57 639.12 462.21 639.12 C462.16 639.8 462.11 640.47 462.06 641.17 C461.99 642.06 461.91 642.95 461.83 643.87 C461.73 645.19 461.73 645.19 461.62 646.54 C461.21 649.13 460.47 650.85 459.21 653.12 C458.87 654.45 458.53 655.78 458.21 657.12 C457.56 658.79 456.9 660.46 456.21 662.12 C455.55 662.12 454.89 662.12 454.21 662.12 C454.09 662.9 453.96 663.69 453.83 664.5 C453.21 667.12 453.21 667.12 451.21 669.12 C450.65 670.89 450.15 672.69 449.71 674.5 C448.85 677.96 447.93 680.99 446.21 684.12 C445.55 684.12 444.89 684.12 444.21 684.12 C444.11 685.01 444 685.89 443.9 686.81 C443.19 690.2 442.25 692.34 440.21 695.12 C439.55 695.12 438.89 695.12 438.21 695.12 C437.55 697.43 436.89 699.74 436.21 702.12 C435.55 702.12 434.89 702.12 434.21 702.12 C434.21 702.78 434.21 703.44 434.21 704.12 C433.55 704.12 432.89 704.12 432.21 704.12 C431.88 706.76 431.55 709.4 431.21 712.12 C430.55 712.12 429.89 712.12 429.21 712.12 C429.21 712.78 429.21 713.44 429.21 714.12 C428.55 714.12 427.89 714.12 427.21 714.12 C427.54 715.11 427.87 716.1 428.21 717.12 C427.55 717.45 426.89 717.78 426.21 718.12 C425.55 717.79 424.89 717.46 424.21 717.12 C424.21 718.44 424.21 719.76 424.21 721.12 C422.89 721.45 421.57 721.78 420.21 722.12 C421.2 723.11 422.19 724.1 423.21 725.12 C422.22 725.78 421.23 726.44 420.21 727.12 C419.09 729.46 419.09 729.46 418.21 732.12 C417.54 733.79 416.88 735.45 416.21 737.12 C414.89 737.12 413.57 737.12 412.21 737.12 C412.13 738.17 412.04 739.22 411.96 740.31 C411.16 744.39 410.02 746.13 407.21 749.12 C406.55 747.8 405.89 746.48 405.21 745.12 C405.3 746.51 405.3 746.51 405.4 747.93 C405.21 751.12 405.21 751.12 403.83 753 C402.21 754.12 402.21 754.12 400.21 754.12 C400.54 755.11 400.87 756.1 401.21 757.12 C400.22 757.12 399.23 757.12 398.21 757.12 C397.88 756.46 397.55 755.8 397.21 755.12 C397.17 756.01 397.17 756.01 397.13 756.91 C396.75 762.19 396.1 765.23 392.21 769.12 C391.55 767.8 390.89 766.48 390.21 765.12 C390.21 767.1 390.21 769.08 390.21 771.12 C388.56 771.45 386.91 771.78 385.21 772.12 C385.87 773.44 386.53 774.76 387.21 776.12 C384.21 776.12 384.21 776.12 382.21 775.12 C382.21 776.44 382.21 777.76 382.21 779.12 C381.55 779.12 380.89 779.12 380.21 779.12 C380.54 780.11 380.87 781.1 381.21 782.12 C380.59 782.33 379.97 782.53 379.33 782.75 C376.94 783.95 376.94 783.95 376.6 786.65 C374.52 791.85 370.79 795.09 366.84 798.98 C366.01 799.82 365.18 800.65 364.32 801.51 C362.57 803.26 360.81 805.01 359.04 806.75 C356.34 809.43 353.65 812.12 350.97 814.82 C349.26 816.52 347.55 818.22 345.84 819.92 C345.04 820.73 344.23 821.54 343.4 822.37 C342.65 823.11 341.9 823.85 341.12 824.61 C340.46 825.27 339.8 825.92 339.12 826.6 C337.08 828.22 335.69 828.5 333.21 829.12 C332.55 830.11 331.89 831.1 331.21 832.12 C330.55 832.43 329.89 832.74 329.21 833.06 C327.03 833.95 327.03 833.95 326.27 836.18 C325.92 836.82 325.57 837.46 325.21 838.12 C322.58 838.87 322.58 838.87 320.21 839.12 C320.54 840.11 320.87 841.1 321.21 842.12 C319.54 843.12 317.88 844.12 316.21 845.12 C315.36 845.7 314.52 846.28 313.65 846.87 C311.21 848.12 311.21 848.12 308.9 847.81 C308.34 847.58 307.78 847.35 307.21 847.12 C306.88 848.77 306.55 850.42 306.21 852.12 C304.23 852.12 302.25 852.12 300.21 852.12 C300.87 853.44 301.53 854.76 302.21 856.12 C299.21 856.12 299.21 856.12 297.21 855.12 C297.12 856.26 297.12 856.26 297.02 857.43 C296.21 860.12 296.21 860.12 293.77 862 C292.93 862.37 292.08 862.74 291.21 863.12 C290.55 862.79 289.89 862.46 289.21 862.12 C288.98 862.76 288.76 863.4 288.52 864.06 C287.21 866.12 287.21 866.12 284.58 866.87 C283.8 866.95 283.02 867.04 282.21 867.12 C282.21 868.44 282.21 869.76 282.21 871.12 C280.56 871.45 278.91 871.78 277.21 872.12 C277.21 872.78 277.21 873.44 277.21 874.12 C276.45 874.39 275.68 874.66 274.9 874.93 C272.23 875.92 272.23 875.92 270.71 877.62 C268.77 879.56 266.76 880.16 264.21 881.12 C263.22 881.78 262.23 882.44 261.21 883.12 C260.55 882.79 259.89 882.46 259.21 882.12 C259.21 882.78 259.21 883.44 259.21 884.12 C258.55 884.12 257.89 884.12 257.21 884.12 C257.21 884.78 257.21 885.44 257.21 886.12 C253.89 887.54 250.77 888.51 247.21 889.12 C247.21 889.78 247.21 890.44 247.21 891.12 C245.97 891.71 245.97 891.71 244.71 892.31 C242.1 893.66 239.73 895.04 237.27 896.62 C232.37 899.72 228.15 902.12 222.21 902.12 C222.21 902.78 222.21 903.44 222.21 904.12 C220.65 904.77 219.09 905.42 217.52 906.06 C216.65 906.42 215.78 906.78 214.89 907.15 C212.33 908.08 209.89 908.66 207.21 909.12 C207.21 909.78 207.21 910.44 207.21 911.12 C201.39 914.51 193.99 917.12 187.21 917.12 C187.21 917.78 187.21 918.44 187.21 919.12 C185.56 919.12 183.91 919.12 182.21 919.12 C182.21 919.78 182.21 920.44 182.21 921.12 C178.91 921.45 175.61 921.78 172.21 922.12 C172.21 923.11 172.21 924.1 172.21 925.12 C170.41 925.27 170.41 925.27 168.58 925.43 C164.61 925.91 161.78 927.3 158.21 929.12 C155.88 929.47 153.54 929.8 151.21 930.12 C145.81 931.37 145.81 931.37 141.21 934.12 C139.15 934.44 137.09 934.63 135.02 934.84 C133.19 934.94 133.19 934.94 132.21 936.12 C129.4 936.4 126.59 936.57 123.78 936.74 C121.05 936.88 121.05 936.88 119.21 939.12 C116.64 939.5 116.64 939.5 113.65 939.68 C110.12 939.62 110.12 939.62 107.21 941.12 C103.62 941.41 100.03 941.57 96.43 941.74 C93.12 941.79 93.12 941.79 91.21 944.12 C88.66 944.4 86.2 944.59 83.65 944.68 C79.06 944.48 79.06 944.48 75.21 946.12 C72.86 946.26 70.53 946.33 68.18 946.37 C66.74 946.4 65.29 946.43 63.84 946.47 C61.56 946.51 59.27 946.56 56.98 946.6 C54.77 946.64 52.57 946.69 50.37 946.74 C49.34 946.75 49.34 946.75 48.29 946.77 C44.31 946.77 44.31 946.77 41.21 949.12 C38.27 949.31 35.43 949.38 32.49 949.35 C31.16 949.35 31.16 949.35 29.8 949.35 C26.92 949.35 24.03 949.33 21.15 949.31 C19.18 949.3 17.22 949.29 15.25 949.29 C1.22 949.22 -12.78 948.89 -26.79 948.12 C-26.79 947.79 -26.79 947.46 -26.79 947.12 C-28.09 946.98 -29.39 946.83 -30.73 946.68 C-34.67 946.25 -34.67 946.25 -35.79 945.12 C-37.81 944.93 -39.84 944.8 -41.87 944.69 C-43.11 944.62 -44.36 944.54 -45.64 944.47 C-48.27 944.32 -50.9 944.18 -53.53 944.05 C-55.4 943.93 -55.4 943.93 -57.31 943.82 C-58.46 943.75 -59.6 943.69 -60.78 943.63 C-64.02 943.08 -65.32 942.19 -67.79 940.12 C-70.53 939.62 -70.53 939.62 -73.42 939.56 C-78.58 939.33 -78.58 939.33 -80.79 937.12 C-83.42 936.69 -83.42 936.69 -86.35 936.56 C-91.69 936.22 -91.69 936.22 -92.79 935.12 C-94.82 934.89 -96.85 934.67 -98.88 934.5 C-100.79 934.12 -100.79 934.12 -102.79 932.12 C-105.12 931.75 -107.45 931.42 -109.79 931.12 C-110.12 930.79 -110.45 930.46 -110.79 930.12 C-112.79 930.08 -114.79 930.08 -116.79 930.12 C-116.79 929.13 -116.79 928.14 -116.79 927.12 C-117.45 927.06 -118.12 927 -118.8 926.94 C-127.57 926.1 -127.57 926.1 -131.79 925.12 C-131.79 924.13 -131.79 923.14 -131.79 922.12 C-135.09 921.79 -138.39 921.46 -141.79 921.12 C-141.79 920.46 -141.79 919.8 -141.79 919.12 C-142.6 918.98 -143.4 918.83 -144.23 918.68 C-146.79 918.12 -146.79 918.12 -147.79 917.12 C-148.84 916.98 -149.89 916.83 -150.98 916.68 C-158.03 915.64 -163.85 912.97 -169.79 909.12 C-170.12 908.46 -170.45 907.8 -170.79 907.12 C-172.84 906.43 -172.84 906.43 -175.23 906 C-176.03 905.83 -176.83 905.66 -177.66 905.49 C-179.76 905.06 -179.76 905.06 -181.79 905.12 C-181.79 904.13 -181.79 903.14 -181.79 902.12 C-183.07 902.04 -184.35 901.96 -185.67 901.87 C-187.91 901.6 -187.91 901.6 -189.79 901.12 C-190.46 899.79 -191.12 898.45 -191.79 897.12 C-193.8 896.86 -195.82 896.61 -197.84 896.46 C-200.74 895.96 -201.89 894.28 -203.79 892.12 C-205.78 891.1 -207.78 890.1 -209.79 889.12 C-210.12 888.46 -210.45 887.8 -210.79 887.12 C-213.82 886.46 -213.82 886.46 -216.79 886.12 C-216.79 885.46 -216.79 884.8 -216.79 884.12 C-217.52 884.02 -218.25 883.91 -219.01 883.81 C-222.05 883.06 -223.82 881.95 -226.35 880.12 C-229.17 878.09 -231.35 876.74 -234.79 876.12 C-234.79 875.46 -234.79 874.8 -234.79 874.12 C-235.57 874 -236.36 873.87 -237.17 873.75 C-239.79 873.12 -239.79 873.12 -241.79 871.12 C-241.79 869.8 -241.79 868.48 -241.79 867.12 C-242.84 867.02 -243.89 866.91 -244.98 866.81 C-248.69 866.14 -250.78 865.33 -253.79 863.12 C-254.12 862.46 -254.45 861.8 -254.79 861.12 C-255.45 861.12 -256.11 861.12 -256.79 861.12 C-256.79 860.46 -256.79 859.8 -256.79 859.12 C-257.33 858.89 -257.86 858.67 -258.42 858.43 C-262.35 856.26 -265.61 853.3 -268.79 850.12 C-270.44 849.41 -272.11 848.74 -273.79 848.12 C-273.79 847.46 -273.79 846.8 -273.79 846.12 C-274.67 845.73 -275.56 845.34 -276.47 844.93 C-279.97 843.02 -282.18 841 -284.92 838.12 C-287.74 835.16 -290.46 832.5 -293.79 830.12 C-298.48 826.33 -302.74 822.22 -306.9 817.85 C-308.78 816.13 -310.52 815.24 -312.79 814.12 C-313.8 812.46 -314.8 810.79 -315.79 809.12 C-317.42 807.74 -319.09 806.41 -320.79 805.12 C-325.05 801.14 -328.71 796.61 -332.44 792.15 C-332.97 791.52 -333.5 790.89 -334.04 790.25 C-334.76 789.38 -334.76 789.38 -335.49 788.5 C-336.76 786.99 -336.76 786.99 -338.79 786.12 C-339.79 784.45 -340.79 782.79 -341.79 781.12 C-344.77 777.04 -344.77 777.04 -348.79 774.12 C-348.79 773.13 -348.79 772.14 -348.79 771.12 C-349.78 770.79 -350.77 770.46 -351.79 770.12 C-352.06 769.56 -352.33 769.01 -352.6 768.43 C-353.8 766.1 -354.89 765 -356.79 763.25 C-359.68 760.49 -360.85 758.05 -361.79 754.12 C-362.45 754.12 -363.11 754.12 -363.79 754.12 C-364.44 752.67 -364.44 752.67 -365.1 751.18 C-366.49 747.84 -366.49 747.84 -369.79 747.12 C-371.34 744.89 -372.56 742.62 -373.69 740.15 C-375.83 735.55 -377.77 733.3 -381.79 730.12 C-382.92 727.18 -382.92 727.18 -383.79 724.12 C-385.07 721.74 -386.46 719.55 -388.1 717.39 C-388.78 716.48 -388.78 716.48 -389.48 715.56 C-389.92 715 -390.35 714.44 -390.8 713.87 C-391.79 712.12 -391.79 712.12 -391.79 708.12 C-392.45 707.79 -393.11 707.46 -393.79 707.12 C-394.98 705.13 -396.09 703.1 -397.17 701.06 C-397.48 700.46 -397.79 699.87 -398.12 699.26 C-400.4 694.91 -402.62 690.53 -404.79 686.12 C-405.75 684.2 -406.71 682.29 -407.67 680.37 C-408.43 678.83 -408.43 678.83 -409.21 677.26 C-410.25 675.19 -411.3 673.13 -412.37 671.07 C-415.26 665.45 -417.73 659.88 -419.79 653.91 C-420.87 650.9 -422.09 647.99 -423.35 645.06 C-425.26 640.55 -426.78 636.06 -428.11 631.35 C-428.82 628.86 -428.82 628.86 -430.35 625.56 C-431.78 622.15 -432.53 619.01 -433.27 615.41 C-433.77 613.22 -434.42 611.18 -435.17 609.06 C-436.89 604.11 -438.11 599.06 -439.34 593.97 C-440.13 590.74 -440.96 587.54 -441.88 584.35 C-442.84 580.94 -443.29 577.62 -443.79 574.12 C-444.25 572.56 -444.25 572.56 -444.73 570.98 C-445.92 566.65 -446.63 562.37 -447.29 557.93 C-447.55 556.24 -447.81 554.56 -448.06 552.87 C-448.19 552.05 -448.31 551.24 -448.44 550.4 C-448.9 547.43 -449.4 544.46 -449.92 541.5 C-450.6 537.46 -451.15 533.43 -451.54 529.35 C-451.74 527.59 -452.01 525.85 -452.31 524.1 C-453.08 518.82 -452.9 513.51 -452.85 508.18 C-452.85 507.12 -452.84 506.05 -452.84 504.95 C-452.83 502.34 -452.81 499.73 -452.79 497.12 C-453.45 496.79 -454.11 496.46 -454.79 496.12 C-454.82 490.01 -454.83 483.91 -454.85 477.8 C-454.85 475.72 -454.86 473.65 -454.87 471.57 C-454.88 468.59 -454.88 465.61 -454.89 462.62 C-454.89 461.69 -454.9 460.75 -454.9 459.79 C-454.9 458.93 -454.9 458.07 -454.9 457.18 C-454.91 456.42 -454.91 455.66 -454.91 454.87 C-454.79 453.12 -454.79 453.12 -453.79 452.12 C-453.64 450.18 -453.56 448.24 -453.51 446.29 C-453.47 445.1 -453.43 443.91 -453.4 442.68 C-453.36 441.42 -453.33 440.17 -453.29 438.87 C-453.22 436.41 -453.15 433.94 -453.07 431.48 C-453.03 429.83 -453.03 429.83 -452.98 428.15 C-452.81 425.37 -452.38 422.84 -451.79 420.12 C-451.61 418.73 -451.44 417.34 -451.29 415.95 C-451.21 415.2 -451.13 414.46 -451.04 413.69 C-450.87 412.13 -450.71 410.57 -450.54 409.01 C-449.9 403.23 -449.9 403.23 -448.79 402.12 C-448.6 400.29 -448.47 398.46 -448.35 396.62 C-448.01 391.98 -447.37 387.62 -446.27 383.1 C-445.63 380.46 -445.2 377.8 -444.79 375.12 C-444.13 375.12 -443.47 375.12 -442.79 375.12 C-442.81 374.48 -442.84 373.84 -442.86 373.18 C-443 366.65 -441.98 361.51 -439.81 355.33 C-438.43 350.99 -437.53 346.59 -436.57 342.14 C-435.89 339.51 -435.07 337.5 -433.79 335.12 C-432.27 330.17 -431.03 325.15 -429.79 320.12 C-429.13 320.12 -428.47 320.12 -427.79 320.12 C-427.85 319.25 -427.91 318.39 -427.98 317.5 C-427.76 313.59 -426.64 311.55 -424.79 308.12 C-423.29 304.54 -421.97 301.06 -421.23 297.25 C-420.79 295.12 -420.79 295.12 -418.79 293.12 C-418.1 291.54 -417.46 289.93 -416.85 288.31 C-415.45 284.65 -413.81 281.48 -411.79 278.12 C-411.44 276.46 -411.11 274.79 -410.79 273.12 C-410.13 272.46 -409.47 271.8 -408.79 271.12 C-408.14 269.6 -407.54 268.05 -406.98 266.5 C-405.37 262.33 -403.45 258.76 -401.01 255.04 C-399.81 253.15 -398.82 251.26 -397.85 249.25 C-395.9 245.22 -393.62 241.45 -391.3 237.63 C-389.89 235.28 -388.55 232.9 -387.23 230.5 C-385.57 227.49 -383.87 224.5 -382.1 221.56 C-381.71 220.9 -381.31 220.24 -380.9 219.55 C-380.54 219.08 -380.17 218.61 -379.79 218.12 C-379.13 218.12 -378.47 218.12 -377.79 218.12 C-377.61 216.98 -377.61 216.98 -377.42 215.81 C-376.79 213.12 -376.79 213.12 -374.79 210.12 C-374.13 210.12 -373.47 210.12 -372.79 210.12 C-372.75 209.44 -372.71 208.76 -372.67 208.06 C-371.62 204.54 -370.03 202.87 -367.6 200.2 C-365.51 197.8 -363.7 195.27 -361.85 192.68 C-359.39 189.24 -356.88 186 -354.04 182.87 C-351.01 179.51 -348.88 176.13 -346.79 172.12 C-346.13 172.12 -345.47 172.12 -344.79 172.12 C-344.56 171.58 -344.34 171.05 -344.1 170.5 C-342.37 167.37 -340.13 164.8 -337.79 162.12 C-337.29 161.54 -336.79 160.95 -336.28 160.35 C-331.85 155.22 -327.2 150.37 -322.41 145.57 C-321.63 144.79 -320.85 144.01 -320.05 143.2 C-318.42 141.57 -316.79 139.93 -315.16 138.3 C-312.66 135.8 -310.17 133.3 -307.69 130.79 C-306.09 129.2 -304.5 127.6 -302.91 126.01 C-302.17 125.26 -301.43 124.51 -300.67 123.74 C-296.37 119.47 -292.64 116.07 -286.79 114.12 C-286.79 113.46 -286.79 112.8 -286.79 112.12 C-286.13 112.12 -285.47 112.12 -284.79 112.12 C-284.54 111.52 -284.3 110.92 -284.04 110.31 C-282.17 107.04 -279.63 105.61 -276.42 103.75 C-273.88 102.17 -271.67 100.4 -269.41 98.45 C-267.66 97.01 -265.84 95.72 -263.98 94.43 C-260.78 92.49 -260.78 92.49 -259.79 90.12 C-258.9 89.69 -258.02 89.25 -257.1 88.81 C-254.43 87.45 -252.78 86.36 -250.6 84.43 C-247.79 82.12 -247.79 82.12 -244.79 82.12 C-244.79 81.46 -244.79 80.8 -244.79 80.12 C-241.84 77.38 -241.02 77.12 -236.79 77.12 C-236.45 76.16 -236.45 76.16 -236.1 75.18 C-234.79 73.12 -234.79 73.12 -232.17 72.37 C-231.38 72.29 -230.6 72.21 -229.79 72.12 C-229.79 71.46 -229.79 70.8 -229.79 70.12 C-228.84 69.67 -227.89 69.21 -226.92 68.75 C-223.79 67.32 -223.79 67.32 -221.79 65.12 C-220.13 64.44 -218.46 63.78 -216.79 63.12 C-214.24 61.87 -211.73 60.53 -209.23 59.18 C-208.24 58.66 -208.24 58.66 -207.23 58.13 C-203.86 56.33 -200.85 54.42 -197.79 52.12 C-190.46 48.1 -183.11 44.72 -175.2 42.03 C-172.9 41.16 -170.94 40.14 -168.85 38.87 C-165.79 37.12 -165.79 37.12 -161.79 37.12 C-161.79 36.46 -161.79 35.8 -161.79 35.12 C-160.86 34.88 -159.93 34.64 -158.97 34.39 C-151.08 32.39 -151.08 32.39 -143.79 28.87 C-140.47 26.93 -138.57 26.75 -134.79 27.12 C-134.79 26.46 -134.79 25.8 -134.79 25.12 C-129.29 23.16 -123.77 21.57 -118.1 20.18 C-105.28 17.05 -105.28 17.05 -92.73 13.01 C-89.77 12.11 -87.49 11.91 -84.42 12 C-83.54 12.01 -82.67 12.03 -81.77 12.05 C-80.79 12.08 -80.79 12.08 -79.79 12.12 C-79.79 11.46 -79.79 10.8 -79.79 10.12 C-78.86 9.99 -77.94 9.85 -76.98 9.72 C-75.78 9.54 -74.59 9.36 -73.35 9.18 C-71.56 8.92 -71.56 8.92 -69.73 8.66 C-66.91 8.43 -66.91 8.43 -65.79 7.12 C-63.67 6.91 -61.54 6.75 -59.42 6.62 C-55.94 6.4 -53.1 6.22 -49.79 5.12 C-47.33 4.76 -44.88 4.42 -42.42 4.12 C-37.41 3.52 -37.41 3.52 -32.46 2.61 C-29.42 2.05 -26.52 1.92 -23.43 1.84 C-21.63 1.78 -21.63 1.78 -19.8 1.73 C-17.28 1.65 -14.76 1.58 -12.23 1.51 C-11.04 1.48 -9.85 1.44 -8.62 1.4 C-7.52 1.37 -6.43 1.34 -5.3 1.31 C-2.66 1.11 -2.42 0.16 0 0 Z M483.21 379.12 C483.21 381.1 483.21 383.08 483.21 385.12 C483.54 385.12 483.87 385.12 484.21 385.12 C484.21 383.14 484.21 381.16 484.21 379.12 C483.88 379.12 483.55 379.12 483.21 379.12 Z M484.21 385.12 C485.21 387.12 485.21 387.12 485.21 387.12 Z M417.21 729.12 C418.21 731.12 418.21 731.12 418.21 731.12 Z M378.21 779.12 C379.21 781.12 379.21 781.12 379.21 781.12 Z M377.21 781.12 C377.21 781.78 377.21 782.44 377.21 783.12 C377.87 782.79 378.53 782.46 379.21 782.12 C378.55 781.79 377.89 781.46 377.21 781.12 Z M318.21 839.12 C319.21 841.12 319.21 841.12 319.21 841.12 Z " fill="#235195" transform="translate(619.7906646728516,164.87974548339844)"/>
<path d="M0 0 C1.01 -0 2.02 -0.01 3.05 -0.01 C8.36 -0.02 13.67 -0.03 18.98 -0.04 C24.45 -0.04 29.93 -0.07 35.4 -0.1 C39.63 -0.11 43.86 -0.12 48.08 -0.12 C50.11 -0.12 52.13 -0.13 54.15 -0.14 C56.96 -0.16 59.77 -0.16 62.58 -0.15 C63.83 -0.17 63.83 -0.17 65.1 -0.18 C70.74 -0.14 70.74 -0.14 72.91 1.48 C75.2 4.54 74.6 8.39 74.56 12.06 C74.56 12.97 74.56 13.88 74.56 14.81 C74.56 17.81 74.55 20.81 74.53 23.8 C74.52 25.88 74.52 27.96 74.52 30.04 C74.52 34.4 74.5 38.75 74.48 43.11 C74.45 48.71 74.44 54.3 74.44 59.9 C74.43 64.19 74.42 68.48 74.41 72.77 C74.41 74.84 74.4 76.9 74.4 78.97 C74.39 81.84 74.38 84.72 74.36 87.6 C74.36 88.46 74.36 89.32 74.36 90.21 C74.31 96.09 74.31 96.09 73.2 97.2 C71.41 97.31 69.62 97.35 67.83 97.36 C66.68 97.37 65.53 97.38 64.35 97.39 C63.09 97.4 61.84 97.41 60.55 97.41 C58.58 97.43 56.62 97.46 54.66 97.48 C49.81 97.53 44.96 97.57 40.11 97.6 C37.39 97.62 34.68 97.65 31.97 97.68 C29.41 97.71 26.86 97.73 24.3 97.74 C13.44 97.89 3.45 99.66 -4.8 107.2 C-13.8 118.88 -13.98 132.18 -13.9 146.34 C-13.9 147.35 -13.9 148.35 -13.89 149.39 C-13.89 152.55 -13.88 155.72 -13.86 158.89 C-13.86 161.06 -13.85 163.22 -13.85 165.39 C-13.84 170.66 -13.82 175.93 -13.8 181.2 C-10.72 182.75 -7.46 182.36 -4.08 182.36 C-3.28 182.37 -2.48 182.37 -1.66 182.38 C0.07 182.39 1.8 182.4 3.54 182.4 C6.28 182.41 9.01 182.43 11.75 182.46 C19.54 182.52 27.33 182.57 35.12 182.6 C39.89 182.63 44.65 182.66 49.41 182.71 C51.23 182.72 53.04 182.73 54.86 182.73 C57.4 182.74 59.94 182.76 62.48 182.79 C63.61 182.78 63.61 182.78 64.77 182.78 C66.86 182.81 66.86 182.81 70.2 183.2 C75.61 191.32 72.59 202.72 71.51 211.89 C71.13 215.27 70.75 218.64 70.38 222.02 C70.28 222.91 70.18 223.79 70.08 224.7 C69.32 231.73 68.71 238.75 68.14 245.79 C68.06 246.84 67.97 247.89 67.89 248.96 C67.55 253.11 67.22 257.26 66.91 261.41 C66.69 264.3 66.46 267.19 66.23 270.09 C66.17 270.95 66.11 271.82 66.05 272.71 C65.98 273.51 65.91 274.31 65.84 275.13 C65.79 275.82 65.74 276.52 65.68 277.23 C65.01 279.96 64.27 281.27 62.2 283.2 C59.03 283.72 59.03 283.72 55.07 283.75 C54.34 283.76 53.62 283.77 52.88 283.78 C50.49 283.81 48.11 283.81 45.72 283.81 C44.06 283.83 42.41 283.84 40.75 283.86 C36.4 283.91 32.04 283.93 27.69 283.94 C22.46 283.96 17.24 284.02 12.01 284.06 C4.08 284.13 -3.86 284.17 -11.8 284.2 C-12.59 317.36 -12.91 350.49 -12.78 383.65 C-12.76 391.05 -12.74 398.45 -12.72 405.86 C-12.68 427.52 -12.63 449.19 -12.55 470.86 C-12.5 481.89 -12.48 492.93 -12.47 503.97 C-12.46 510.12 -12.44 516.28 -12.41 522.44 C-12.38 528.18 -12.36 533.92 -12.37 539.66 C-12.36 541.77 -12.35 543.87 -12.34 545.98 C-12.32 548.85 -12.32 551.71 -12.33 554.57 C-12.31 555.41 -12.3 556.25 -12.29 557.12 C-12.34 562.67 -12.34 562.67 -14.54 565.22 C-17.04 566.31 -18.74 566.58 -21.47 566.59 C-22.87 566.61 -22.87 566.61 -24.3 566.62 C-25.32 566.62 -26.33 566.61 -27.38 566.61 C-29 566.62 -29 566.62 -30.64 566.63 C-34.21 566.65 -37.77 566.64 -41.33 566.64 C-43.81 566.64 -46.28 566.65 -48.75 566.65 C-53.94 566.66 -59.12 566.66 -64.31 566.65 C-70.96 566.64 -77.61 566.66 -84.26 566.69 C-89.37 566.71 -94.48 566.71 -99.58 566.7 C-102.04 566.7 -104.49 566.71 -106.94 566.72 C-110.37 566.73 -113.79 566.72 -117.22 566.7 C-118.24 566.71 -119.26 566.72 -120.3 566.73 C-121.24 566.72 -122.17 566.71 -123.13 566.7 C-123.94 566.7 -124.75 566.7 -125.59 566.7 C-128.93 565.95 -129.9 565.1 -131.8 562.2 C-132.4 558.58 -132.34 554.98 -132.31 551.31 C-132.32 550.19 -132.33 549.06 -132.33 547.9 C-132.35 544.13 -132.34 540.35 -132.33 536.57 C-132.34 533.86 -132.35 531.16 -132.36 528.46 C-132.38 522.63 -132.38 516.8 -132.38 510.97 C-132.37 502.54 -132.39 494.11 -132.41 485.68 C-132.45 472 -132.47 458.31 -132.47 444.63 C-132.48 431.34 -132.5 418.06 -132.52 404.78 C-132.52 403.96 -132.52 403.14 -132.52 402.3 C-132.54 393.37 -132.55 384.44 -132.57 375.51 C-132.57 374.33 -132.57 374.33 -132.58 373.13 C-132.59 368.43 -132.59 368.43 -132.6 363.73 C-132.61 354.54 -132.63 345.35 -132.63 336.17 C-132.64 330.4 -132.64 324.64 -132.65 318.88 C-132.66 315.56 -132.66 312.23 -132.66 308.9 C-132.66 305.3 -132.66 301.7 -132.67 298.1 C-132.67 296.51 -132.67 296.51 -132.66 294.9 C-132.67 293.93 -132.67 292.97 -132.67 291.98 C-132.67 291.15 -132.67 290.32 -132.67 289.46 C-132.8 287.25 -133.19 285.32 -133.8 283.2 C-134.46 283.2 -135.11 283.19 -135.79 283.19 C-142.6 283.12 -149.41 283.04 -156.23 282.94 C-158.77 282.91 -161.31 282.88 -163.85 282.86 C-167.51 282.82 -171.16 282.77 -174.82 282.71 C-175.96 282.71 -177.09 282.7 -178.27 282.7 C-179.86 282.67 -179.86 282.67 -181.48 282.64 C-182.41 282.62 -183.35 282.61 -184.31 282.6 C-187.46 282.1 -188.72 281.66 -190.8 279.2 C-191.19 276.26 -191.33 273.7 -191.29 270.76 C-191.29 269.89 -191.29 269.03 -191.3 268.14 C-191.31 265.29 -191.28 262.44 -191.26 259.58 C-191.26 257.6 -191.26 255.62 -191.26 253.64 C-191.26 249.48 -191.24 245.33 -191.21 241.17 C-191.18 235.84 -191.17 230.52 -191.17 225.19 C-191.17 221.1 -191.16 217 -191.15 212.91 C-191.14 210.95 -191.14 208.98 -191.13 207.02 C-191.13 204.27 -191.11 201.53 -191.09 198.78 C-191.09 197.97 -191.09 197.15 -191.09 196.32 C-191.01 189.05 -191.01 189.05 -188.8 186.2 C-185.76 184.11 -183.21 183.96 -179.57 183.98 C-178.53 183.98 -177.49 183.98 -176.42 183.98 C-174.74 183.99 -174.74 183.99 -173.04 184.01 C-171.89 184.01 -170.74 184.01 -169.55 184.02 C-165.89 184.03 -162.22 184.05 -158.55 184.08 C-156.06 184.09 -153.58 184.1 -151.09 184.11 C-144.99 184.13 -138.9 184.16 -132.8 184.2 C-132.79 183.26 -132.78 182.32 -132.78 181.35 C-132.7 172.41 -132.61 163.46 -132.51 154.52 C-132.46 149.93 -132.42 145.33 -132.38 140.74 C-132.34 136.29 -132.3 131.84 -132.24 127.39 C-132.22 125.71 -132.21 124.02 -132.2 122.34 C-131.94 86.31 -122.16 54.28 -96.86 27.95 C-70.28 2.15 -35.04 0.07 0 0 Z " fill="#FAFDFF" transform="translate(696.80078125,357.796875)"/>
<path d="M0 0 C0.99 0.33 1.98 0.66 3 1 C-3.62 8.56 -10.57 15.76 -17.68 22.86 C-19.46 24.65 -21.24 26.45 -23.02 28.25 C-24.16 29.39 -25.3 30.53 -26.43 31.66 C-26.96 32.2 -27.49 32.74 -28.04 33.29 C-31.77 37 -31.77 37 -34 37 C-34 37.66 -34 38.32 -34 39 C-34.66 39 -35.32 39 -36 39 C-35.42 35.47 -34.19 33.83 -31.67 31.33 C-30.97 30.63 -30.27 29.93 -29.55 29.21 C-28.41 28.09 -28.41 28.09 -27.25 26.95 C-26.08 25.8 -26.08 25.8 -24.9 24.62 C-22.42 22.15 -19.93 19.7 -17.44 17.25 C-15.76 15.58 -14.07 13.91 -12.39 12.25 C-8.27 8.16 -4.14 4.07 0 0 Z " fill="#57749F" transform="translate(322,286)"/>
<path d="M0 0 C0.33 0 0.66 0 1 0 C1 10.89 1 21.78 1 33 C0.67 33 0.34 33 0 33 C0 22.11 0 11.22 0 0 Z " fill="#235296" transform="translate(164,623)"/>
<path d="M0 0 C7.92 0 15.84 0 24 0 C24 0.33 24 0.66 24 1 C16.08 1 8.16 1 0 1 C0 0.67 0 0.34 0 0 Z " fill="#000002" transform="translate(663,1112)"/>
<path d="M0 0 C0.33 0 0.66 0 1 0 C1 7.92 1 15.84 1 24 C0.67 24 0.34 24 0 24 C0 16.08 0 8.16 0 0 Z " fill="#000002" transform="translate(1112,663)"/>
<path d="M0 0 C0.33 0 0.66 0 1 0 C1 7.92 1 15.84 1 24 C0.67 24 0.34 24 0 24 C0 16.08 0 8.16 0 0 Z " fill="#000002" transform="translate(1112,593)"/>
<path d="M0 0 C6.6 0 13.2 0 20 0 C20 0.33 20 0.66 20 1 C13.4 1 6.8 1 0 1 C0 0.67 0 0.34 0 0 Z " fill="#235296" transform="translate(627,164)"/>
<path d="M0 0 C0.33 0 0.66 0 1 0 C1.98 4.05 2.08 7.84 2 12 C-0.14 8.8 -0.23 7.98 -0.12 4.31 C-0.11 3.5 -0.09 2.7 -0.07 1.86 C-0.05 1.25 -0.02 0.63 0 0 Z " fill="#000002" transform="translate(1109,572)"/>
<path d="M0 0 C3.63 0 7.26 0 11 0 C11 0.33 11 0.66 11 1 C7.37 1 3.74 1 0 1 C0 0.67 0 0.34 0 0 Z " fill="#000002" transform="translate(713,1107)"/>
<path d="M0 0 C0.33 0 0.66 0 1 0 C1 3.3 1 6.6 1 10 C0.67 10 0.34 10 0 10 C0 6.7 0 3.4 0 0 Z " fill="#000002" transform="translate(1107,713)"/>
<path d="M0 0 C0.33 0 0.66 0 1 0 C1 3.3 1 6.6 1 10 C0.67 10 0.34 10 0 10 C0 6.7 0 3.4 0 0 Z " fill="#000002" transform="translate(1107,557)"/>
<path d="M0 0 C0.33 0 0.66 0 1 0 C1 2.64 1 5.28 1 8 C0.67 8 0.34 8 0 8 C0 5.36 0 2.72 0 0 Z " fill="#000002" transform="translate(1102,532)"/>
<path d="M0 0 C2.31 0 4.62 0 7 0 C7 0.33 7 0.66 7 1 C4.69 1 2.38 1 0 1 C0 0.67 0 0.34 0 0 Z " fill="#000002" transform="translate(696,1110)"/>
<path d="M0 0 C2.31 0 4.62 0 7 0 C7 0.33 7 0.66 7 1 C4.69 1 2.38 1 0 1 C0 0.67 0 0.34 0 0 Z " fill="#000002" transform="translate(577,1110)"/>
<path d="M0 0 C2.31 0 4.62 0 7 0 C7 0.33 7 0.66 7 1 C4.69 1 2.38 1 0 1 C0 0.67 0 0.34 0 0 Z " fill="#000002" transform="translate(741,1102)"/>
<path d="M0 0 C2.31 0 4.62 0 7 0 C7 0.33 7 0.66 7 1 C4.69 1 2.38 1 0 1 C0 0.67 0 0.34 0 0 Z " fill="#000002" transform="translate(532,1102)"/>
<path d="M0 0 C0.33 0 0.66 0 1 0 C1 2.31 1 4.62 1 7 C0.67 7 0.34 7 0 7 C0 4.69 0 2.38 0 0 Z " fill="#000002" transform="translate(1102,741)"/>
<path d="M0 0 C0.33 0 0.66 0 1 0 C1 2.31 1 4.62 1 7 C0.67 7 0.34 7 0 7 C0 4.69 0 2.38 0 0 Z " fill="#000002" transform="translate(1110,696)"/>
<path d="M0 0 C0.99 1.49 0.99 1.49 2 3 C1.67 3.66 1.34 4.32 1 5 C0.67 3.35 0.34 1.7 0 0 Z " fill="#000002" transform="translate(1099,522)"/>
<path d="M0 0 C1.65 0 3.3 0 5 0 C5 0.33 5 0.66 5 1 C3.35 1 1.7 1 0 1 C0 0.67 0 0.34 0 0 Z " fill="#000002" transform="translate(728,1105)"/>
<path d="M0 0 C1.65 0 3.3 0 5 0 C5 0.33 5 0.66 5 1 C3.35 1 1.7 1 0 1 C0 0.67 0 0.34 0 0 Z " fill="#000002" transform="translate(547,1105)"/>
<path d="M0 0 C1.65 0 3.3 0 5 0 C5 0.33 5 0.66 5 1 C3.35 1 1.7 1 0 1 C0 0.67 0 0.34 0 0 Z " fill="#000002" transform="translate(512,1097)"/>
<path d="M0 0 C1.65 0 3.3 0 5 0 C5 0.33 5 0.66 5 1 C3.35 1 1.7 1 0 1 C0 0.67 0 0.34 0 0 Z " fill="#000002" transform="translate(467,1082)"/>
<path d="M0 0 C0.33 0 0.66 0 1 0 C1 1.65 1 3.3 1 5 C0.67 5 0.34 5 0 5 C0 3.35 0 1.7 0 0 Z " fill="#000002" transform="translate(1082,808)"/>
<path d="M0 0 C0.33 0 0.66 0 1 0 C1 1.65 1 3.3 1 5 C0.67 5 0.34 5 0 5 C0 3.35 0 1.7 0 0 Z " fill="#000002" transform="translate(1097,763)"/>
<path d="M0 0 C0.33 0 0.66 0 1 0 C1 1.65 1 3.3 1 5 C0.67 5 0.34 5 0 5 C0 3.35 0 1.7 0 0 Z " fill="#000002" transform="translate(1105,728)"/>
<path d="M0 0 C0.33 0 0.66 0 1 0 C1 1.65 1 3.3 1 5 C0.67 5 0.34 5 0 5 C0 3.35 0 1.7 0 0 Z " fill="#000002" transform="translate(1097,512)"/>
<path d="M0 0 C0.33 0 0.66 0 1 0 C1 1.65 1 3.3 1 5 C0.67 5 0.34 5 0 5 C0 3.35 0 1.7 0 0 Z " fill="#000002" transform="translate(1082,467)"/>
<path d="M0 0 C4 1 4 1 4 1 Z " fill="#000002" transform="translate(764,1097)"/>
<path d="M0 0 C4 1 4 1 4 1 Z " fill="#000002" transform="translate(809,1082)"/>
<path d="M0 0 C0.99 0.5 0.99 0.5 2 1 C1.34 1.66 0.68 2.32 0 3 C0 2.01 0 1.02 0 0 Z " fill="#000002" transform="translate(1040,892)"/>
<path d="M0 0 C0 3 0 3 0 3 Z " fill="#000002" transform="translate(1090,788)"/>
<path d="M0 0 C3 1 3 1 3 1 Z " fill="#000002" transform="translate(771,1095)"/>
<path d="M0 0 C3 1 3 1 3 1 Z " fill="#000002" transform="translate(506,1095)"/>
<path d="M0 0 C3 1 3 1 3 1 Z " fill="#000002" transform="translate(781,1092)"/>
<path d="M0 0 C3 1 3 1 3 1 Z " fill="#000002" transform="translate(496,1092)"/>
<path d="M0 0 C3 1 3 1 3 1 Z " fill="#000002" transform="translate(796,1087)"/>
<path d="M0 0 C3 1 3 1 3 1 Z " fill="#000002" transform="translate(481,1087)"/>
<path d="M0 0 C3 1 3 1 3 1 Z " fill="#000002" transform="translate(833,1072)"/>
<path d="M0 0 C3 1 3 1 3 1 Z " fill="#000002" transform="translate(444,1072)"/>
<path d="" fill="#000002" transform="translate(0,0)"/>
<path d="" fill="#000002" transform="translate(0,0)"/>
<path d="" fill="#000002" transform="translate(0,0)"/>
<path d="" fill="#000002" transform="translate(0,0)"/>
<path d="" fill="#000002" transform="translate(0,0)"/>
<path d="" fill="#000002" transform="translate(0,0)"/>
<path d="" fill="#000002" transform="translate(0,0)"/>
<path d="M0 0 C2 1 2 1 2 1 Z " fill="#000002" transform="translate(753,1100)"/>
<path d="M0 0 C2 1 2 1 2 1 Z " fill="#000002" transform="translate(525,1100)"/>
<path d="M0 0 C2 1 2 1 2 1 Z " fill="#000002" transform="translate(788,1090)"/>
<path d="M0 0 C2 1 2 1 2 1 Z " fill="#000002" transform="translate(490,1090)"/>
<path d="M0 0 C2 1 2 1 2 1 Z " fill="#000002" transform="translate(838,1070)"/>
<path d="M0 0 C2 1 2 1 2 1 Z " fill="#000002" transform="translate(440,1070)"/>
<path d="M0 0 C2 1 2 1 2 1 Z " fill="#000002" transform="translate(864,1057)"/>
<path d="M0 0 C2 1 2 1 2 1 Z " fill="#000002" transform="translate(414,1057)"/>
<path d="M0 0 C2 1 2 1 2 1 Z " fill="#000002" transform="translate(873,1052)"/>
<path d="M0 0 C2 1 2 1 2 1 Z " fill="#000002" transform="translate(405,1052)"/>
<path d="M0 0 C2 1 2 1 2 1 Z " fill="#000002" transform="translate(885,1045)"/>
<path d="M0 0 C2 1 2 1 2 1 Z " fill="#000002" transform="translate(893,1040)"/>
<path d="M0 0 C2 1 2 1 2 1 Z " fill="#FAFDFF" transform="translate(917,1023)"/>
<path d="M0 0 C2 1 2 1 2 1 Z " fill="#000002" transform="translate(926,1017)"/>
<path d="" fill="#FAFDFF" transform="translate(0,0)"/>
<path d="" fill="#000002" transform="translate(0,0)"/>
<path d="" fill="#FAFDFF" transform="translate(0,0)"/>
<path d="" fill="#000002" transform="translate(0,0)"/>
<path d="" fill="#000002" transform="translate(0,0)"/>
<path d="" fill="#000002" transform="translate(0,0)"/>
<path d="" fill="#000002" transform="translate(0,0)"/>
<path d="" fill="#000002" transform="translate(0,0)"/>
<path d="" fill="#000002" transform="translate(0,0)"/>
<path d="" fill="#000002" transform="translate(0,0)"/>
<path d="" fill="#000002" transform="translate(0,0)"/>
<path d="" fill="#000002" transform="translate(0,0)"/>
<path d="" fill="#000002" transform="translate(0,0)"/>
<path d="" fill="#000002" transform="translate(0,0)"/>
<path d="" fill="#000002" transform="translate(0,0)"/>
<path d="" fill="#000002" transform="translate(0,0)"/>
<path d="" fill="#000002" transform="translate(0,0)"/>
<path d="" fill="#000002" transform="translate(0,0)"/>
<path d="" fill="#000002" transform="translate(0,0)"/>
<path d="" fill="#000002" transform="translate(0,0)"/>
<path d="" fill="#FAFDFF" transform="translate(0,0)"/>
<path d="" fill="#FAFDFF" transform="translate(0,0)"/>
<path d="" fill="#FAFDFF" transform="translate(0,0)"/>
<path d="" fill="#000002" transform="translate(0,0)"/>
<path d="" fill="#000002" transform="translate(0,0)"/>
<path d="" fill="#000002" transform="translate(0,0)"/>
<path d="" fill="#000002" transform="translate(0,0)"/>
<path d="" fill="#000002" transform="translate(0,0)"/>
<path d="" fill="#000002" transform="translate(0,0)"/>
<path d="" fill="#000002" transform="translate(0,0)"/>
<path d="" fill="#000002" transform="translate(0,0)"/>
<path d="" fill="#000002" transform="translate(0,0)"/>
<path d="" fill="#000002" transform="translate(0,0)"/>
<path d="" fill="#000002" transform="translate(0,0)"/>
<path d="" fill="#000002" transform="translate(0,0)"/>
<path d="" fill="#000002" transform="translate(0,0)"/>
<path d="" fill="#000002" transform="translate(0,0)"/>
<path d="" fill="#000002" transform="translate(0,0)"/>
<path d="" fill="#000002" transform="translate(0,0)"/>
<path d="" fill="#000002" transform="translate(0,0)"/>
<path d="" fill="#000002" transform="translate(0,0)"/>
<path d="" fill="#FAFDFF" transform="translate(0,0)"/>
<path d="" fill="#000002" transform="translate(0,0)"/>
<path d="" fill="#000002" transform="translate(0,0)"/>
<path d="" fill="#000002" transform="translate(0,0)"/>
<path d="" fill="#000002" transform="translate(0,0)"/>
<path d="" fill="#000002" transform="translate(0,0)"/>
<path d="" fill="#FAFDFF" transform="translate(0,0)"/>
<path d="" fill="#FAFDFF" transform="translate(0,0)"/>
<path d="" fill="#000002" transform="translate(0,0)"/>
<path d="" fill="#000002" transform="translate(0,0)"/>
<path d="" fill="#FAFDFF" transform="translate(0,0)"/>
<path d="" fill="#235296" transform="translate(0,0)"/>
<path d="" fill="#FAFDFF" transform="translate(0,0)"/>
<path d="" fill="#000002" transform="translate(0,0)"/>
<path d="" fill="#235296" transform="translate(0,0)"/>
<path d="" fill="#000002" transform="translate(0,0)"/>
<path d="" fill="#000002" transform="translate(0,0)"/>
<path d="" fill="#FAFDFF" transform="translate(0,0)"/>
<path d="" fill="#000002" transform="translate(0,0)"/>
<path d="" fill="#000002" transform="translate(0,0)"/>
<path d="" fill="#FAFDFF" transform="translate(0,0)"/>
<path d="" fill="#FAFDFF" transform="translate(0,0)"/>
<path d="" fill="#235296" transform="translate(0,0)"/>
<path d="" fill="#FAFDFF" transform="translate(0,0)"/>
<path d="" fill="#000002" transform="translate(0,0)"/>
<path d="" fill="#FAFDFF" transform="translate(0,0)"/>
<path d="" fill="#235296" transform="translate(0,0)"/>
<path d="" fill="#235296" transform="translate(0,0)"/>
<path d="" fill="#000002" transform="translate(0,0)"/>
<path d="" fill="#FAFDFF" transform="translate(0,0)"/>
<path d="" fill="#000002" transform="translate(0,0)"/>
<path d="" fill="#FAFDFF" transform="translate(0,0)"/>
<path d="" fill="#FAFDFF" transform="translate(0,0)"/>
<path d="" fill="#235296" transform="translate(0,0)"/>
<path d="" fill="#235296" transform="translate(0,0)"/>
<path d="" fill="#000002" transform="translate(0,0)"/>
<path d="" fill="#000002" transform="translate(0,0)"/>
<path d="" fill="#000002" transform="translate(0,0)"/>
<path d="" fill="#FAFDFF" transform="translate(0,0)"/>
<path d="" fill="#235296" transform="translate(0,0)"/>
<path d="" fill="#FAFDFF" transform="translate(0,0)"/>
<path d="" fill="#235296" transform="translate(0,0)"/>
<path d="" fill="#000002" transform="translate(0,0)"/>
<path d="" fill="#235296" transform="translate(0,0)"/>
<path d="" fill="#000002" transform="translate(0,0)"/>
<path d="" fill="#FAFDFF" transform="translate(0,0)"/>
<path d="" fill="#000002" transform="translate(0,0)"/>
<path d="" fill="#000002" transform="translate(0,0)"/>
<path d="" fill="#FAFDFF" transform="translate(0,0)"/>
<path d="" fill="#FAFDFF" transform="translate(0,0)"/>
<path d="" fill="#235296" transform="translate(0,0)"/>
<path d="" fill="#000002" transform="translate(0,0)"/>
<path d="" fill="#000002" transform="translate(0,0)"/>
<path d="" fill="#FAFDFF" transform="translate(0,0)"/>
<path d="" fill="#000002" transform="translate(0,0)"/>
<path d="" fill="#FAFDFF" transform="translate(0,0)"/>
<path d="" fill="#000002" transform="translate(0,0)"/>
<path d="" fill="#FAFDFF" transform="translate(0,0)"/>
<path d="" fill="#FAFDFF" transform="translate(0,0)"/>
<path d="" fill="#FAFDFF" transform="translate(0,0)"/>
<path d="" fill="#000002" transform="translate(0,0)"/>
<path d="" fill="#FAFDFF" transform="translate(0,0)"/>
<path d="" fill="#000002" transform="translate(0,0)"/>
<path d="" fill="#000002" transform="translate(0,0)"/>
<path d="" fill="#FAFDFF" transform="translate(0,0)"/>
<path d="" fill="#000002" transform="translate(0,0)"/>
<path d="" fill="#000002" transform="translate(0,0)"/>
<path d="" fill="#000002" transform="translate(0,0)"/>
<path d="" fill="#000002" transform="translate(0,0)"/>
<path d="" fill="#FAFDFF" transform="translate(0,0)"/>
<path d="" fill="#000002" transform="translate(0,0)"/>
<path d="" fill="#000002" transform="translate(0,0)"/>
<path d="" fill="#000002" transform="translate(0,0)"/>
<path d="" fill="#000002" transform="translate(0,0)"/>
<path d="" fill="#000002" transform="translate(0,0)"/>
<path d="" fill="#FAFDFF" transform="translate(0,0)"/>
<path d="" fill="#FAFDFF" transform="translate(0,0)"/>
<path d="" fill="#FAFDFF" transform="translate(0,0)"/>
<path d="" fill="#000002" transform="translate(0,0)"/>
<path d="" fill="#235296" transform="translate(0,0)"/>
<path d="" fill="#FAFDFF" transform="translate(0,0)"/>
<path d="" fill="#235296" transform="translate(0,0)"/>
<path d="" fill="#FAFDFF" transform="translate(0,0)"/>
<path d="" fill="#FAFDFF" transform="translate(0,0)"/>
<path d="" fill="#000002" transform="translate(0,0)"/>
<path d="" fill="#000002" transform="translate(0,0)"/>
<path d="" fill="#000002" transform="translate(0,0)"/>
<path d="" fill="#FAFDFF" transform="translate(0,0)"/>
<path d="" fill="#235296" transform="translate(0,0)"/>
<path d="" fill="#000002" transform="translate(0,0)"/>
<path d="" fill="#000002" transform="translate(0,0)"/>
<path d="" fill="#FAFDFF" transform="translate(0,0)"/>
<path d="" fill="#235296" transform="translate(0,0)"/>
<path d="" fill="#000002" transform="translate(0,0)"/>
<path d="" fill="#000002" transform="translate(0,0)"/>
<path d="" fill="#000002" transform="translate(0,0)"/>
<path d="" fill="#000002" transform="translate(0,0)"/>
<path d="" fill="#000002" transform="translate(0,0)"/>
<path d="" fill="#000002" transform="translate(0,0)"/>
<path d="" fill="#000002" transform="translate(0,0)"/>
<path d="" fill="#235296" transform="translate(0,0)"/>
<path d="" fill="#235296" transform="translate(0,0)"/>
<path d="" fill="#000002" transform="translate(0,0)"/>
<path d="" fill="#000002" transform="translate(0,0)"/>
<path d="" fill="#000002" transform="translate(0,0)"/>
<path d="" fill="#000002" transform="translate(0,0)"/>
<path d="" fill="#000002" transform="translate(0,0)"/>
<path d="" fill="#000002" transform="translate(0,0)"/>
<path d="" fill="#000002" transform="translate(0,0)"/>
<path d="" fill="#000002" transform="translate(0,0)"/>
<path d="" fill="#000002" transform="translate(0,0)"/>
<path d="" fill="#235296" transform="translate(0,0)"/>
<path d="" fill="#000002" transform="translate(0,0)"/>
<path d="" fill="#000002" transform="translate(0,0)"/>
<path d="" fill="#000002" transform="translate(0,0)"/>
<path d="" fill="#000002" transform="translate(0,0)"/>
<path d="" fill="#000002" transform="translate(0,0)"/>
<path d="" fill="#000002" transform="translate(0,0)"/>
<path d="" fill="#000002" transform="translate(0,0)"/>
<path d="" fill="#000002" transform="translate(0,0)"/>
<path d="" fill="#235296" transform="translate(0,0)"/>
</svg>
