<?xml version="1.0" encoding="UTF-8"?>
<!-- Generator: visioncortex VTracer 0.6.3 -->
<svg version="1.1" xmlns="http://www.w3.org/2000/svg" width="1280" height="1280">
<path d="M0 0 C2.74 0.93 2.74 0.93 4.74 2.93 C5.21 4.05 5.69 5.16 6.18 6.31 C7.48 9.82 7.48 9.82 9.36 11.87 C12.65 16.8 11.89 24.48 11.87 30.27 C11.87 31.04 11.87 31.81 11.87 32.6 C11.87 34.21 11.87 35.81 11.87 37.42 C11.86 39.86 11.87 42.3 11.88 44.74 C11.89 65.41 11.89 65.41 9.21 68.95 C6.82 72.17 7.25 75.72 7.18 79.62 C6.57 96.1 6.57 96.1 2.74 99.93 C2.32 102.09 2.32 102.09 2.21 104.58 C2.14 105.5 2.07 106.43 2 107.38 C1.87 109.32 1.74 111.27 1.62 113.21 C1.54 114.14 1.47 115.07 1.4 116.02 C1.34 116.87 1.29 117.71 1.23 118.58 C0.74 120.93 0.74 120.93 -0.77 122.49 C-3.09 126.3 -2.68 130.03 -2.65 134.41 C-2.66 135.37 -2.66 136.33 -2.67 137.32 C-2.68 140.49 -2.67 143.67 -2.66 146.84 C-2.66 149.04 -2.67 151.25 -2.67 153.45 C-2.67 158.07 -2.67 162.69 -2.65 167.31 C-2.64 173.24 -2.65 179.16 -2.66 185.09 C-2.67 189.64 -2.67 194.19 -2.66 198.74 C-2.66 200.93 -2.66 203.11 -2.67 205.3 C-2.68 208.35 -2.67 211.4 -2.65 214.46 C-2.66 215.36 -2.66 216.27 -2.67 217.2 C-2.62 221.76 -2.57 224.49 0.74 227.93 C1.39 230.71 1.74 233.45 2.11 236.28 C2.8 239.2 3.87 240.64 5.74 242.93 C6.4 244.93 7.07 246.93 7.74 248.93 C8.25 249.61 8.77 250.29 9.3 251 C10.74 252.93 10.74 252.93 11.24 255.5 C11.51 257.97 11.51 257.97 13.18 259.31 C14.74 260.93 14.74 260.93 15.43 264.06 C16.54 268.64 19.61 271.37 22.86 274.62 C24.74 276.93 24.74 276.93 25.65 279.82 C27.02 283.74 29.34 286.21 32.18 289.12 C32.71 289.68 33.24 290.24 33.79 290.82 C35.43 292.53 37.08 294.23 38.74 295.93 C39.24 296.45 39.74 296.97 40.25 297.51 C49.16 307.16 49.16 307.16 60.24 313.93 C64.22 315.53 67.39 318.29 70.74 320.93 C74.94 318.35 78.17 316.18 80.74 311.93 C81.3 308.38 81.25 304.9 81.18 301.31 C81.18 300.35 81.19 299.4 81.2 298.42 C81.45 293.46 81.45 293.46 79.25 289.31 C78.75 288.86 78.25 288.4 77.74 287.93 C77.06 284.88 76.73 281.85 76.36 278.75 C76.02 275.93 76.02 275.93 74.24 274.55 C72.26 272.42 72.28 271.07 72.11 268.19 C72.05 267.27 71.98 266.35 71.91 265.4 C71.85 264.44 71.8 263.48 71.74 262.5 C71.63 260.6 71.5 258.71 71.36 256.81 C71.31 255.97 71.27 255.13 71.21 254.27 C70.91 251.86 70.91 251.86 69.26 250.07 C65.53 244.84 66.58 236.93 66.57 230.72 C66.57 229.76 66.56 228.79 66.56 227.79 C66.56 225.75 66.55 223.71 66.55 221.67 C66.55 218.58 66.53 215.48 66.51 212.38 C66.51 210.39 66.51 208.4 66.51 206.41 C66.5 205.49 66.49 204.58 66.49 203.63 C66.51 198.04 66.62 192.19 68.74 186.93 C69.73 186.27 70.72 185.61 71.74 184.93 C72.53 183.15 72.53 183.15 73.05 181.12 C74.66 176.49 76.66 174.63 80.74 171.93 C86.45 169.87 93.52 170.35 99.3 171.87 C105.25 174.92 110.59 179.75 112.87 186.09 C113.35 188.15 113.76 190.24 114.11 192.33 C114.5 194.96 114.5 194.96 116.25 196.41 C119 199.22 118.67 203.36 119.11 207.12 C119.81 210.24 120.54 210.79 122.74 212.93 C123.36 215.49 123.36 215.49 123.74 218.37 C124.29 222.59 125.22 224.58 127.74 227.93 C128.39 230.71 128.74 233.45 129.11 236.28 C129.8 239.19 130.92 240.61 132.74 242.93 C132.93 246.18 132.93 246.18 132.74 248.93 C133.36 249.12 133.98 249.3 134.61 249.5 C137.77 251.63 137.79 254.34 138.74 257.93 C139.23 258.43 139.73 258.92 140.24 259.43 C141.74 260.93 141.74 260.93 142.49 264.12 C143.54 268.39 146.14 270.82 149.08 273.97 C150.74 275.93 150.74 275.93 152.18 279.31 C154.08 283.73 156.78 286.87 159.9 290.5 C161.74 292.93 161.74 292.93 162.72 295.43 C165.53 302.34 172.4 307.81 178.07 312.46 C180.54 314.64 182.58 317.15 184.71 319.65 C188.83 324.29 193.33 328.58 197.74 332.93 C200.15 335.34 202.56 337.75 204.95 340.18 C208.32 343.59 211.66 346.94 215.36 350 C218.64 352.73 221.35 355.81 224.11 359.05 C226.2 361.47 228.45 363.7 230.74 365.93 C235.74 370.93 235.74 370.93 238.05 373.31 C240.19 375.39 242.34 377.32 244.61 379.25 C248.14 382.29 251.19 385.57 254.2 389.14 C255.69 390.94 255.69 390.94 257.35 392.46 C258.74 393.93 258.74 393.93 260.18 397.31 C261.94 401.4 264.02 404.42 267.36 407.37 C268.74 408.93 268.74 408.93 269.61 411.81 C270.96 415.56 272.84 417.25 275.74 419.93 C278.97 423.64 279.43 426.84 280.11 431.59 C280.83 434.27 281.81 435.03 283.74 436.93 C284.11 438.91 284.11 438.91 284.18 441 C284.36 442.3 284.55 443.59 284.74 444.93 C285.39 445.22 286.04 445.51 286.71 445.81 C287.38 446.18 288.05 446.55 288.74 446.93 C289.46 449.65 289.46 449.65 289.8 452.87 C290.06 457.09 290.06 457.09 292.25 460.43 C294.53 462.73 294.26 464.96 294.43 468.12 C294.49 469.21 294.56 470.29 294.62 471.41 C294.66 472.25 294.7 473.08 294.74 473.93 C295.4 473.93 296.06 473.93 296.74 473.93 C301.1 480.91 300.01 491.11 300.24 499.01 C300.3 501.03 300.37 503.05 300.43 505.07 C300.78 516.4 301.05 527.74 300.43 539.06 C300.37 540.28 300.31 541.5 300.25 542.75 C299.71 546.12 299.3 547.68 296.74 549.93 C291.64 550.58 286.41 549.67 282.05 546.93 C278.99 545.08 278.06 544.69 274.74 544.43 C270.93 544.14 268.7 542.87 265.53 540.84 C263.46 539.79 261.85 539.6 259.55 539.43 C255.16 538.86 254.64 538.02 251.74 534.93 C249.42 534.21 247.09 533.54 244.74 532.93 C244.08 532.27 243.42 531.61 242.74 530.93 C239.66 530.38 236.59 530.04 233.49 529.69 C232.58 529.44 231.67 529.19 230.74 528.93 C229.61 526.9 229.61 526.9 228.74 524.93 C225.12 524.34 225.12 524.34 222.71 524.3 C220.74 523.93 220.74 523.93 219.39 522.5 C216.96 520.19 214.49 520.05 211.24 519.43 C204.54 518.17 204.54 518.17 201.74 514.93 C200.95 514.79 200.17 514.64 199.36 514.5 C196.02 513.78 194.38 512.05 191.74 509.93 C190.08 509.58 188.41 509.24 186.74 508.93 C186.28 508.46 185.83 507.98 185.36 507.5 C183.66 505.62 183.66 505.62 180.24 504.93 C176.66 503.91 176.18 503.38 173.74 500.93 C171.41 500.24 169.08 499.57 166.74 498.93 C166.08 498.27 165.42 497.61 164.74 496.93 C161.66 496.38 158.59 496.04 155.49 495.69 C154.58 495.44 153.67 495.19 152.74 494.93 C151.61 492.89 151.61 492.89 150.74 490.93 C148.84 490.38 148.84 490.38 146.74 490.43 C144.55 490.28 144.55 490.28 142.74 489.93 C142.07 488.6 141.4 487.27 140.74 485.93 C138.87 485.54 138.87 485.54 136.74 485.43 C134.55 485.27 134.55 485.27 132.74 484.93 C132.05 483.61 131.39 482.27 130.74 480.93 C128.78 480.44 126.82 479.96 124.84 479.56 C120.73 478.33 117.99 475.33 115.18 472.18 C113.73 470.72 113.73 470.72 111.24 470.43 C108.74 469.93 108.74 469.93 107.36 468.5 C105.66 466.62 105.66 466.62 102.24 465.93 C98.66 464.91 98.18 464.38 95.74 461.93 C94.62 461.62 93.51 461.31 92.36 461 C88.55 459.88 86.74 458.46 83.74 455.93 C82.98 455.67 82.21 455.4 81.43 455.12 C78.61 453.88 77.1 452.52 74.86 450.43 C72.23 448.02 70.29 446.52 66.8 445.68 C65.79 445.44 64.78 445.19 63.74 444.93 C63.41 443.94 63.08 442.95 62.74 441.93 C60.81 441.5 58.88 441.07 56.95 440.66 C53.2 439.42 50.31 436.9 47.74 433.93 C47.74 433.27 47.74 432.61 47.74 431.93 C46.73 431.89 45.72 431.85 44.68 431.81 C39.21 431.05 35.83 427.18 32.21 423.29 C30.7 421.7 30.7 421.7 27.93 421.06 C23.65 419.55 19.83 417.12 17.74 412.93 C16.54 412.56 15.35 412.19 14.11 411.81 C9.58 410.22 7.41 407.66 4.45 403.98 C2.83 402.04 1.19 400.52 -0.76 398.93 C-3.36 396.8 -5.53 394.56 -7.7 392 C-10.09 389.17 -12.56 386.71 -15.39 384.31 C-19.65 380.67 -23.47 377.34 -25.26 371.87 C-26.51 368.2 -28.44 366.55 -31.26 363.93 C-33.57 361.38 -34.21 360.27 -34.7 356.81 C-34.88 355.86 -35.07 354.91 -35.26 353.93 C-35.92 353.64 -36.58 353.36 -37.26 353.06 C-37.92 352.69 -38.58 352.32 -39.26 351.93 C-39.65 349.87 -39.77 347.84 -39.92 345.75 C-40.03 345.15 -40.14 344.55 -40.26 343.93 C-40.92 343.6 -41.58 343.27 -42.26 342.93 C-42.92 342.6 -43.58 342.27 -44.26 341.93 C-44.65 339.87 -44.76 337.91 -44.79 335.81 C-44.95 335.19 -45.1 334.57 -45.26 333.93 C-45.92 333.64 -46.57 333.34 -47.25 333.04 C-48.24 332.49 -48.24 332.49 -49.26 331.93 C-49.87 329.33 -49.87 329.33 -50.01 326.31 C-50.1 324.8 -50.1 324.8 -50.18 323.27 C-50.21 322.5 -50.24 321.73 -50.26 320.93 C-54.06 322.16 -54.06 322.16 -56.57 325.06 C-56.8 325.68 -57.03 326.3 -57.26 326.93 C-60.13 326.36 -61.12 326.07 -63.26 323.93 C-64.11 323.62 -64.95 323.31 -65.82 323 C-66.63 322.65 -67.43 322.29 -68.26 321.93 C-68.76 320.45 -68.76 320.45 -69.26 318.93 C-70.58 318.24 -71.92 317.58 -73.26 316.93 C-74.68 315.45 -74.68 315.45 -76.01 313.75 C-78.29 310.93 -80.67 308.74 -83.51 306.5 C-86.47 304.02 -87.74 302.42 -88.51 298.62 C-88.76 297.4 -89.01 296.19 -89.26 294.93 C-91.11 293.68 -91.11 293.68 -93.26 292.93 C-96.22 289.97 -97.19 288.45 -97.76 284.25 C-97.93 283.15 -98.09 282.06 -98.26 280.93 C-99.19 280.47 -99.19 280.47 -100.14 280 C-102.81 278.66 -102.87 277.82 -103.82 275.06 C-104.14 274.04 -104.14 274.04 -104.45 273 C-105.18 270.84 -105.18 270.84 -106.79 269.02 C-108.59 266.48 -108.85 264.56 -109.26 261.5 C-109.93 257.23 -110.98 254.6 -113.26 250.93 C-113.48 249.59 -113.64 248.23 -113.76 246.87 C-113.89 243.06 -113.89 243.06 -115.73 241.16 C-118.49 237.14 -118.19 232.21 -118.64 227.46 C-119.28 223.81 -120.1 222.77 -122.26 219.93 C-123.11 215.24 -123.41 210.66 -123.51 205.9 C-123.54 204.59 -123.57 203.29 -123.61 201.95 C-123.65 199.9 -123.7 197.86 -123.74 195.82 C-123.78 193.82 -123.83 191.83 -123.88 189.84 C-123.91 188.66 -123.93 187.47 -123.96 186.26 C-124.47 180.65 -124.47 180.65 -127.26 175.93 C-128.4 169.93 -128.46 163.96 -128.54 157.86 C-128.56 156.81 -128.58 155.76 -128.6 154.68 C-128.68 150.21 -128.75 145.75 -128.81 141.28 C-128.87 138.02 -128.92 134.75 -128.98 131.48 C-129 129.96 -129 129.96 -129.02 128.41 C-129.04 127.47 -129.06 126.54 -129.07 125.57 C-129.08 124.74 -129.1 123.92 -129.11 123.07 C-129.19 120.75 -129.19 120.75 -130.26 117.93 C-130.93 109.56 -131 101.21 -126.26 93.93 C-124.78 93.44 -124.78 93.44 -123.26 92.93 C-122.53 90.89 -122.53 90.89 -122.2 88.5 C-121.46 84.14 -121.46 84.14 -119.26 81.93 C-118.85 79.77 -118.85 79.77 -118.73 77.29 C-118.66 76.36 -118.59 75.44 -118.52 74.49 C-118.39 72.54 -118.26 70.6 -118.14 68.65 C-118.03 67.26 -118.03 67.26 -117.92 65.85 C-117.87 65 -117.81 64.16 -117.75 63.28 C-117.17 60.51 -116.02 59.12 -114.26 56.93 C-113.59 54.26 -113.59 54.26 -113.26 51.43 C-112.71 47.26 -111.77 45.25 -109.26 41.93 C-108.87 39.78 -108.87 39.78 -108.89 37.56 C-108.49 32.46 -106.65 30.65 -103.26 26.93 C-102.97 25.94 -102.68 24.95 -102.39 23.93 C-101 20.23 -99.1 18.79 -96.02 16.43 C-94.15 14.98 -94.15 14.98 -92.89 12.83 C-90.66 10.24 -88.91 10.15 -85.57 9.68 C-84.58 9.53 -83.59 9.38 -82.56 9.23 C-81.8 9.13 -81.04 9.03 -80.26 8.93 C-80.76 7.94 -80.76 7.94 -81.26 6.93 C-78.25 5.93 -76.22 5.83 -73.07 5.87 C-72.17 5.88 -71.27 5.89 -70.34 5.9 C-69.66 5.91 -68.97 5.92 -68.26 5.93 C-67.88 6.9 -67.88 6.9 -67.48 7.88 C-67.08 8.56 -66.68 9.24 -66.26 9.93 C-65.11 10.2 -63.95 10.47 -62.76 10.75 C-61.61 11.14 -60.45 11.53 -59.26 11.93 C-57.48 16.6 -57.01 20.86 -56.95 25.82 C-56.93 27.09 -56.9 28.36 -56.88 29.66 C-56.84 32.31 -56.81 34.96 -56.78 37.62 C-56.74 39.51 -56.74 39.51 -56.7 41.45 C-56.68 43.17 -56.68 43.17 -56.66 44.93 C-56.22 48.25 -55.35 49.41 -53.26 51.93 C-52.76 54.68 -52.39 57.29 -52.14 60.06 C-51.8 65.15 -51.8 65.15 -50.26 69.93 C-50.15 69.32 -50.04 68.7 -49.93 68.06 C-48.57 60.81 -46.64 54.01 -43.7 47.25 C-41.86 43 -40.48 38.78 -39.32 34.31 C-38.32 31.11 -37.31 29.5 -35.26 26.93 C-34.99 26.17 -34.72 25.42 -34.43 24.63 C-32.1 19.27 -27.61 15.27 -23.57 11.12 C-23.11 10.64 -22.64 10.15 -22.15 9.65 C-15.02 2.42 -10.21 -1.44 0 0 Z " fill="#82B147" transform="translate(337.26171875,275.06640625)"/>
<path d="M0 0 C1.15 0.19 2.31 0.37 3.5 0.56 C7.75 2.31 9.62 4.57 12.42 8.12 C14.05 10.23 14.05 10.23 17 12 C17.46 13.67 17.46 13.67 17.94 15.38 C18.69 19.02 18.69 19.02 21.06 21.06 C23.59 23.59 23.42 25.54 24 29 C24.66 29.6 25.32 30.2 26 30.81 C28.67 33.73 28.4 35.87 28.66 39.71 C29.09 42.62 30.44 44.68 32.03 47.11 C33.22 49.43 33.58 51.55 34 54.12 C34.93 59.5 36.98 62.17 41 65.81 C43.19 67.34 43.19 67.34 47 67 C48.49 56.11 48.49 56.11 50 45 C49.34 45 48.68 45 48 45 C47.67 34.44 47.34 23.88 47 13 C47.33 13.66 47.66 14.32 48 15 C48.66 15 49.32 15 50 15 C50.08 14.42 50.16 13.85 50.25 13.25 C51.21 10.38 52.78 9 55 7 C54.34 6.67 53.68 6.34 53 6 C54.94 5.92 56.87 5.86 58.81 5.81 C59.89 5.78 60.97 5.74 62.08 5.71 C65.45 6.05 65.79 6.65 68 9 C70.37 9.39 70.37 9.39 73 9.5 C80.74 10.7 85.4 16 90 22 C90.58 23.21 91.12 24.43 91.62 25.68 C92.71 28.93 92.71 28.93 94.62 30.56 C97.27 33.33 96.94 37.53 97.38 41.19 C98.06 44.28 98.8 44.9 101 47 C101.4 49.21 101.44 51.31 101.5 53.55 C101.86 56.2 101.86 56.2 103.97 58.63 C106.75 63.24 106.79 67.33 107.06 72.62 C107.17 74.49 107.28 76.36 107.41 78.23 C107.45 79.05 107.5 79.87 107.54 80.71 C107.84 83.08 107.84 83.08 109.47 84.86 C113.38 90.34 112.15 99.07 112.15 105.5 C112.15 107.21 112.15 107.21 112.16 108.95 C112.16 112.71 112.17 116.46 112.17 120.21 C112.17 122.83 112.17 125.45 112.18 128.06 C112.18 133.54 112.19 139.02 112.19 144.5 C112.18 150.82 112.2 157.14 112.21 163.46 C112.23 169.56 112.23 175.66 112.23 181.76 C112.23 184.34 112.23 186.93 112.24 189.51 C112.25 193.13 112.25 196.75 112.24 200.37 C112.25 201.43 112.25 202.5 112.26 203.59 C112.2 217.8 112.2 217.8 108 222 C107.53 225.27 107.21 228.51 106.96 231.79 C106.43 237.17 104.78 240.39 102 245 C101.2 247.73 101.2 247.73 100.88 250.31 C100.2 254.8 100.2 254.8 98 257 C97.64 258.78 97.36 260.58 97.12 262.38 C96.37 267 95.57 268.88 92 272 C91.31 274.33 90.64 276.66 90 279 C89.02 280.02 88.02 281.02 87 282 C86.77 282.87 86.55 283.73 86.31 284.62 C84.65 288.9 82.07 291.42 78.88 294.66 C76.83 296.91 76.83 296.91 76.16 299.84 C74.09 305.5 69.47 309.15 65.25 313.31 C64.36 314.23 63.46 315.15 62.54 316.1 C61.67 316.97 60.79 317.84 59.89 318.74 C58.7 319.93 58.7 319.93 57.49 321.15 C54.61 323.29 52.53 323.69 49 324 C49 324.99 49 325.98 49 327 C47.35 327 45.7 327 44 327 C43.67 325.68 43.34 324.36 43 323 C41.68 322.67 40.36 322.34 39 322 C38.85 323 38.85 323 38.7 324.01 C37.77 329.52 36.78 332.75 33 337 C32.3 338.99 31.63 340.99 31 343 C30.02 344.68 29.02 346.34 28 348 C27.67 348.85 27.34 349.69 27 350.56 C25.96 353.09 24.63 354.83 23 357 C22.75 357.74 22.5 358.49 22.25 359.25 C20.67 362.72 18.39 365.02 15.75 367.74 C13.82 369.99 13.82 369.99 12.86 373.14 C10.81 378.03 7.24 381.33 3.52 385.02 C2.78 385.75 2.05 386.49 1.29 387.25 C-0.26 388.8 -1.81 390.35 -3.37 391.89 C-5.74 394.24 -8.09 396.62 -10.45 398.99 C-11.96 400.5 -13.47 402.01 -14.98 403.52 C-15.68 404.22 -16.38 404.93 -17.1 405.66 C-21.2 409.68 -24.6 412.04 -30 414 C-32.19 415.66 -32.19 415.66 -34 417.5 C-37.45 420.68 -40.68 422.15 -45 424 C-46.39 425.15 -47.74 426.34 -49.06 427.56 C-51.49 429.8 -52.75 430.92 -55.94 431.94 C-60.14 433.4 -62.6 436.16 -65.82 439.17 C-68.39 441.33 -70.77 442.15 -74 443 C-74.47 443.5 -74.95 443.99 -75.44 444.5 C-77 446 -77 446 -80.44 446.94 C-84.18 448.06 -85.45 449.17 -88 452 C-88.66 452 -89.32 452 -90 452 C-90.33 452.99 -90.66 453.98 -91 455 C-92.64 455.46 -92.64 455.46 -94.31 455.94 C-98.01 456.68 -98.01 456.68 -100.06 459.06 C-102.59 461.59 -104.54 461.42 -108 462 C-108.66 462.68 -109.32 463.36 -110 464.06 C-112 466 -112 466 -115.25 466.25 C-116.16 466.17 -117.07 466.09 -118 466 C-118.16 466.64 -118.33 467.28 -118.5 467.94 C-120 470 -120 470 -121.84 470.35 C-122.56 470.4 -123.27 470.45 -124 470.5 C-126.13 470.63 -126.13 470.63 -128 471 C-129.14 472.78 -129.14 472.78 -130 475 C-133.66 478.22 -137.48 480.24 -142 482 C-142.45 482.5 -142.91 482.99 -143.38 483.5 C-145.83 485.77 -148.82 486.09 -152 487 C-152.5 487.5 -152.99 487.99 -153.5 488.5 C-155.84 490.84 -158.86 491.1 -162 492 C-162.46 492.5 -162.91 492.99 -163.38 493.5 C-165.61 495.56 -167.45 495.61 -170.44 496 C-174.6 496.54 -176.73 497.4 -180 500 C-180.99 500.14 -181.98 500.29 -183 500.44 C-186.1 500.73 -186.1 500.73 -188 503 C-190.57 505.57 -192.48 505.41 -196 506 C-196.66 506.68 -197.32 507.36 -198 508.06 C-200 510 -200 510 -203.25 510.25 C-204.16 510.17 -205.07 510.09 -206 510 C-206.16 510.64 -206.33 511.28 -206.5 511.94 C-208 514 -208 514 -209.84 514.35 C-211.27 514.45 -212.7 514.51 -214.12 514.53 C-215.05 514.76 -215.05 514.76 -216 515 C-216.28 515.64 -216.56 516.27 -216.84 516.93 C-218 519 -218 519 -220.97 519.98 C-222.72 520.3 -222.72 520.3 -224.5 520.62 C-229.26 521.32 -229.26 521.32 -233 524 C-234.13 524.31 -235.27 524.62 -236.44 524.94 C-239.91 525.64 -239.91 525.64 -241.38 527.5 C-243.61 529.57 -245.46 529.61 -248.44 530 C-252.61 530.55 -254.71 531.42 -258 534 C-261.75 534.69 -261.75 534.69 -265 535 C-265.33 535.99 -265.66 536.98 -266 538 C-268.8 538.84 -268.8 538.84 -272.31 539.5 C-276.83 540.35 -279.39 541.25 -283 544 C-285.78 544.65 -288.52 545 -291.34 545.38 C-294.04 545.82 -294.04 545.82 -295.99 547.51 C-298.57 549.42 -300.45 549.56 -303.62 549.81 C-304.59 549.9 -305.55 549.99 -306.54 550.08 C-309 550 -309 550 -311 548 C-311.15 545.09 -311.19 542.28 -311.12 539.38 C-311.12 538.57 -311.11 537.77 -311.1 536.95 C-311.07 534.96 -311.04 532.98 -311 531 C-312.32 530.34 -313.64 529.68 -315 529 C-315.05 527.23 -315.09 525.46 -315.12 523.69 C-315.15 522.7 -315.17 521.72 -315.2 520.7 C-315 518 -315 518 -313 515 C-312.67 515.66 -312.34 516.32 -312 517 C-311.97 516.01 -311.95 515.01 -311.92 513.99 C-311.83 510.28 -311.73 506.57 -311.63 502.86 C-311.58 501.26 -311.54 499.66 -311.5 498.05 C-311.44 495.74 -311.38 493.43 -311.32 491.12 C-311.3 490.41 -311.28 489.71 -311.27 488.98 C-310.91 476.97 -310.91 476.97 -307 472 C-306.32 469.33 -306.32 469.33 -306 466.5 C-305.33 461.44 -305.33 461.44 -303.5 459.01 C-301.12 455.82 -301.12 452.33 -300.62 448.46 C-300 446 -300 446 -297 444 C-295.99 441.82 -295.99 441.82 -295.31 439.38 C-294.94 438.15 -294.94 438.15 -294.55 436.9 C-294.37 436.27 -294.19 435.65 -294 435 C-293.34 435 -292.68 435 -292 435 C-291.95 434.24 -291.9 433.48 -291.84 432.69 C-291.02 425.16 -289.23 421.34 -283.88 416.02 C-281.38 413.34 -280.41 410.36 -279 407 C-277.32 404.97 -275.57 403.07 -273.72 401.19 C-271.82 399.01 -271.82 399.01 -270.92 395.92 C-268.7 390.64 -264.58 387.06 -260.55 383.11 C-259.69 382.25 -258.83 381.39 -257.94 380.51 C-255.59 378.16 -253.22 375.82 -250.86 373.48 C-248.37 371.03 -245.91 368.57 -243.43 366.1 C-238.75 361.44 -234.06 356.79 -229.37 352.14 C-222.49 345.32 -215.62 338.49 -208.75 331.66 C-208.24 331.15 -207.74 330.65 -207.22 330.13 C-206.21 329.13 -205.21 328.13 -204.2 327.13 C-201.26 324.2 -198.31 321.28 -195.37 318.37 C-193.1 316.12 -190.84 313.87 -188.58 311.63 C-187.36 310.42 -187.36 310.42 -186.11 309.19 C-183.1 306.2 -180.23 303.29 -177.59 299.96 C-177.06 299.31 -176.54 298.67 -176 298 C-175.34 298 -174.68 298 -174 298 C-173.96 296.99 -173.92 295.98 -173.88 294.94 C-173.23 290.18 -170.41 287.2 -167 284 C-166.34 283.67 -165.68 283.34 -165 283 C-164.31 281.05 -163.61 279.1 -162.92 277.14 C-161.48 273.8 -159.54 271.6 -157 269 C-156.34 269 -155.68 269 -155 269 C-154.89 268.36 -154.78 267.72 -154.67 267.07 C-154.51 266.24 -154.35 265.41 -154.19 264.56 C-154.04 263.74 -153.89 262.92 -153.73 262.07 C-153.49 261.38 -153.25 260.7 -153 260 C-152.01 259.67 -151.02 259.34 -150 259 C-149.3 256.99 -149.3 256.99 -149 254.62 C-148.43 250.96 -147.69 249.51 -145 247 C-144.3 245.01 -143.63 243.01 -143 241 C-142.34 240.01 -141.68 239.02 -141 238 C-140.43 235.24 -140.05 232.48 -139.66 229.69 C-139 227 -139 227 -137.5 225 C-135.62 222.49 -135.41 220.58 -135 217.5 C-134.45 213.33 -133.52 211.31 -131 208 C-130.58 205.88 -130.58 205.88 -130.56 203.69 C-130.24 199.59 -129.18 197.22 -126.97 193.82 C-125.83 191.68 -125.47 189.76 -125.06 187.38 C-124.18 182.88 -122.59 180.95 -119 178 C-118.44 177.47 -117.87 176.95 -117.29 176.4 C-113.99 173.36 -111.64 171.22 -107 171 C-105.98 170.94 -105.98 170.94 -104.94 170.89 C-99.38 170.71 -93.68 170.61 -89.3 174.52 C-86.35 177.8 -84.51 180.83 -83 185 C-82.48 185.45 -81.97 185.91 -81.44 186.38 C-77.49 190.84 -78.86 200.1 -78.87 205.72 C-78.87 206.74 -78.87 207.75 -78.86 208.8 C-78.86 210.94 -78.87 213.08 -78.87 215.22 C-78.87 218.49 -78.87 221.75 -78.86 225.02 C-78.86 227.11 -78.87 229.19 -78.87 231.28 C-78.87 232.25 -78.86 233.22 -78.86 234.22 C-78.91 247.68 -78.91 247.68 -81.5 250.82 C-83.99 254.45 -83.73 258.63 -84 262.94 C-84.64 273.1 -84.64 273.1 -88 278 C-88.7 280.59 -88.7 280.59 -89.06 283.19 C-89.79 287.79 -89.79 287.79 -92 290 C-92.56 293.7 -92.51 297.45 -92.56 301.19 C-92.64 302.73 -92.64 302.73 -92.71 304.31 C-92.79 309.77 -92.56 313.15 -88.65 317.18 C-86.35 319.18 -84.95 320.02 -82 321 C-80.1 319.59 -80.1 319.59 -78.25 317.62 C-74.53 314.14 -72.1 313.51 -67 313 C-66.31 311.68 -65.65 310.34 -65 309 C-63.04 307.06 -63.04 307.06 -60.62 305 C-56.51 301.39 -52.56 297.68 -48.69 293.81 C-47.95 293.08 -47.95 293.08 -47.2 292.34 C-40.93 286.08 -40.93 286.08 -36.5 278.5 C-34.79 274.5 -32.98 272.13 -30 269 C-29.34 269 -28.68 269 -28 269 C-27.92 267.72 -27.84 266.44 -27.75 265.12 C-27.61 262.95 -27.61 262.95 -27 261 C-26.35 260.68 -25.69 260.35 -25.02 260.02 C-22.8 259.19 -22.8 259.19 -22.28 256.94 C-22.17 256.16 -22.05 255.37 -21.94 254.56 C-21.4 250.89 -20.66 249.53 -18 247 C-17.3 244.68 -16.63 242.34 -16 240 C-15.34 239.01 -14.68 238.02 -14 237 C-13.4 234.44 -12.99 231.87 -12.56 229.28 C-12 227 -12 227 -10 225 C-9.7 223.12 -9.7 223.12 -9.75 220.94 C-9.74 220.09 -9.73 219.24 -9.73 218.36 C-9.73 217.43 -9.74 216.5 -9.74 215.53 C-9.74 214.55 -9.73 213.57 -9.73 212.56 C-9.72 209.3 -9.73 206.04 -9.73 202.78 C-9.73 200.52 -9.73 198.27 -9.73 196.01 C-9.73 191.28 -9.73 186.54 -9.74 181.81 C-9.75 175.73 -9.74 169.65 -9.73 163.57 C-9.72 158.91 -9.73 154.24 -9.73 149.58 C-9.73 147.34 -9.73 145.1 -9.73 142.86 C-9.72 139.73 -9.73 136.6 -9.74 133.47 C-9.74 132.07 -9.74 132.07 -9.73 130.64 C-9.73 129.79 -9.74 128.94 -9.75 128.06 C-9.75 127.32 -9.75 126.58 -9.75 125.82 C-9.85 123.75 -9.85 123.75 -12 122 C-13.37 116.97 -14.15 111.84 -13.94 106.62 C-14.01 102.59 -14.88 101.31 -17 98 C-18.12 92.07 -18.31 86.09 -18.56 80.06 C-18.61 79.09 -18.65 78.12 -18.69 77.12 C-18.8 74.75 -18.9 72.37 -19 70 C-19.66 70 -20.32 70 -21 70 C-22.79 63.88 -23.28 58.42 -23.23 52.06 C-23.23 51.13 -23.23 50.21 -23.23 49.25 C-23.23 47.3 -23.22 45.36 -23.21 43.41 C-23.19 40.44 -23.19 37.48 -23.19 34.51 C-23.18 32.61 -23.17 30.71 -23.17 28.81 C-23.17 27.93 -23.17 27.05 -23.16 26.14 C-23.13 21.34 -22.98 16.71 -22 12 C-20.67 11.33 -19.33 10.67 -18 10 C-17.63 7.67 -17.29 5.34 -17 3 C-11.35 -0.77 -6.58 -1.41 0 0 Z " fill="#82B147" transform="translate(984,275)"/>
<path d="M0 0 C2.92 1.07 4.78 1.78 7 4 C7.49 8.44 7.37 12.91 7.38 17.38 C7.4 18.62 7.42 19.87 7.45 21.15 C7.45 22.34 7.46 23.54 7.46 24.77 C7.47 25.87 7.48 26.97 7.49 28.1 C6.89 31.66 5.66 32.66 3 35 C1.94 37.9 1.94 37.9 1.25 41.19 C-2.06 53.62 -7.98 64.74 -14.86 75.56 C-19.24 82.51 -23.1 89.78 -27 97 C-27.35 97.65 -27.7 98.29 -28.06 98.96 C-35.97 113.7 -38.65 126.48 -39 143 C-38.34 143.33 -37.68 143.66 -37 144 C-36.64 145.66 -36.31 147.33 -36 149 C-35.01 151.23 -35.01 151.23 -34 153 C-33.34 153 -32.68 153 -32 153 C-30.65 154.65 -29.31 156.32 -28 158 C-27.34 158.33 -26.68 158.66 -26 159 C-25.67 159.99 -25.34 160.98 -25 162 C-24.34 162.66 -23.68 163.32 -23 164 C-22.3 164.75 -21.59 165.49 -20.87 166.26 C-17.48 169.5 -13.88 172.16 -10.06 174.88 C-9.29 175.43 -8.52 175.98 -7.72 176.55 C12.01 191.53 12.01 191.53 33.53 203.49 C37.62 205.27 40.92 207.57 44.5 210.19 C46 211.27 47.5 212.34 49.01 213.42 C49.81 214 50.61 214.58 51.44 215.17 C56.05 218.47 60.72 221.7 65.38 224.94 C66.34 225.61 67.31 226.28 68.3 226.97 C78.49 234.05 88.68 241.12 99 248 C99.33 248.99 99.66 249.98 100 251 C100.99 251.66 101.98 252.32 103 253 C106 255 106 255 107 258 C108.64 259.37 110.31 260.69 112 262 C113.69 263.65 115.35 265.31 117 267 C117.93 267.85 118.86 268.69 119.81 269.56 C122 272 122 272 122 276 C122.99 276.33 123.98 276.66 125 277 C124.67 277.99 124.34 278.98 124 280 C124.62 280.41 125.24 280.82 125.88 281.25 C128.09 283.08 128.81 284.45 130 287 C130.66 287.33 131.32 287.66 132 288 C131.94 288.74 131.88 289.49 131.81 290.25 C131.75 293.04 131.75 293.04 133.46 294.91 C138.94 302.37 135.94 316.3 134.72 325.03 C132.82 336.64 127.75 345.5 121 355 C120.36 355.91 119.73 356.82 119.07 357.76 C115.9 362.07 112.44 365.6 108.33 369.01 C106.04 370.96 103.88 373.02 101.72 375.11 C90.86 385.47 78.44 393.81 65.93 402.04 C56.63 408.26 47.59 414.83 39 422 C38.22 422.63 37.44 423.27 36.63 423.92 C31.17 428.52 26.26 433.58 23 440 C23 440.88 23 441.77 23 442.68 C23 443.44 23 444.21 23 445 C20 447 20 447 17.31 446.62 C16.17 446.32 16.17 446.32 15 446 C14.17 420.99 14.17 420.99 19 411 C19.38 410.18 19.76 409.36 20.16 408.51 C21.06 406.65 22.02 404.82 23 403 C23.66 403 24.32 403 25 403 C25.25 402.3 25.5 401.6 25.75 400.88 C27 398 27 398 29.06 394.94 C30.75 392.38 31.36 390.89 32 388 C32.66 387.67 33.32 387.34 34 387 C35.13 384.98 35.13 384.98 36 383 C36.66 383 37.32 383 38 383 C38.06 382.42 38.12 381.85 38.19 381.25 C39 379 39 379 41.31 377.19 C43.8 375.16 44.71 374.03 46.19 371.31 C48 368 48 368 50 367 C51.13 364.98 51.13 364.98 52 363 C52.66 363 53.32 363 54 363 C54.11 362.42 54.23 361.85 54.34 361.25 C55.06 358.79 56.09 357.07 57.5 354.94 C59.08 352.54 60.08 350.75 61 348 C61.66 348 62.32 348 63 348 C63.19 347.41 63.39 346.82 63.59 346.21 C63.85 345.42 64.11 344.63 64.38 343.81 C64.63 343.04 64.89 342.26 65.15 341.46 C66 339 66 339 67.09 336.64 C68.24 333.32 68.23 330.51 68.19 327 C68.18 325.8 68.17 324.61 68.17 323.38 C68.02 320.46 67.67 317.83 67 315 C66.01 314.67 65.02 314.34 64 314 C63.67 313.01 63.34 312.02 63 311 C62.34 310.67 61.68 310.34 61 310 C60.5 308.99 60.01 307.98 59.5 306.94 C54.52 297.96 43.24 292.3 34.94 286.75 C32.74 285.27 30.54 283.78 28.34 282.29 C27.27 281.57 26.2 280.85 25.09 280.1 C20.7 277.12 16.34 274.11 12 271.06 C11.29 270.57 10.59 270.08 9.86 269.58 C5.12 266.24 5.12 266.24 4 264 C3.3 263.73 2.6 263.46 1.88 263.19 C-1.26 261.89 -3.52 260.22 -6.16 258.12 C-7.98 256.85 -7.98 256.85 -10.35 256.6 C-13.25 255.94 -14.86 254.99 -17.27 253.26 C-18.07 252.69 -18.86 252.13 -19.69 251.54 C-20.53 250.93 -21.38 250.32 -22.25 249.69 C-23.13 249.06 -24.01 248.44 -24.91 247.79 C-26.73 246.5 -28.54 245.2 -30.35 243.9 C-33.58 241.58 -36.83 239.27 -40.08 236.97 C-41.48 235.98 -42.87 234.99 -44.27 234 C-48.22 231.19 -52.22 228.61 -56.42 226.2 C-58 225 -58 225 -59 222 C-60.86 220.47 -62.79 219.03 -64.75 217.62 C-70.18 213.73 -75.13 210.15 -78 204 C-78.8 203.2 -78.8 203.2 -79.62 202.38 C-80.08 201.92 -80.53 201.47 -81 201 C-81 200.34 -81 199.68 -81 199 C-81.84 198.66 -81.84 198.66 -82.69 198.31 C-89.64 194.37 -92.48 187.89 -96 181 C-96.59 179.89 -96.59 179.89 -97.2 178.75 C-99.38 174.59 -100.79 170.57 -102 166 C-102.34 165.24 -102.69 164.47 -103.04 163.68 C-104.16 160.55 -104.24 158.07 -104.23 154.75 C-104.23 153.56 -104.23 152.38 -104.22 151.16 C-104.21 149.93 -104.2 148.7 -104.19 147.44 C-104.19 146.21 -104.19 144.97 -104.19 143.71 C-104.14 133.76 -104.14 133.76 -103 130 C-102.34 130 -101.68 130 -101 130 C-100.84 128.74 -100.67 127.48 -100.5 126.19 C-100.41 125.48 -100.31 124.77 -100.22 124.04 C-99.95 121.85 -99.95 121.85 -100 119 C-98.83 116.56 -97.4 114.32 -96 112 C-95.34 112 -94.68 112 -94 112 C-92.88 109.27 -91.87 106.58 -91 103.75 C-90 101 -90 101 -88 100 C-86.87 97.98 -86.87 97.98 -86 96 C-85.34 96 -84.68 96 -84 96 C-83.88 95.36 -83.75 94.72 -83.62 94.06 C-83.42 93.38 -83.21 92.7 -83 92 C-82.01 91.5 -82.01 91.5 -81 91 C-80.73 90.42 -80.46 89.85 -80.19 89.25 C-78.06 85.22 -75.32 82.44 -71 81 C-71 80.34 -71 79.68 -71 79 C-68.72 76.53 -66.47 74.34 -63.75 72.38 C-61.7 71.03 -61.7 71.03 -61 68 C-58.82 66.21 -58.82 66.21 -56.12 64.38 C-55.24 63.76 -54.36 63.15 -53.45 62.52 C-51 61 -51 61 -48 60 C-47.87 59.39 -47.74 58.78 -47.61 58.15 C-46.72 55.03 -44.95 54.33 -42.25 52.62 C-37.96 49.78 -35.1 47.07 -32 43 C-31.34 42.67 -30.68 42.34 -30 42 C-29.67 41.01 -29.34 40.02 -29 39 C-27 37.67 -25 36.33 -23 35 C-22.67 34.01 -22.34 33.02 -22 32 C-20.86 31.13 -20.86 31.13 -19.69 30.25 C-17.24 28.2 -16.28 27.02 -14.81 24.31 C-13 21 -13 21 -11 20 C-9.87 17.98 -9.87 17.98 -9 16 C-8.34 16 -7.68 16 -7 16 C-6.77 15.22 -6.55 14.43 -6.31 13.62 C-4.59 8.88 -2.32 4.48 0 0 Z M4 7 C5 9 5 9 5 9 Z M5 10 C5 14.62 5 19.24 5 24 C5.33 24 5.66 24 6 24 C6 19.38 6 14.76 6 10 C5.67 10 5.34 10 5 10 Z M4 27 C5 29 5 29 5 29 Z M130 290 C131 292 131 292 131 292 Z M133 299 C134 302 134 302 134 302 Z M134 302 C134 303.65 134 305.3 134 307 C134.33 307 134.66 307 135 307 C135 305.35 135 303.7 135 302 C134.67 302 134.34 302 134 302 Z M20 443 C21 445 21 445 21 445 Z " fill="#020303" transform="translate(627,221)"/>
<path d="M0 0 C0.92 0.42 0.92 0.42 1.86 0.84 C6.87 3.13 11.79 5.58 16.68 8.11 C18.72 9.12 20.81 10.03 22.92 10.89 C26.73 12.6 29.97 14.61 33.38 17 C33.96 17.39 34.54 17.78 35.13 18.18 C39.38 21.13 39.38 21.13 40.5 24.5 C41.74 25.46 41.74 25.46 43 26.44 C45.56 28.55 46.16 29.3 46.5 32.5 C47.12 32.62 47.74 32.75 48.38 32.88 C50.5 33.5 50.5 33.5 52.5 35.5 C52.5 36.49 52.5 37.48 52.5 38.5 C53.49 38.83 54.48 39.16 55.5 39.5 C57.72 43.2 58.5 45.13 58.5 49.5 C59.16 50.16 59.82 50.82 60.5 51.5 C60.69 52.99 60.69 52.99 60.88 54.5 C61.08 55.49 61.29 56.48 61.5 57.5 C63.47 58.65 63.47 58.65 65.5 59.5 C66.91 63.11 66.56 66.87 66.5 70.69 C66.46 72.96 66.45 75.23 66.5 77.5 C66.83 77.83 67.16 78.16 67.5 78.5 C67.62 81.5 67.62 81.5 67.5 84.5 C67.17 84.83 66.84 85.16 66.5 85.5 C66.2 87.24 65.91 88.97 65.65 90.72 C61.46 118.18 47.81 139.59 31.5 161.5 C30.78 162.48 30.06 163.45 29.32 164.46 C25.7 169.33 22.03 174.1 18.12 178.75 C3.93 195.95 -9.71 214.44 -8.5 237.5 C-7.84 237.5 -7.18 237.5 -6.5 237.5 C-6.38 238.24 -6.25 238.99 -6.12 239.75 C-5.54 242.34 -4.77 244.19 -3.5 246.5 C-3.22 247.1 -2.95 247.71 -2.66 248.33 C-0.85 251.71 1.63 254.51 4.04 257.48 C5.5 259.5 5.5 259.5 5.5 261.5 C6.34 261.84 6.34 261.84 7.19 262.19 C10.15 263.87 12.16 266.04 14.5 268.5 C15.4 269.3 15.4 269.3 16.31 270.12 C17.5 271.5 17.5 271.5 17.5 274.5 C18.68 274.84 18.68 274.84 19.88 275.19 C23.19 276.84 23.24 278.14 24.5 281.5 C26.32 282.7 26.32 282.7 28.5 283.5 C33.37 286.1 33.37 286.1 34.5 289.5 C36.23 290.99 36.23 290.99 38.31 292.38 C43.78 296.34 46.66 299.91 48.5 306.5 C47.84 306.83 47.18 307.16 46.5 307.5 C46.5 306.84 46.5 306.18 46.5 305.5 C45.83 305.45 45.17 305.4 44.48 305.35 C39.5 304.95 34.65 304.4 29.75 303.44 C25.55 302.62 21.76 302.41 17.5 302.5 C17.17 302.17 16.84 301.84 16.5 301.5 C15.41 301.36 14.31 301.21 13.19 301.06 C9.98 300.57 8.22 300.09 5.5 298.5 C2.29 296.77 -0.98 295.58 -4.44 294.44 C-5.97 293.93 -5.97 293.93 -7.53 293.4 C-10.18 292.6 -12.78 292.03 -15.5 291.5 C-17.56 290.56 -17.56 290.56 -19.5 289.5 C-20.16 289.17 -20.82 288.84 -21.5 288.5 C-22.84 287.83 -24.18 287.14 -25.5 286.44 C-27.43 285.44 -27.43 285.44 -29.36 285.09 C-31.79 284.42 -33.56 283.41 -35.69 282.06 C-36.73 281.41 -36.73 281.41 -37.79 280.75 C-39.5 279.5 -39.5 279.5 -40.5 277.5 C-41.99 276.57 -43.52 275.7 -45.06 274.88 C-45.89 274.43 -46.72 273.98 -47.57 273.52 C-48.2 273.19 -48.84 272.85 -49.5 272.5 C-49.5 271.84 -49.5 271.18 -49.5 270.5 C-50.22 270.23 -50.94 269.96 -51.69 269.69 C-54.51 268.5 -56.98 267.25 -59.5 265.5 C-59.83 264.51 -60.16 263.52 -60.5 262.5 C-61.49 261.84 -62.48 261.18 -63.5 260.5 C-63.83 259.51 -64.16 258.52 -64.5 257.5 C-65.16 257.17 -65.82 256.84 -66.5 256.5 C-67 255.01 -67 255.01 -67.5 253.5 C-68.16 253.17 -68.82 252.84 -69.5 252.5 C-73.11 246.87 -75.96 240.98 -77.86 234.57 C-78.48 232.43 -78.48 232.43 -79.52 230.2 C-81.18 225.64 -80.83 221.05 -80.81 216.25 C-80.83 215.25 -80.84 214.25 -80.86 213.22 C-80.87 207.5 -80.3 202.78 -78.2 197.45 C-77.48 195.44 -77.17 193.62 -76.94 191.5 C-76.79 190.51 -76.65 189.52 -76.5 188.5 C-75.84 188.17 -75.18 187.84 -74.5 187.5 C-73.55 185.34 -72.69 183.15 -71.88 180.94 C-71.43 179.74 -70.98 178.54 -70.52 177.31 C-70.19 176.38 -69.85 175.45 -69.5 174.5 C-68.84 174.5 -68.18 174.5 -67.5 174.5 C-66.84 172.19 -66.18 169.88 -65.5 167.5 C-64.84 167.5 -64.18 167.5 -63.5 167.5 C-63.4 166.94 -63.29 166.37 -63.18 165.79 C-62.38 163.08 -61.14 161.15 -59.56 158.81 C-59.04 158.02 -58.51 157.24 -57.97 156.43 C-56.5 154.5 -56.5 154.5 -54.5 153.5 C-53.37 151.48 -53.37 151.48 -52.5 149.5 C-51.84 149.5 -51.18 149.5 -50.5 149.5 C-50.38 148.92 -50.25 148.35 -50.12 147.75 C-49.49 145.45 -48.71 143.56 -47.5 141.5 C-46.84 141.17 -46.18 140.84 -45.5 140.5 C-45.17 139.84 -44.84 139.18 -44.5 138.5 C-43.5 136.5 -43.5 136.5 -41.5 135.5 C-41.17 134.51 -40.84 133.52 -40.5 132.5 C-39.29 132.07 -39.29 132.07 -38.06 131.62 C-35.26 130.72 -35.26 130.72 -34.19 127.88 C-33.85 126.7 -33.85 126.7 -33.5 125.5 C-32.84 125.5 -32.18 125.5 -31.5 125.5 C-31.4 124.92 -31.29 124.33 -31.18 123.73 C-30.4 121.17 -29.33 119.81 -27.56 117.81 C-27.04 117.21 -26.51 116.61 -25.97 115.99 C-24.5 114.5 -24.5 114.5 -22.5 113.5 C-21.37 111.48 -21.37 111.48 -20.5 109.5 C-19.84 109.5 -19.18 109.5 -18.5 109.5 C-18.44 108.96 -18.38 108.43 -18.31 107.88 C-17.14 104.46 -14.82 102.23 -12.5 99.5 C-12 98.01 -12 98.01 -11.5 96.5 C-10.84 96.17 -10.18 95.84 -9.5 95.5 C-9 94.01 -9 94.01 -8.5 92.5 C-7.84 92.17 -7.18 91.84 -6.5 91.5 C-5.48 89.74 -4.46 87.98 -3.5 86.19 C-2.5 84.5 -2.5 84.5 -0.5 82.5 C0.18 80.5 0.84 78.5 1.5 76.5 C1.82 75.91 2.14 75.32 2.47 74.71 C6.29 67.58 6.03 60.69 5.88 52.75 C5.87 51.45 5.87 50.15 5.87 48.81 C5.83 40.93 5.83 40.93 3.5 33.5 C3.04 31.83 3.04 31.83 2.56 30.12 C0.36 22.62 -3.32 15.84 -6.88 8.9 C-8.36 5.8 -9.5 2.78 -10.5 -0.5 C-6.52 -3.39 -4.22 -1.94 0 0 Z M62.5 58.5 C63.5 60.5 63.5 60.5 63.5 60.5 Z M63.5 62.5 C64.5 65.5 64.5 65.5 64.5 65.5 Z M64.5 65.5 C64.5 67.48 64.5 69.46 64.5 71.5 C64.83 71.5 65.16 71.5 65.5 71.5 C65.5 69.52 65.5 67.54 65.5 65.5 C65.17 65.5 64.84 65.5 64.5 65.5 Z M12.5 299.5 C16.5 300.5 16.5 300.5 16.5 300.5 Z " fill="#020303" transform="translate(712.5,129.5)"/>
<path d="M0 0 C0.51 6.71 -0.18 12.76 -1.81 19.25 C-1.98 19.91 -2.14 20.57 -2.31 21.25 C-5.91 34.78 -13.47 45.98 -25.38 53.5 C-39.58 61.15 -57.47 62.59 -73.06 58.56 C-81.65 55.71 -89.87 51.74 -98.05 47.88 C-103.51 45.42 -109.52 44.69 -115.22 46.84 C-121.81 50.62 -126.73 56.73 -129 64 C-129.99 63.01 -130.98 62.02 -132 61 C-132.17 61.89 -132.17 61.89 -132.34 62.8 C-133.07 65.22 -133.94 66.4 -135.62 68.28 C-136.14 68.87 -136.67 69.47 -137.21 70.08 C-138.03 71 -138.03 71 -138.88 71.94 C-142.32 75.79 -145.52 79.43 -148 84 C-143.82 90.86 -139.33 97.37 -134.55 103.81 C-129.91 110.07 -125.46 116.44 -121.01 122.83 C-117.17 128.35 -113.27 133.81 -109.26 139.2 C-108 141 -108 141 -108 142 C-111.69 142.26 -115.37 142.42 -119.06 142.56 C-120.1 142.64 -121.14 142.71 -122.21 142.79 C-129.78 143.01 -129.78 143.01 -133.07 140.3 C-134.91 137.96 -136.46 135.55 -138 133 C-139.13 131.39 -140.28 129.8 -141.43 128.2 C-142.58 126.55 -143.73 124.9 -144.88 123.25 C-145.48 122.38 -146.08 121.52 -146.71 120.63 C-149.43 116.71 -152.15 112.79 -154.84 108.85 C-155.25 108.24 -155.66 107.64 -156.09 107.01 C-157.17 105.42 -158.25 103.83 -159.33 102.24 C-160.81 99.91 -160.81 99.91 -163 99 C-163.24 99.56 -163.47 100.11 -163.71 100.68 C-165.31 103.56 -167.31 105.66 -169.56 108.06 C-173.03 111.8 -176.36 115.59 -179.56 119.56 C-183.21 124.08 -187.01 128.42 -190.94 132.7 C-192.8 134.77 -194.49 136.92 -196.19 139.12 C-198.42 141.79 -198.69 141.96 -202.38 142.44 C-203.24 142.29 -204.11 142.15 -205 142 C-204.13 137.53 -201.59 134.88 -198.62 131.56 C-197.52 130.31 -196.42 129.05 -195.32 127.79 C-194.77 127.16 -194.21 126.52 -193.63 125.87 C-191.2 123.09 -188.82 120.26 -186.44 117.44 C-185.54 116.38 -184.65 115.31 -183.75 114.25 C-183.08 113.46 -183.08 113.46 -182.4 112.65 C-180.92 110.9 -179.43 109.15 -177.94 107.4 C-177.44 106.81 -176.93 106.22 -176.42 105.61 C-175.45 104.48 -174.49 103.35 -173.53 102.22 C-169.63 97.95 -169.63 97.95 -167.62 92.69 C-168.14 89.05 -169.94 86.78 -172.12 83.94 C-173.05 82.69 -173.97 81.45 -174.89 80.2 C-175.39 79.53 -175.89 78.86 -176.41 78.17 C-179.3 74.23 -182.08 70.2 -184.88 66.19 C-188.39 61.15 -191.91 56.11 -195.49 51.12 C-196.04 50.35 -196.59 49.58 -197.16 48.79 C-198.19 47.34 -199.23 45.9 -200.27 44.47 C-202.69 41.08 -204.68 37.99 -206 34 C-187.11 32.08 -187.11 32.08 -180.81 36.56 C-176.9 40.7 -174.14 45.55 -171.4 50.52 C-169.19 54.42 -166.59 58.03 -164 61.69 C-163.14 62.94 -162.29 64.19 -161.44 65.45 C-161.04 66.03 -160.64 66.61 -160.22 67.21 C-159.36 68.47 -158.52 69.74 -157.68 71.01 C-156.53 72.73 -155.27 74.37 -154 76 C-153.01 76 -152.02 76 -151 76 C-148.97 73.92 -148.97 73.92 -146.94 71.19 C-143.73 67.12 -140.46 63.24 -136.94 59.44 C-133.8 56.03 -130.8 52.58 -127.94 48.94 C-127.29 48.13 -126.64 47.32 -125.96 46.48 C-124.63 44.79 -123.33 43.07 -122.07 41.33 C-115.9 33.44 -108.73 30.25 -99 29 C-83.85 27.77 -69.12 28.75 -54.22 31.56 C-43.5 33.57 -31.02 35.47 -21 30 C-18.86 28.44 -16.97 26.78 -15 25 C-14.34 25 -13.68 25 -13 25 C-13 24.01 -13 23.02 -13 22 C-13.6 22.35 -14.21 22.7 -14.83 23.06 C-15.63 23.51 -16.43 23.97 -17.25 24.44 C-18.04 24.89 -18.83 25.34 -19.64 25.81 C-31.96 32.03 -48.5 26.99 -61.15 23.99 C-75.34 20.66 -88.6 19.58 -103 23 C-100.7 15.53 -93.7 12.02 -87.14 8.45 C-76.96 3.59 -67.19 1.54 -56 4 C-55.67 4.33 -55.34 4.66 -55 5 C-30.6 9 -30.6 9 -7 4 C-6.31 3.3 -5.62 2.61 -4.9 1.89 C-3 0 -3 0 0 0 Z M-41 8 C-37 9 -37 9 -37 9 Z M-9 16 C-8 18 -8 18 -8 18 Z M-10 18 C-10.33 18.66 -10.66 19.32 -11 20 C-10.34 20 -9.68 20 -9 20 C-9.33 19.34 -9.66 18.68 -10 18 Z M-166 93 C-165 95 -165 95 -165 95 Z " fill="#82B147" transform="translate(1191,873)"/>
<path d="M0 0 C6.27 0 12.54 0 19 0 C19.5 40.59 19.5 40.59 20 82 C22.31 77.71 24.62 73.42 27 69 C29.28 65.88 31.52 62.94 34 60 C34.47 59.39 34.94 58.77 35.42 58.14 C42.17 49.58 53.12 42.16 64.06 40.73 C71.96 40.1 80.64 39.61 87 45 C92.46 49.92 95.34 54.87 97 62 C97.17 62.7 97.35 63.4 97.52 64.12 C98.14 67.85 98.13 71.51 98.11 75.28 C98.11 76.1 98.11 76.92 98.11 77.76 C98.11 80.46 98.11 83.16 98.1 85.86 C98.1 87.74 98.09 89.62 98.09 91.49 C98.09 96.42 98.08 101.35 98.07 106.28 C98.06 111.32 98.05 116.35 98.05 121.38 C98.04 131.26 98.02 141.13 98 151 C91.73 151 85.46 151 79 151 C78.98 148.7 78.96 146.4 78.94 144.03 C78.87 136.39 78.8 128.75 78.71 121.11 C78.66 116.48 78.62 111.86 78.58 107.23 C78.54 102.76 78.49 98.28 78.44 93.81 C78.42 92.11 78.41 90.41 78.4 88.71 C78.75 69.98 78.75 69.98 72 53 C69 50.17 66.31 49.75 62.31 49.5 C53.3 49.83 46.39 54.61 40.36 61.04 C37.42 64.73 34.86 68.56 32.38 72.56 C31.94 73.25 31.51 73.94 31.07 74.65 C29.63 77.06 28.31 79.52 27 82 C26.39 83.05 25.77 84.1 25.14 85.19 C18.24 97.95 18.99 111.33 19.06 125.5 C19.05 127.98 19.03 130.46 19.01 132.94 C18.97 138.96 18.97 144.98 19 151 C12.73 151 6.46 151 0 151 C0 101.17 0 51.34 0 0 Z " fill="#000002" transform="translate(344,865)"/>
<path d="M0 0 C1.65 0.01 1.65 0.01 3.33 0.02 C14.85 0.26 23.91 2.4 32.56 10.44 C33.25 11.06 33.94 11.69 34.65 12.33 C45.69 23.41 46.7 38.06 46.68 52.86 C46.67 54.35 46.67 55.83 46.66 57.31 C46.66 58.85 46.66 60.38 46.66 61.92 C46.65 65.94 46.64 69.95 46.63 73.97 C46.62 78.08 46.62 82.19 46.61 86.3 C46.6 94.35 46.58 102.39 46.56 110.44 C43.42 110.47 40.27 110.48 37.12 110.5 C36.23 110.51 35.33 110.52 34.4 110.53 C33.12 110.53 33.12 110.53 31.82 110.54 C31.03 110.54 30.23 110.55 29.42 110.55 C27.56 110.44 27.56 110.44 26.56 109.44 C26.33 107.42 26.15 105.4 26 103.38 C25.87 101.72 25.87 101.72 25.75 100.03 C25.69 99.17 25.62 98.32 25.56 97.44 C24.84 98.03 24.11 98.62 23.36 99.23 C11.01 108.94 -0.58 113.4 -16.44 112.44 C-28.07 110.74 -37.18 105.91 -44.75 96.88 C-47.43 93.01 -49.07 88.92 -50.44 84.44 C-50.63 83.82 -50.82 83.19 -51.02 82.55 C-53.21 71.52 -50.91 61.88 -45.69 52.19 C-38.52 43.42 -29.76 37.8 -18.44 36.44 C-3.24 35.3 9.04 38.72 21.56 47.44 C22.93 48.73 24.28 50.06 25.56 51.44 C26.01 37.42 25.94 23.87 16.56 12.44 C8.9 6.14 1.25 5.69 -8.44 6.44 C-18.46 9.03 -25.82 16.06 -31.44 24.44 C-36.73 23.04 -39.21 19.58 -42.44 15.44 C-30.6 4.14 -16.09 -0.16 0 0 Z M-25.75 50.02 C-32.28 59.25 -33.77 71.49 -31.93 82.44 C-29.78 92.29 -25.89 99.69 -17.44 105.44 C-10.56 108.73 -3.71 108.03 3.44 105.94 C9.99 103.58 15.29 99.94 20.56 95.44 C21.1 95.08 21.63 94.73 22.19 94.37 C25.31 91.98 26.42 90.19 27.17 86.27 C27.4 83.04 27.5 79.85 27.45 76.61 C27.44 74.57 27.5 72.55 27.56 70.51 C27.55 64.14 27.51 59.51 22.95 54.77 C20.8 52.95 20.8 52.95 18.56 51.44 C17.64 50.78 17.64 50.78 16.71 50.12 C15.02 49.01 13.26 48.04 11.5 47.06 C10.35 46.42 9.21 45.77 8.03 45.1 C-3.67 39.48 -16.92 39.37 -25.75 50.02 Z " fill="#000002" transform="translate(687.4375,905.5625)"/>
<path d="M0 0 C12.61 9.74 17.76 20.63 20.25 36.25 C20.25 41.86 20.25 47.47 20.25 53.25 C-6.15 53.25 -32.55 53.25 -59.75 53.25 C-56.15 74.66 -56.15 74.66 -43.57 91.93 C-34.12 98.1 -24.78 99.28 -13.75 97.25 C-4.55 94.58 2.46 88.43 7.25 80.25 C10.24 81.61 12.54 83.2 15 85.38 C15.61 85.91 16.23 86.45 16.86 87.01 C17.32 87.42 17.78 87.83 18.25 88.25 C15.66 94.43 9.89 97.06 4.01 99.71 C-11.06 105.72 -30.32 107.04 -45.75 101.25 C-46.58 100.94 -47.41 100.64 -48.27 100.32 C-59.16 95.61 -69.17 85.66 -74.75 75.25 C-76.67 70.36 -77.75 65.39 -78.75 60.25 C-79.08 60.25 -79.41 60.25 -79.75 60.25 C-79.87 56.17 -79.94 52.08 -80 48 C-80.03 46.86 -80.07 45.72 -80.1 44.55 C-80.27 29.29 -74.64 16.64 -64.26 5.61 C-46.98 -10.65 -19.56 -13.39 0 0 Z M-49.75 8.25 C-58.2 21.09 -59.71 31.71 -60.75 47.25 C-39.96 47.58 -19.17 47.91 2.25 48.25 C1.92 47.59 1.59 46.93 1.25 46.25 C1.04 44.91 0.88 43.56 0.75 42.21 C0.67 41.4 0.59 40.59 0.5 39.76 C0.42 38.91 0.34 38.06 0.25 37.19 C0.08 35.53 -0.08 33.87 -0.25 32.21 C-0.33 31.4 -0.41 30.58 -0.5 29.74 C-0.89 25.91 -1.32 22.08 -1.75 18.25 C-2.41 18.25 -3.07 18.25 -3.75 18.25 C-3.87 17.53 -3.98 16.8 -4.11 16.06 C-5.5 9.97 -8.39 4.95 -13.5 1.27 C-26.64 -5.78 -39.95 -3.4 -49.75 8.25 Z M-0.75 25.25 C0.25 27.25 0.25 27.25 0.25 27.25 Z M0.25 31.25 C1.25 34.25 1.25 34.25 1.25 34.25 Z M-78.75 34.25 C-77.75 36.25 -77.75 36.25 -77.75 36.25 Z M1.25 41.25 C1.25 42.9 1.25 44.55 1.25 46.25 C1.58 46.25 1.91 46.25 2.25 46.25 C2.25 44.6 2.25 42.95 2.25 41.25 C1.92 41.25 1.59 41.25 1.25 41.25 Z " fill="#82B147" transform="translate(964.75,912.75)"/>
<path d="M0 0 C10.95 8.47 15.56 22.33 17.76 35.53 C18.2 40.58 18.13 45.66 18.13 50.73 C-8.6 50.73 -35.33 50.73 -62.87 50.73 C-58.9 73.9 -58.9 73.9 -44.5 91.73 C-37.44 96.13 -29.08 97.84 -20.87 96.73 C-8.96 93.78 -1.86 87.55 5.13 77.73 C6.43 78.64 7.72 79.56 9 80.48 C10.08 81.25 10.08 81.25 11.18 82.03 C13.21 83.81 14.11 85.26 15.13 87.73 C2.05 98.93 -12.79 103.49 -30 103.08 C-45.83 101.66 -60.31 95.85 -70.74 83.52 C-80.64 70.37 -84.47 53.99 -82.87 37.73 C-80.5 22.38 -74.68 9.52 -62.3 -0.31 C-43.17 -13.39 -18.91 -12.83 0 0 Z M-54.12 7.14 C-62.18 19.05 -62.93 31.64 -63.87 45.73 C-43.41 45.73 -22.95 45.73 -1.87 45.73 C-1.87 30.24 -2.54 13.3 -13.91 1.43 C-20.1 -3.92 -26.61 -5.01 -34.66 -4.71 C-43.01 -3.57 -48.84 0.73 -54.12 7.14 Z " fill="#000002" transform="translate(535.87109375,915.26953125)"/>
<path d="M0 0 C1.79 0.01 3.58 0.04 5.38 0.06 C6.35 0.07 7.33 0.08 8.33 0.09 C11.57 0.12 14.81 0.16 18.06 0.2 C20.3 0.23 22.54 0.25 24.78 0.27 C30.69 0.34 36.6 0.41 42.51 0.48 C48.53 0.55 54.56 0.61 60.59 0.68 C72.42 0.81 84.25 0.94 96.08 1.08 C96.08 2.4 96.08 3.72 96.08 5.08 C94.6 5.1 94.6 5.1 93.09 5.11 C83.81 5.21 74.52 5.31 65.23 5.42 C60.46 5.48 55.69 5.53 50.91 5.58 C46.31 5.63 41.7 5.68 37.1 5.74 C35.34 5.76 33.58 5.77 31.82 5.79 C29.36 5.82 26.91 5.85 24.45 5.88 C23.71 5.88 22.98 5.89 22.22 5.89 C18.87 5.65 18.87 5.65 16.08 7.08 C15.96 9.11 15.91 11.13 15.88 13.16 C15.86 14.46 15.84 15.77 15.82 17.11 C15.8 18.54 15.78 19.97 15.77 21.4 C15.75 22.85 15.73 24.31 15.7 25.77 C15.65 29.61 15.6 33.44 15.55 37.28 C15.5 41.2 15.45 45.11 15.39 49.03 C15.28 56.71 15.18 64.4 15.08 72.08 C16.04 72.08 16.04 72.08 17.01 72.07 C23.59 72.02 30.18 71.99 36.76 71.97 C39.22 71.96 41.68 71.95 44.14 71.93 C47.67 71.91 51.2 71.9 54.73 71.89 C55.84 71.88 56.94 71.87 58.08 71.86 C59.61 71.86 59.61 71.86 61.17 71.86 C62.53 71.85 62.53 71.85 63.91 71.84 C66.08 72.08 66.08 72.08 68.08 74.08 C68.08 75.4 68.08 76.72 68.08 78.08 C67.13 78.1 67.13 78.1 66.15 78.11 C59.55 78.22 52.95 78.34 46.35 78.45 C43.88 78.5 41.42 78.54 38.95 78.58 C35.41 78.64 31.87 78.7 28.34 78.77 C26.67 78.79 26.67 78.79 24.97 78.82 C23.95 78.84 22.93 78.86 21.88 78.88 C20.52 78.9 20.52 78.9 19.14 78.92 C17.09 78.86 17.09 78.86 16.08 80.08 C15.96 82.29 15.91 84.5 15.88 86.71 C15.86 87.75 15.86 87.75 15.85 88.81 C15.82 91.11 15.79 93.41 15.77 95.71 C15.75 97.3 15.73 98.89 15.7 100.48 C15.65 104.68 15.6 108.87 15.55 113.06 C15.5 117.34 15.45 121.62 15.39 125.89 C15.28 134.29 15.18 142.69 15.08 151.08 C8.81 151.08 2.54 151.08 -3.92 151.08 C-5.27 148.37 -5.04 146.26 -5.04 143.23 C-5.05 141.98 -5.05 140.74 -5.05 139.45 C-5.05 138.06 -5.05 136.67 -5.05 135.29 C-5.05 133.83 -5.05 132.37 -5.05 130.91 C-5.06 126.95 -5.05 122.99 -5.05 119.03 C-5.05 114.89 -5.05 110.75 -5.05 106.61 C-5.05 99.66 -5.05 92.71 -5.05 85.75 C-5.04 77.71 -5.04 69.66 -5.05 61.61 C-5.05 54.71 -5.05 47.81 -5.05 40.91 C-5.05 36.79 -5.05 32.66 -5.05 28.54 C-5.06 24.66 -5.05 20.78 -5.05 16.91 C-5.05 15.48 -5.05 14.05 -5.05 12.63 C-5.05 10.69 -5.05 8.75 -5.04 6.81 C-5.04 5.72 -5.04 4.63 -5.04 3.51 C-4.83 -0.53 -4.28 0.09 0 0 Z " fill="#82B147" transform="translate(753.9166412353516,863.9177093505859)"/>
<path d="M0 0 C40.59 0 81.18 0 123 0 C123 1.65 123 3.3 123 5 C105.84 5 88.68 5 71 5 C71 53.18 71 101.36 71 151 C64.73 151 58.46 151 52 151 C52 102.82 52 54.64 52 5 C34.84 5 17.68 5 0 5 C0 3.35 0 1.7 0 0 Z " fill="#000002" transform="translate(219,865)"/>
<path d="M0 0 C0.99 0.99 0.99 0.99 2 2 C1.79 6.72 -0.78 10.09 -3.44 13.81 C-3.85 14.41 -4.25 15.01 -4.67 15.62 C-5.73 17.12 -6.86 18.57 -8 20 C-8.66 20 -9.32 20 -10 20 C-10.35 18.88 -10.35 18.88 -10.7 17.73 C-12.1 13.49 -13.34 9.84 -16.12 6.31 C-20.45 4.34 -24.33 4.27 -29 5 C-36.82 8.76 -41.52 16.13 -45 23.81 C-45.46 24.76 -45.46 24.76 -45.92 25.72 C-47.03 28.11 -48.02 30.55 -49 33 C-49.77 34.78 -49.77 34.78 -50.56 36.6 C-56.15 50.48 -55.86 64.29 -55.81 79.06 C-55.83 82.78 -55.85 86.5 -55.87 90.22 C-55.89 92.52 -55.89 94.82 -55.89 97.12 C-55.89 98.14 -55.89 99.16 -55.89 100.22 C-55.89 101.12 -55.88 102.02 -55.88 102.95 C-56 105 -56 105 -57 106 C-58.33 106.1 -59.67 106.13 -61 106.13 C-61.8 106.13 -62.61 106.14 -63.44 106.14 C-64.28 106.13 -65.13 106.13 -66 106.12 C-66.85 106.13 -67.69 106.13 -68.56 106.14 C-69.37 106.14 -70.17 106.13 -71 106.13 C-71.74 106.13 -72.49 106.13 -73.25 106.13 C-75 106 -75 106 -76 105 C-76.1 103.61 -76.12 102.21 -76.12 100.82 C-76.12 99.92 -76.12 99.01 -76.12 98.09 C-76.12 97.09 -76.12 96.09 -76.11 95.06 C-76.11 94.02 -76.11 92.98 -76.11 91.9 C-76.11 88.43 -76.11 84.96 -76.1 81.5 C-76.1 79.1 -76.09 76.7 -76.09 74.3 C-76.09 67.98 -76.08 61.65 -76.07 55.33 C-76.06 48.88 -76.05 42.43 -76.05 35.99 C-76.04 23.32 -76.02 10.66 -76 -2 C-69.4 -2 -62.8 -2 -56 -2 C-55.67 9.22 -55.34 20.44 -55 32 C-53.02 27.38 -51.04 22.76 -49 18 C-43.54 9.59 -36.62 -0.48 -26.5 -3.6 C-17.25 -5.09 -7.96 -5.41 0 0 Z " fill="#000002" transform="translate(640,910)"/>
<path d="M0 0 C6.27 0.33 12.54 0.66 19 1 C19.01 2.6 19.02 4.2 19.03 5.85 C19.13 20.89 19.23 35.92 19.34 50.96 C19.39 58.7 19.45 66.43 19.5 74.16 C19.54 80.9 19.59 87.64 19.64 94.38 C19.66 97.94 19.69 101.51 19.71 105.08 C19.73 109.06 19.76 113.04 19.79 117.02 C19.8 118.81 19.8 118.81 19.81 120.63 C19.82 121.71 19.83 122.79 19.84 123.9 C19.85 124.84 19.85 125.78 19.86 126.75 C19.86 129.04 19.86 129.04 21 131 C21.99 131.33 22.98 131.66 24 132 C24 132.66 24 133.32 24 134 C24.66 134 25.32 134 26 134 C26 139.61 26 145.22 26 151 C10.82 151.51 10.82 151.51 5.28 146.42 C0.57 141.32 -0.13 137.13 -0.12 130.24 C-0.12 129.08 -0.12 127.93 -0.12 126.75 C-0.12 124.87 -0.12 124.87 -0.11 122.95 C-0.11 121.61 -0.11 120.27 -0.11 118.93 C-0.11 115.29 -0.11 111.66 -0.1 108.03 C-0.1 104.23 -0.09 100.43 -0.09 96.64 C-0.09 89.45 -0.08 82.26 -0.07 75.07 C-0.06 66.88 -0.06 58.7 -0.05 50.51 C-0.04 33.67 -0.02 16.84 0 0 Z " fill="#82B147" transform="translate(852,864)"/>
<path d="M0 0 C3.96 0 7.92 0 12 0 C15.21 6.04 17.91 12.11 20.31 18.5 C20.58 19.21 20.85 19.91 21.12 20.64 C23 25.74 23 25.74 23 28 C23.66 28 24.32 28 25 28 C25.35 26.87 25.7 25.73 26.06 24.56 C27.7 19.65 29.61 14.86 31.56 10.06 C31.87 9.3 32.17 8.55 32.49 7.77 C34.76 2.24 34.76 2.24 37 0 C39.6 -0.2 39.6 -0.2 42.62 -0.12 C44.13 -0.1 44.13 -0.1 45.66 -0.07 C46.43 -0.05 47.21 -0.02 48 0 C47.67 0.99 47.34 1.98 47 3 C46.34 3 45.68 3 45 3 C45 15.21 45 27.42 45 40 C45.99 40.33 46.98 40.66 48 41 C48 41.66 48 42.32 48 43 C43.38 43 38.76 43 34 43 C34.33 42.01 34.66 41.02 35 40 C35.66 40 36.32 40 37 40 C37 30.43 37 20.86 37 11 C33.58 19.5 33.58 19.5 30.21 28.02 C29.78 29.08 29.34 30.13 28.89 31.21 C28.46 32.3 28.03 33.38 27.58 34.5 C26 37 26 37 23.32 37.86 C22.55 37.91 21.79 37.95 21 38 C18.03 32.28 15.53 26.52 13.25 20.5 C12.78 19.27 12.78 19.27 12.29 18.01 C11.53 16.01 10.76 14 10 12 C9.91 16.46 9.86 20.92 9.81 25.38 C9.79 26.65 9.76 27.92 9.74 29.23 C9.73 30.44 9.72 31.65 9.71 32.9 C9.69 34.02 9.68 35.14 9.66 36.29 C9.83 37.63 9.83 37.63 10 39 C10.99 39.66 11.98 40.32 13 41 C13 41.66 13 42.32 13 43 C8.71 43 4.42 43 0 43 C0.33 42.01 0.66 41.02 1 40 C1.99 39.51 1.99 39.51 3 39 C3.07 34.05 3.13 29.1 3.16 24.16 C3.18 22.47 3.2 20.79 3.23 19.1 C3.26 16.69 3.28 14.27 3.29 11.85 C3.32 10.72 3.32 10.72 3.34 9.56 C3.38 7.22 3.38 7.22 3 4 C2.01 3.34 1.02 2.68 0 2 C0 1.34 0 0.68 0 0 Z " fill="#000002" transform="translate(389,1037)"/>
<path d="M0 0 C3.86 -0.71 7.16 -0.91 11 0 C14.49 3.22 16.62 7.08 18.94 11.19 C20.2 13.29 21.45 15.38 22.71 17.48 C23.25 18.42 23.79 19.36 24.34 20.32 C26.04 23.07 27.93 25.52 30 28 C29.92 24.06 29.81 20.12 29.69 16.19 C29.66 15.07 29.64 13.95 29.62 12.79 C29.57 11.19 29.57 11.19 29.51 9.54 C29.49 8.55 29.46 7.56 29.43 6.54 C28.94 3.68 28.25 2.77 26 1 C27 0 27 0 29.72 -0.1 C31.38 -0.08 31.38 -0.08 33.06 -0.06 C34.72 -0.05 34.72 -0.05 36.41 -0.04 C37.26 -0.02 38.12 -0.01 39 0 C38.67 0.99 38.34 1.98 38 3 C37.34 3 36.68 3 36 3 C35.67 16.2 35.34 29.4 35 43 C30 43 30 43 28.47 41.48 C28.05 40.77 27.64 40.06 27.2 39.34 C26.72 38.55 26.24 37.76 25.75 36.95 C25.01 35.68 25.01 35.68 24.25 34.38 C23.2 32.64 22.15 30.9 21.09 29.16 C20.58 28.29 20.06 27.42 19.52 26.53 C17.34 22.91 15.05 19.36 12.75 15.81 C11.51 13.89 10.27 11.98 9 10 C9 19.9 9 29.8 9 40 C10.32 40.66 11.64 41.32 13 42 C12 43 12 43 9.28 43.1 C8.18 43.09 7.07 43.07 5.94 43.06 C4.83 43.05 3.73 43.04 2.59 43.04 C1.31 43.02 1.31 43.02 0 43 C0.33 42.01 0.66 41.02 1 40 C1.66 40 2.32 40 3 40 C3 27.79 3 15.58 3 3 C2.01 2.67 1.02 2.34 0 2 C0 1.34 0 0.68 0 0 Z " fill="#000002" transform="translate(725,1037)"/>
<path d="M0 0 C1.07 0.02 2.15 0.04 3.26 0.05 C5.9 0.1 8.54 0.17 11.19 0.25 C11.19 1.57 11.19 2.89 11.19 4.25 C9.54 4.25 7.89 4.25 6.19 4.25 C6.52 4.91 6.85 5.57 7.19 6.25 C7.56 9.5 7.85 12.09 6.18 15.01 C3.24 18.65 1.12 20.02 -3.51 20.57 C-4.5 20.65 -5.48 20.73 -6.5 20.81 C-7.49 20.9 -8.49 20.98 -9.51 21.07 C-10.27 21.13 -11.03 21.19 -11.81 21.25 C-12.14 22.57 -12.47 23.89 -12.81 25.25 C-11.57 25.28 -10.33 25.3 -9.05 25.33 C-7.41 25.38 -5.77 25.44 -4.12 25.5 C-3.31 25.51 -2.49 25.53 -1.65 25.54 C2.38 25.71 4.71 25.96 8.23 28.08 C10.19 30.25 10.19 30.25 10.75 33.69 C10.1 37.79 9.14 39.38 6.19 42.25 C2.49 44.74 -1.38 44.62 -5.69 44.62 C-6.38 44.65 -7.08 44.67 -7.79 44.7 C-12.93 44.73 -15.94 43.61 -19.81 40.25 C-20.44 36.32 -20.41 34.23 -18.31 30.81 C-17.82 30.3 -17.32 29.78 -16.81 29.25 C-17.14 28.92 -17.47 28.59 -17.81 28.25 C-18.12 24.78 -18.2 22.86 -16.31 19.88 C-15.82 19.34 -15.32 18.8 -14.81 18.25 C-15.29 17.88 -15.76 17.51 -16.25 17.12 C-18.41 14.53 -18.61 12.59 -18.81 9.25 C-18.08 6.16 -17.04 4.52 -14.96 2.12 C-10.13 -0.75 -5.5 -0.17 0 0 Z M-10.81 4.25 C-12.18 8.12 -12.3 12 -10.81 15.81 C-7.77 18 -5.45 17.71 -1.81 17.25 C0.64 13.58 0.9 10.52 0.19 6.25 C-1.46 3.68 -1.46 3.68 -3.81 2.25 C-6.97 2.25 -8.24 2.5 -10.81 4.25 Z M-13.81 33.25 C-14.15 36.25 -14.15 36.25 -13.81 39.25 C-11.08 41.98 -8.89 41.94 -5.14 42.29 C-1.48 42.23 1.59 40.85 4.19 38.25 C4.44 35.79 4.44 35.79 4.19 33.25 C2.28 30.91 2.28 30.91 -1 30.98 C-2.26 30.99 -3.52 30.99 -4.81 31 C-6.7 30.99 -6.7 30.99 -8.62 30.98 C-11.91 30.91 -11.91 30.91 -13.81 33.25 Z " fill="#000002" transform="translate(588.8125,1048.75)"/>
<path d="M0 0 C1.24 0.02 1.24 0.02 2.5 0.04 C3.32 0.04 4.15 0.05 5 0.06 C5.64 0.07 6.28 0.09 6.93 0.1 C6.98 1.39 7.03 2.68 7.08 4.01 C7.16 5.73 7.23 7.44 7.31 9.16 C7.34 10.01 7.37 10.86 7.4 11.73 C7.64 16.83 8.31 21.25 9.93 26.1 C14.72 26.33 14.72 26.33 18.93 24.1 C19.38 22.04 19.38 22.04 19.3 19.67 C19.3 18.79 19.3 17.91 19.29 17.01 C19.28 16.09 19.26 15.17 19.25 14.22 C19.25 13.31 19.25 12.4 19.26 11.46 C19.22 7.06 19.17 3.98 16.93 0.1 C18.41 0.07 19.89 0.05 21.37 0.04 C22.19 0.02 23.02 0.01 23.87 0 C25.93 0.1 25.93 0.1 26.93 1.1 C27.06 3 27.11 4.91 27.14 6.81 C27.17 7.97 27.2 9.13 27.23 10.33 C27.28 12.8 27.33 15.26 27.36 17.73 C27.39 18.89 27.43 20.05 27.46 21.25 C27.48 22.32 27.5 23.39 27.52 24.5 C27.65 25.36 27.79 26.21 27.93 27.1 C29.42 28.09 29.42 28.09 30.93 29.1 C30.93 29.76 30.93 30.42 30.93 31.1 C27.63 31.1 24.33 31.1 20.93 31.1 C20.93 29.78 20.93 28.46 20.93 27.1 C20.15 27.76 19.37 28.42 18.56 29.1 C14.91 31.52 11.58 31.61 7.3 31.73 C4.93 31.1 4.93 31.1 2.66 29.26 C0.11 24.59 0.37 20.22 0.37 14.97 C0.36 12.99 0.34 11.01 0.3 9.03 C0.3 7.72 0.3 7.72 0.3 6.38 C-0.14 3.67 -0.96 2.8 -3.07 1.1 C-2.07 0.1 -2.07 0.1 0 0 Z " fill="#000002" transform="translate(829.06640625,1048.90234375)"/>
<path d="M0 0 C2.56 1.87 2.97 2.92 4 6 C4.11 7.59 4.18 9.19 4.21 10.78 C4.24 11.71 4.27 12.63 4.3 13.58 C4.35 15.53 4.39 17.47 4.43 19.42 C4.46 20.34 4.49 21.27 4.52 22.22 C4.54 23.06 4.56 23.91 4.58 24.78 C5.08 27.42 5.95 28.32 8 30 C7 31 7 31 4.93 31.1 C4.11 31.09 3.29 31.07 2.44 31.06 C1.61 31.05 0.78 31.04 -0.07 31.04 C-1.02 31.02 -1.02 31.02 -2 31 C-2.33 30.01 -2.66 29.02 -3 28 C-3.62 28.49 -4.24 28.99 -4.88 29.5 C-9.27 31.61 -13.21 31.85 -18 31 C-20.69 28.94 -20.69 28.94 -22 26 C-22.07 21.83 -21.73 19.82 -18.94 16.69 C-13.52 13.58 -8.23 12.69 -2 13 C-2.66 10.03 -3.32 7.06 -4 4 C-7.33 3.67 -7.33 3.67 -11 4 C-12.37 5.29 -13.71 6.62 -15 8 C-17.75 8.25 -17.75 8.25 -20 8 C-20 6.35 -20 4.7 -20 3 C-13.68 -0.53 -7.15 -0.99 0 0 Z M-13.56 18.12 C-15.61 20.79 -15.35 22.73 -15 26 C-13.84 27.37 -13.84 27.37 -10.69 27.25 C-7.13 27.22 -7.13 27.22 -4.62 25.94 C-2.29 23.15 -2.27 20.55 -2 17 C-7.93 16.61 -7.93 16.61 -13.56 18.12 Z " fill="#000002" transform="translate(465,1049)"/>
<path d="M0 0 C2.53 1.89 2.98 2.94 4 6 C4.11 7.6 4.18 9.21 4.21 10.82 C4.24 11.75 4.27 12.67 4.3 13.63 C4.35 15.59 4.39 17.55 4.43 19.51 C4.46 20.43 4.49 21.36 4.52 22.32 C4.54 23.17 4.56 24.02 4.58 24.89 C4.72 25.59 4.86 26.28 5 27 C5.99 27.66 6.98 28.32 8 29 C8 29.66 8 30.32 8 31 C4.7 31 1.4 31 -2 31 C-2.33 30.01 -2.66 29.02 -3 28 C-3.62 28.49 -4.24 28.99 -4.88 29.5 C-9.15 31.55 -13.33 31.81 -18 31 C-20.45 29.12 -20.96 28.15 -21.88 25.12 C-22.03 21.26 -21.53 19.92 -19 17 C-13.46 13.83 -8.32 13.43 -2 13 C-2.66 10.03 -3.32 7.06 -4 4 C-7.33 3.67 -7.33 3.67 -11 4 C-12.37 5.29 -13.71 6.62 -15 8 C-17.75 8.25 -17.75 8.25 -20 8 C-20 6.35 -20 4.7 -20 3 C-13.47 -0.02 -7.19 -1.09 0 0 Z M-13.56 18.12 C-15.61 20.79 -15.35 22.73 -15 26 C-13.78 27.43 -13.78 27.43 -10.19 27.38 C-6.77 27.33 -6.21 27.19 -3.5 24.81 C-1.93 21.86 -1.62 20.28 -2 17 C-7.93 16.61 -7.93 16.61 -13.56 18.12 Z " fill="#000002" transform="translate(792,1049)"/>
<path d="M0 0 C2.66 2.09 3.86 3.3 4.55 6.66 C4.57 7.64 4.59 8.63 4.61 9.64 C4.64 10.71 4.67 11.78 4.71 12.88 C4.72 13.99 4.74 15.11 4.75 16.25 C4.78 17.38 4.81 18.5 4.84 19.66 C4.91 22.44 4.96 25.22 5 28 C5.99 28.33 6.98 28.66 8 29 C8 29.66 8 30.32 8 31 C6.54 31.08 5.08 31.14 3.62 31.19 C2.81 31.22 2 31.26 1.16 31.29 C0.45 31.2 -0.26 31.1 -1 31 C-1.66 30.01 -2.32 29.02 -3 28 C-3.56 28.49 -4.11 28.97 -4.69 29.47 C-8.55 32.03 -12.53 31.65 -17 31 C-19.62 29.44 -19.62 29.44 -21 27 C-21.62 23.56 -21.62 23.56 -21 20 C-17.12 15.75 -13.71 14.12 -8 13 C-4.56 12.88 -4.56 12.88 -2 13 C-2.66 10.36 -3.32 7.72 -4 5 C-8.48 4.28 -8.48 4.28 -13 4 C-13.66 5.32 -14.32 6.64 -15 8 C-16.65 8 -18.3 8 -20 8 C-19.94 5.69 -19.94 5.69 -19 3 C-13.36 -0.64 -6.56 -1.18 0 0 Z M-13.62 18.69 C-15.26 20.94 -15.26 20.94 -14.81 23.69 C-14.21 25.93 -14.21 25.93 -13 27 C-9.14 27.36 -6.84 27.56 -3.56 25.38 C-1.6 22.4 -1.68 20.5 -2 17 C-8.11 16.45 -8.11 16.45 -13.62 18.69 Z " fill="#000002" transform="translate(557,1049)"/>
<path d="M0 0 C4.09 2.21 6.53 4.59 8 9 C8.95 21.73 8.95 21.73 5 27 C1.23 30.67 -1.9 31.31 -7 31.5 C-12.11 31.29 -15.35 30.84 -19 27 C-22.14 21.19 -22.76 15.35 -21 9 C-16.39 0.11 -9.47 -1.58 0 0 Z M-12 4 C-15.01 9.45 -16 15.04 -14.46 21.14 C-13.44 24.26 -12.67 26.44 -10.12 28.56 C-7.29 29.15 -5.72 29.02 -3 28 C-0.2 25.21 0.92 23.58 1.5 19.62 C1.48 18.43 1.46 17.23 1.44 16 C1.44 14.8 1.43 13.61 1.43 12.38 C0.97 8.76 0.19 6.88 -2 4 C-5.83 1.45 -8.32 1.24 -12 4 Z " fill="#000002" transform="translate(674,1049)"/>
<path d="M0 0 C4.3 2.92 5.85 5.99 7 11 C7 12.65 7 14.3 7 16 C0.07 16 -6.86 16 -14 16 C-12.7 21.43 -12.7 21.43 -10 26 C-4.43 26.6 -0.69 26.27 4 23 C4.66 23.33 5.32 23.66 6 24 C4.53 27.87 2.66 29.17 -1 31 C-5.66 31.75 -10.68 32.08 -15.04 30.05 C-18.24 27.55 -20.13 24.92 -21 21 C-21.55 15 -21.56 10.1 -18 5 C-12.99 -0.91 -7.51 -1.31 0 0 Z M-10.62 3.62 C-13.62 6.16 -13.62 6.16 -14 12 C-9.38 12 -4.76 12 0 12 C-0.4 10.08 -0.4 10.08 -0.81 8.12 C-0.96 7.41 -1.11 6.69 -1.27 5.95 C-1.92 3.63 -1.92 3.63 -5 2 C-8.09 1.74 -8.09 1.74 -10.62 3.62 Z " fill="#000002" transform="translate(625,1049)"/>
<path d="M0 0 C3.53 2.02 5.8 4.08 7 8 C7 10.64 7 13.28 7 16 C0.4 16 -6.2 16 -13 16 C-11.86 23.49 -11.86 23.49 -9 26 C-4.6 26.67 -0.94 26.46 3.06 24.5 C3.7 24.01 4.34 23.51 5 23 C5.33 24.32 5.66 25.64 6 27 C1.18 31.28 -2.76 31.44 -9.1 31.43 C-13.52 30.77 -16.16 29.13 -18.81 25.56 C-20.73 19.82 -21.18 13.6 -19.27 7.77 C-15.02 -0.35 -8.45 -1.16 0 0 Z M-11 4 C-13 6.99 -13 8.23 -13 12 C-8.38 12 -3.76 12 1 12 C0.6 10.08 0.6 10.08 0.19 8.12 C0.04 7.41 -0.11 6.69 -0.27 5.95 C-0.92 3.63 -0.92 3.63 -4 2 C-7.17 2 -8.38 2.31 -11 4 Z " fill="#000002" transform="translate(913,1049)"/>
<path d="M0 0 C1.19 -0 1.19 -0 2.41 -0.01 C4.38 0.12 4.38 0.12 5.38 1.12 C5.42 2.79 5.42 4.46 5.38 6.12 C3.73 6.12 2.08 6.12 0.38 6.12 C0.38 5.46 0.38 4.81 0.38 4.12 C-1.61 4.45 -3.59 4.79 -5.62 5.12 C-6.28 8.1 -6.95 11.07 -7.62 14.12 C-4.99 14.12 -2.35 14.12 0.38 14.12 C0.38 15.44 0.38 16.77 0.38 18.12 C-2.26 18.12 -4.9 18.12 -7.62 18.12 C-7.29 26.05 -6.97 33.96 -6.62 42.12 C-5.63 42.45 -4.64 42.79 -3.62 43.12 C-3.62 43.79 -3.62 44.44 -3.62 45.12 C-8.25 45.12 -12.87 45.12 -17.62 45.12 C-17.29 44.13 -16.97 43.14 -16.62 42.12 C-15.63 41.63 -15.63 41.63 -14.62 41.12 C-14.29 33.54 -13.97 25.94 -13.62 18.12 C-14.95 18.12 -16.26 18.12 -17.62 18.12 C-17.13 16.64 -17.13 16.64 -16.62 15.12 C-15.97 14.8 -15.3 14.46 -14.62 14.12 C-14.36 12.89 -14.09 11.65 -13.81 10.38 C-12.84 6.08 -11.1 3.92 -7.62 1.12 C-4.78 0.18 -2.95 -0.01 0 0 Z " fill="#000002" transform="translate(705.625,1034.875)"/>
<path d="M0 0 C0.75 0 1.51 0.01 2.29 0.01 C4.15 0.03 6.01 0.04 7.88 0.06 C7.88 2.37 7.88 4.68 7.88 7.06 C5.44 6.69 5.44 6.69 2.88 6.06 C2.54 5.4 2.22 4.74 1.88 4.06 C-0.25 3.6 -0.25 3.6 -2.69 3.44 C-3.51 3.36 -4.34 3.29 -5.19 3.21 C-5.83 3.16 -6.47 3.11 -7.12 3.06 C-7.12 5.04 -7.12 7.02 -7.12 9.06 C-6.14 9.57 -5.15 10.08 -4.13 10.6 C-2.84 11.3 -1.54 11.99 -0.25 12.69 C0.4 13.02 1.05 13.35 1.72 13.69 C5.16 15.57 6.62 16.53 8.36 20.17 C8.98 23.62 8.66 25.06 6.88 28.06 C4.25 30.77 2.89 31.06 -0.95 31.39 C-2.38 31.38 -3.82 31.35 -5.25 31.31 C-5.98 31.31 -6.71 31.3 -7.46 31.3 C-12.81 31.22 -12.81 31.22 -15.12 30.06 C-15.12 27.75 -15.12 25.44 -15.12 23.06 C-13.81 23.06 -12.49 23.06 -11.12 23.06 C-10.8 24.38 -10.46 25.7 -10.12 27.06 C-8.87 27.25 -7.61 27.43 -6.31 27.62 C-5.6 27.73 -4.9 27.83 -4.17 27.94 C-1.92 28.2 -1.92 28.2 0.88 27.06 C0.88 24.75 0.88 22.44 0.88 20.06 C0.01 19.79 -0.86 19.53 -1.75 19.25 C-11.77 15.72 -11.77 15.72 -14.12 12.06 C-14.56 8.62 -14.56 8.62 -14.12 5.06 C-9.98 -0.19 -6.32 -0.07 0 0 Z " fill="#000002" transform="translate(522.125,1048.9375)"/>
<path d="M0 0 C0.75 0 1.51 0.01 2.29 0.01 C4.15 0.03 6.01 0.04 7.88 0.06 C7.88 2.37 7.88 4.68 7.88 7.06 C6.56 7.06 5.24 7.06 3.88 7.06 C3.26 6.38 2.64 5.7 2 5 C1.3 4.36 0.6 3.72 -0.12 3.06 C-3.32 3.21 -3.32 3.21 -6.12 4.06 C-6.45 5.71 -6.79 7.36 -7.12 9.06 C-6.14 9.59 -5.15 10.12 -4.13 10.67 C-2.84 11.38 -1.54 12.1 -0.25 12.81 C0.4 13.16 1.05 13.51 1.72 13.87 C7.78 17.24 7.78 17.24 8.88 21.06 C8.8 24.81 8.42 26.49 5.83 29.23 C2.07 31.56 -1.04 31.55 -5.31 31.38 C-6.04 31.37 -6.76 31.36 -7.51 31.35 C-12.78 31.23 -12.78 31.23 -15.12 30.06 C-15.12 27.75 -15.12 25.44 -15.12 23.06 C-11.84 23.43 -10.48 23.66 -8.25 26.19 C-7.55 26.81 -6.85 27.42 -6.12 28.06 C-2.43 27.92 -2.43 27.92 0.88 27.06 C0.88 25.08 0.88 23.1 0.88 21.06 C-0.04 20.58 -0.96 20.1 -1.9 19.6 C-3.1 18.96 -4.3 18.33 -5.5 17.69 C-6.1 17.37 -6.71 17.05 -7.33 16.73 C-9.91 15.35 -12.04 14.14 -14.12 12.06 C-14.57 8.04 -14.81 5.92 -12.25 2.69 C-8.25 -0.37 -4.86 -0.05 0 0 Z " fill="#000002" transform="translate(492.125,1048.9375)"/>
<path d="M0 0 C1.65 0.33 3.3 0.66 5 1 C5 3.31 5 5.62 5 8 C8.3 8 11.6 8 15 8 C15 9.32 15 10.64 15 12 C11.7 12 8.4 12 5 12 C5.14 15.48 5.29 18.96 5.44 22.44 C5.48 23.43 5.52 24.42 5.56 25.45 C5.62 26.86 5.62 26.86 5.68 28.31 C5.72 29.18 5.76 30.06 5.79 30.96 C5.78 32.99 5.78 32.99 7 34 C9 34.04 11 34.04 13 34 C13.99 34 14.98 34 16 34 C14.25 37.88 14.25 37.88 12 39 C10.36 39.15 8.71 39.22 7.06 39.25 C6.19 39.28 5.31 39.3 4.41 39.33 C2 39 2 39 0.25 37.73 C-2.08 34.5 -2.12 31.12 -2.1 27.23 C-2.09 26.34 -2.09 25.46 -2.09 24.54 C-2.08 23.62 -2.07 22.7 -2.06 21.75 C-2.06 20.81 -2.05 19.88 -2.05 18.91 C-2.04 16.61 -2.02 14.3 -2 12 C-3.65 11.67 -5.3 11.34 -7 11 C-6.1 10.51 -6.1 10.51 -5.19 10 C-2.1 7.18 -1.23 3.92 0 0 Z " fill="#000002" transform="translate(809,1041)"/>
<path d="M0 0 C1.46 -0.08 2.92 -0.14 4.38 -0.19 C5.19 -0.22 6 -0.26 6.84 -0.29 C7.55 -0.2 8.26 -0.1 9 0 C9.66 0.99 10.32 1.98 11 3 C11.47 2.51 11.95 2.01 12.44 1.5 C16.2 -0.7 19.73 -0.25 24 0 C24 2.31 24 4.62 24 7 C22.35 7 20.7 7 19 7 C19 6.34 19 5.68 19 5 C16.07 5.27 16.07 5.27 13 6 C10.28 10.08 10.67 13.27 10.69 18.06 C10.67 18.89 10.66 19.72 10.64 20.57 C10.64 21.36 10.64 22.16 10.64 22.97 C10.63 23.7 10.63 24.42 10.63 25.17 C10.86 27.42 10.86 27.42 14 29 C14 29.66 14 30.32 14 31 C9.38 31 4.76 31 0 31 C0.66 29.68 1.32 28.36 2 27 C2.36 24.29 2.36 24.29 2.41 21.36 C2.45 20.29 2.49 19.22 2.53 18.12 C2.56 17.01 2.59 15.89 2.62 14.75 C2.66 13.62 2.7 12.5 2.74 11.34 C2.84 8.56 2.92 5.78 3 3 C1.68 2.67 0.36 2.34 -1 2 C-0.67 1.34 -0.34 0.68 0 0 Z " fill="#000002" transform="translate(865,1049)"/>
<path d="M0 0 C0.33 0 0.66 0 1 0 C1 42.24 1 84.48 1 128 C0.67 128 0.34 128 0 128 C0 85.76 0 43.52 0 0 Z " fill="#82B147" transform="translate(851,871)"/>
<path d="M0 0 C32.01 0 64.02 0 97 0 C97 0.33 97 0.66 97 1 C64.99 1 32.98 1 0 1 C0 0.67 0 0.34 0 0 Z " fill="#82B147" transform="translate(751,863)"/>
<path d="M0 0 C4.08 1.46 7.44 3.45 11.04 5.85 C11.61 6.23 12.18 6.61 12.77 7 C13.97 7.8 15.17 8.6 16.36 9.4 C18.16 10.61 19.96 11.8 21.77 13 C28.79 17.68 35.51 22.58 42 28 C38.17 28 36.87 26.79 33.73 24.63 C32.68 23.92 31.63 23.2 30.55 22.46 C29.43 21.68 28.31 20.9 27.19 20.12 C26.05 19.34 24.92 18.56 23.78 17.78 C20.51 15.53 17.25 13.27 14 11 C13.16 10.42 12.32 9.83 11.46 9.23 C3.14 3.43 3.14 3.43 0 1 C0 0.67 0 0.34 0 0 Z " fill="#82B147" transform="translate(635,488)"/>
<path d="M0 0 C5.21 1.7 9.45 4.82 13.94 7.88 C14.72 8.4 15.51 8.93 16.32 9.48 C17.85 10.51 19.37 11.54 20.9 12.58 C23.59 14.4 26.29 16.2 29 18 C28.01 18.33 27.02 18.66 26 19 C23.57 17.7 23.57 17.7 20.69 15.69 C19.63 14.96 18.58 14.23 17.5 13.48 C16.33 12.65 15.17 11.83 14 11 C12.7 10.09 11.4 9.18 10.1 8.27 C8.81 7.37 7.53 6.47 6.25 5.56 C5.63 5.13 5.01 4.69 4.37 4.24 C2.89 3.19 1.44 2.1 0 1 C0 0.67 0 0.34 0 0 Z " fill="#82B147" transform="translate(590,459)"/>
<path d="M0 0 C0.66 0.33 1.32 0.66 2 1 C2.09 5.44 2.14 9.87 2.19 14.31 C2.23 16.21 2.23 16.21 2.26 18.14 C2.27 19.35 2.28 20.56 2.29 21.8 C2.31 22.92 2.32 24.03 2.34 25.18 C2 28 2 28 0.48 29.89 C-0.25 30.44 -0.25 30.44 -1 31 C-1.12 23.25 -1.12 23.25 0 21 C0.23 18.63 0.41 16.25 0.56 13.88 C0.65 12.59 0.73 11.31 0.82 9.99 C0.88 9 0.94 8.02 1 7 C0.34 6.67 -0.32 6.34 -1 6 C-0.67 4.02 -0.34 2.04 0 0 Z " fill="#82B147" transform="translate(632,224)"/>
<path d="M0 0 C4.01 0.63 6.76 2.67 10.06 4.94 C11.11 5.65 12.15 6.36 13.22 7.09 C14.14 7.72 15.06 8.35 16 9 C16.99 9.66 17.98 10.32 19 11 C18.67 11.99 18.34 12.98 18 14 C17.2 13.4 16.41 12.79 15.59 12.17 C14.52 11.36 13.45 10.56 12.38 9.75 C11.33 8.96 10.29 8.17 9.21 7.36 C7.03 5.75 4.87 4.24 2.6 2.77 C1.74 2.18 0.88 1.6 0 1 C0 0.67 0 0.34 0 0 Z " fill="#82B147" transform="translate(733,140)"/>
<path d="M0 0 C0.33 0 0.66 0 1 0 C1 8.91 1 17.82 1 27 C0.67 27 0.34 27 0 27 C0 18.09 0 9.18 0 0 Z " fill="#82B147" transform="translate(1030,291)"/>
<path d="M0 0 C6.27 0 12.54 0 19 0 C19 0.33 19 0.66 19 1 C12.73 1 6.46 1 0 1 C0 0.67 0 0.34 0 0 Z " fill="#82B147" transform="translate(986,906)"/>
<path d="M0 0 C0.33 0.99 0.66 1.98 1 3 C-1.31 4.65 -3.62 6.3 -6 8 C-6.66 7.67 -7.32 7.34 -8 7 C-5.36 4.69 -2.72 2.38 0 0 Z " fill="#82B147" transform="translate(732,594)"/>
<path d="M0 0 C0.33 0 0.66 0 1 0 C1.05 1.42 1.09 2.83 1.12 4.25 C1.15 5.04 1.17 5.83 1.2 6.64 C0.98 9.21 0.29 10.79 -1 13 C-2.13 9.62 -1.82 8.23 -1.06 4.81 C-0.87 3.91 -0.67 3.01 -0.47 2.08 C-0.24 1.05 -0.24 1.05 0 0 Z " fill="#82B147" transform="translate(778,222)"/>
<path d="M0 0 C5.28 0 10.56 0 16 0 C16 0.33 16 0.66 16 1 C10.72 1 5.44 1 0 1 C0 0.67 0 0.34 0 0 Z " fill="#82B147" transform="translate(853,863)"/>
<path d="M0 0 C0.33 0 0.66 0 1 0 C1.18 4.55 1 7.88 -1 12 C-2.36 9.28 -1.7 7.82 -1.06 4.88 C-0.87 3.96 -0.67 3.05 -0.47 2.12 C-0.32 1.42 -0.16 0.72 0 0 Z " fill="#82B147" transform="translate(762,544)"/>
<path d="M0 0 C0.33 0 0.66 0 1 0 C1 4.29 1 8.58 1 13 C0.67 13 0.34 13 0 13 C0 8.71 0 4.42 0 0 Z " fill="#000002" transform="translate(640,649)"/>
<path d="M0 0 C0.33 0 0.66 0 1 0 C1 3.96 1 7.92 1 12 C0.67 12 0.34 12 0 12 C0 8.04 0 4.08 0 0 Z " fill="#82B147" transform="translate(884,955)"/>
<path d="M0 0 C0.33 0 0.66 0 1 0 C1 3.96 1 7.92 1 12 C0.67 12 0.34 12 0 12 C0 8.04 0 4.08 0 0 Z " fill="#82B147" transform="translate(704,353)"/>
<path d="M0 0 C0 0.99 0 1.98 0 3 C-1.98 3.99 -1.98 3.99 -4 5 C-2.25 1.12 -2.25 1.12 0 0 Z " fill="#82B147" transform="translate(738,588)"/>
<path d="M0 0 C0.33 0 0.66 0 1 0 C1.19 2.38 1.19 2.38 1 5 C0.01 5.66 -0.98 6.32 -2 7 C-1.34 4.69 -0.68 2.38 0 0 Z " fill="#82B147" transform="translate(771,247)"/>
<path d="M0 0 C2.97 0 5.94 0 9 0 C9 0.33 9 0.66 9 1 C6.03 1 3.06 1 0 1 C0 0.67 0 0.34 0 0 Z " fill="#82B147" transform="translate(933,904)"/>
<path d="M0 0 C2.64 0 5.28 0 8 0 C8 0.33 8 0.66 8 1 C5.36 1 2.72 1 0 1 C0 0.67 0 0.34 0 0 Z " fill="#82B147" transform="translate(1102,901)"/>
<path d="M0 0 C0.33 1.32 0.66 2.64 1 4 C0.01 4.33 -0.98 4.66 -2 5 C-1.34 3.35 -0.68 1.7 0 0 Z " fill="#82B147" transform="translate(652,658)"/>
<path d="M0 0 C0.33 0.99 0.66 1.98 1 3 C0.01 3.66 -0.98 4.32 -2 5 C-1.34 3.35 -0.68 1.7 0 0 Z " fill="#82B147" transform="translate(604,311)"/>
<path d="M0 0 C0.33 0.99 0.66 1.98 1 3 C0.01 3 -0.98 3 -2 3 C-1.34 2.01 -0.68 1.02 0 0 Z " fill="#82B147" transform="translate(751,572)"/>
<path d="M0 0 C0.33 0.99 0.66 1.98 1 3 C0.01 3 -0.98 3 -2 3 C-1.34 2.01 -0.68 1.02 0 0 Z " fill="#82B147" transform="translate(761,267)"/>
<path d="M0 0 C0.33 0.99 0.66 1.98 1 3 C0.01 3 -0.98 3 -2 3 C-1.34 2.01 -0.68 1.02 0 0 Z " fill="#82B147" transform="translate(748,576)"/>
<path d="M0 0 C0.33 1.32 0.66 2.64 1 4 C0.34 4 -0.32 4 -1 4 C-0.67 2.68 -0.34 1.36 0 0 Z " fill="#82B147" transform="translate(758,560)"/>
<path d="M0 0 C0.33 1.32 0.66 2.64 1 4 C0.01 4.5 0.01 4.5 -1 5 C-0.67 3.35 -0.34 1.7 0 0 Z " fill="#82B147" transform="translate(706,347)"/>
<path d="M0 0 C0.33 1.32 0.66 2.64 1 4 C0.34 4 -0.32 4 -1 4 C-0.67 2.68 -0.34 1.36 0 0 Z " fill="#82B147" transform="translate(610,300)"/>
<path d="M0 0 C0.66 0.33 1.32 0.66 2 1 C0.02 1.99 0.02 1.99 -2 3 C-1.34 2.01 -0.68 1.02 0 0 Z " fill="#000002" transform="translate(561,291)"/>
<path d="M0 0 C0.33 1.32 0.66 2.64 1 4 C0.34 4 -0.32 4 -1 4 C-0.67 2.68 -0.34 1.36 0 0 Z " fill="#82B147" transform="translate(767,256)"/>
<path d="M0 0 C0.33 1.32 0.66 2.64 1 4 C0.01 4.5 0.01 4.5 -1 5 C-0.67 3.35 -0.34 1.7 0 0 Z " fill="#82B147" transform="translate(774,239)"/>
<path d="M0 0 C0 0.99 0 1.98 0 3 C-0.66 2.67 -1.32 2.34 -2 2 C-1.34 1.34 -0.68 0.68 0 0 Z " fill="#82B147" transform="translate(655,655)"/>
<path d="M0 0 C0 0.99 0 1.98 0 3 C-0.66 2.67 -1.32 2.34 -2 2 C-1.34 1.34 -0.68 0.68 0 0 Z " fill="#82B147" transform="translate(742,584)"/>
<path d="M0 0 C1.65 0 3.3 0 5 0 C5 0.33 5 0.66 5 1 C3.35 1 1.7 1 0 1 C0 0.67 0 0.34 0 0 Z " fill="#82B147" transform="translate(749,435)"/>
<path d="M0 0 C0.66 0 1.32 0 2 0 C1.67 0.99 1.34 1.98 1 3 C0.67 2.01 0.34 1.02 0 0 Z " fill="#82B147" transform="translate(709,376)"/>
<path d="M0 0 C0.33 0.99 0.66 1.98 1 3 C0.34 3 -0.32 3 -1 3 C-0.67 2.01 -0.34 1.02 0 0 Z " fill="#82B147" transform="translate(713,334)"/>
<path d="M0 0 C0.66 0.66 1.32 1.32 2 2 C1.01 2 0.02 2 -1 2 C-0.67 1.34 -0.34 0.68 0 0 Z " fill="#82B147" transform="translate(616,290)"/>
<path d="M0 0 C0.33 0.99 0.66 1.98 1 3 C0.01 2.67 -0.98 2.34 -2 2 C-1.34 2 -0.68 2 0 2 C0 1.34 0 0.68 0 0 Z " fill="#34461D" transform="translate(669,262)"/>
<path d="M0 0 C4 1 4 1 4 1 Z " fill="#82B147" transform="translate(739,433)"/>
<path d="M0 0 C4 1 4 1 4 1 Z " fill="#82B147" transform="translate(733,432)"/>
<path d="M0 0 C0.99 0.5 0.99 0.5 2 1 C1.67 1.66 1.34 2.32 1 3 C0.67 2.01 0.34 1.02 0 0 Z " fill="#82B147" transform="translate(590,366)"/>
<path d="M0 0 C1 4 1 4 1 4 Z " fill="#82B147" transform="translate(589,347)"/>
<path d="M0 0 C0 3 0 3 0 3 Z " fill="#82B147" transform="translate(607,306)"/>
<path d="M0 0 C0.33 0.99 0.66 1.98 1 3 C0.34 2.67 -0.32 2.34 -1 2 C-0.67 1.34 -0.34 0.68 0 0 Z " fill="#82B147" transform="translate(738,299)"/>
<path d="M0 0 C0.33 0.99 0.66 1.98 1 3 C0.34 2.67 -0.32 2.34 -1 2 C-0.67 1.34 -0.34 0.68 0 0 Z " fill="#82B147" transform="translate(742,294)"/>
<path d="M0 0 C0.33 0.99 0.66 1.98 1 3 C0.34 2.67 -0.32 2.34 -1 2 C-0.67 1.34 -0.34 0.68 0 0 Z " fill="#82B147" transform="translate(620,283)"/>
<path d="M0 0 C0.66 0.33 1.32 0.66 2 1 C1.01 1 0.02 1 -1 1 C-0.67 0.67 -0.34 0.34 0 0 Z " fill="#000002" transform="translate(573,281)"/>
<path d="M0 0 C0.33 0.99 0.66 1.98 1 3 C0.34 2.67 -0.32 2.34 -1 2 C-0.67 1.34 -0.34 0.68 0 0 Z " fill="#000002" transform="translate(576,278)"/>
<path d="M0 0 C0 3 0 3 0 3 Z " fill="#82B147" transform="translate(758,272)"/>
<path d="M0 0 C0.33 0.99 0.66 1.98 1 3 C0.34 2.67 -0.32 2.34 -1 2 C-0.67 1.34 -0.34 0.68 0 0 Z " fill="#000002" transform="translate(595,260)"/>
<path d="M0 0 C1 4 1 4 1 4 Z " fill="#82B147" transform="translate(630,256)"/>
<path d="M0 0 C0.66 0.33 1.32 0.66 2 1 C1.01 1 0.02 1 -1 1 C-0.67 0.67 -0.34 0.34 0 0 Z " fill="#000002" transform="translate(599,256)"/>
<path d="M0 0 C0.33 0.99 0.66 1.98 1 3 C0.34 2.67 -0.32 2.34 -1 2 C-0.67 1.34 -0.34 0.68 0 0 Z " fill="#202C13" transform="translate(611,242)"/>
<path d="M0 0 C0.33 0.99 0.66 1.98 1 3 C0.34 2.67 -0.32 2.34 -1 2 C-0.67 1.34 -0.34 0.68 0 0 Z " fill="#000002" transform="translate(711,209)"/>
<path d="M0 0 C0.33 0.99 0.66 1.98 1 3 C0.34 2.67 -0.32 2.34 -1 2 C-0.67 1.34 -0.34 0.68 0 0 Z " fill="#000002" transform="translate(714,202)"/>
<path d="M0 0 C0.33 0.66 0.66 1.32 1 2 C0.34 1.67 -0.32 1.34 -1 1 C-0.67 0.67 -0.34 0.34 0 0 Z " fill="#82B147" transform="translate(658,651)"/>
<path d="" fill="#000002" transform="translate(0,0)"/>
<path d="M0 0 C0.33 0.66 0.66 1.32 1 2 C0.34 1.67 -0.32 1.34 -1 1 C-0.67 0.67 -0.34 0.34 0 0 Z " fill="#000002" transform="translate(643,637)"/>
<path d="M0 0 C0.33 0.66 0.66 1.32 1 2 C0.34 1.67 -0.32 1.34 -1 1 C-0.67 0.67 -0.34 0.34 0 0 Z " fill="#000002" transform="translate(646,628)"/>
<path d="M0 0 C0.33 0.66 0.66 1.32 1 2 C0.34 1.67 -0.32 1.34 -1 1 C-0.67 0.67 -0.34 0.34 0 0 Z " fill="#000002" transform="translate(656,612)"/>
<path d="M0 0 C0.33 0.66 0.66 1.32 1 2 C0.34 1.67 -0.32 1.34 -1 1 C-0.67 0.67 -0.34 0.34 0 0 Z " fill="#000002" transform="translate(669,594)"/>
<path d="M0 0 C0.33 0.66 0.66 1.32 1 2 C0.34 1.67 -0.32 1.34 -1 1 C-0.67 0.67 -0.34 0.34 0 0 Z " fill="#000002" transform="translate(672,590)"/>
<path d="M0 0 C0.33 0.66 0.66 1.32 1 2 C0.34 1.67 -0.32 1.34 -1 1 C-0.67 0.67 -0.34 0.34 0 0 Z " fill="#82B147" transform="translate(905,588)"/>
<path d="M0 0 C0.33 0.66 0.66 1.32 1 2 C0.34 1.67 -0.32 1.34 -1 1 C-0.67 0.67 -0.34 0.34 0 0 Z " fill="#82B147" transform="translate(745,580)"/>
<path d="M0 0 C0.33 0.66 0.66 1.32 1 2 C0.34 1.67 -0.32 1.34 -1 1 C-0.67 0.67 -0.34 0.34 0 0 Z " fill="#000002" transform="translate(685,572)"/>
<path d="M0 0 C0.33 0.66 0.66 1.32 1 2 C0.34 1.67 -0.32 1.34 -1 1 C-0.67 0.67 -0.34 0.34 0 0 Z " fill="#000002" transform="translate(691,561)"/>
<path d="" fill="#82B147" transform="translate(0,0)"/>
<path d="M0 0 C0.33 0.66 0.66 1.32 1 2 C0.34 1.67 -0.32 1.34 -1 1 C-0.67 0.67 -0.34 0.34 0 0 Z " fill="#000002" transform="translate(694,552)"/>
<path d="M0 0 C3 1 3 1 3 1 Z " fill="#82B147" transform="translate(745,434)"/>
<path d="M0 0 C3 1 3 1 3 1 Z " fill="#82B147" transform="translate(698,421)"/>
<path d="" fill="#82B147" transform="translate(0,0)"/>
<path d="" fill="#82B147" transform="translate(0,0)"/>
<path d="M0 0 C0.33 0.66 0.66 1.32 1 2 C0.34 1.67 -0.32 1.34 -1 1 C-0.67 0.67 -0.34 0.34 0 0 Z " fill="#000002" transform="translate(534,325)"/>
<path d="M0 0 C0.33 0.66 0.66 1.32 1 2 C0.34 1.67 -0.32 1.34 -1 1 C-0.67 0.67 -0.34 0.34 0 0 Z " fill="#000002" transform="translate(637,314)"/>
<path d="M0 0 C0.33 0.66 0.66 1.32 1 2 C0.34 1.67 -0.32 1.34 -1 1 C-0.67 0.67 -0.34 0.34 0 0 Z " fill="#82B147" transform="translate(735,304)"/>
<path d="M0 0 C0.33 0.66 0.66 1.32 1 2 C0.34 1.67 -0.32 1.34 -1 1 C-0.67 0.67 -0.34 0.34 0 0 Z " fill="#000002" transform="translate(643,301)"/>
<path d="M0 0 C0.33 0.66 0.66 1.32 1 2 C0.34 1.67 -0.32 1.34 -1 1 C-0.67 0.67 -0.34 0.34 0 0 Z " fill="#000002" transform="translate(646,294)"/>
<path d="M0 0 C0.33 0.66 0.66 1.32 1 2 C0.34 1.67 -0.32 1.34 -1 1 C-0.67 0.67 -0.34 0.34 0 0 Z " fill="#000002" transform="translate(570,283)"/>
<path d="M0 0 C0.33 0.66 0.66 1.32 1 2 C0.34 1.67 -0.32 1.34 -1 1 C-0.67 0.67 -0.34 0.34 0 0 Z " fill="#82B147" transform="translate(751,282)"/>
<path d="M0 0 C0.33 0.66 0.66 1.32 1 2 C0.34 1.67 -0.32 1.34 -1 1 C-0.67 0.67 -0.34 0.34 0 0 Z " fill="#000002" transform="translate(656,281)"/>
<path d="M0 0 C0.33 0.66 0.66 1.32 1 2 C0.34 1.67 -0.32 1.34 -1 1 C-0.67 0.67 -0.34 0.34 0 0 Z " fill="#82B147" transform="translate(754,278)"/>
<path d="M0 0 C0.33 0.66 0.66 1.32 1 2 C0.34 1.67 -0.32 1.34 -1 1 C-0.67 0.67 -0.34 0.34 0 0 Z " fill="#000002" transform="translate(659,276)"/>
<path d="M0 0 C0.33 0.66 0.66 1.32 1 2 C0.34 1.67 -0.32 1.34 -1 1 C-0.67 0.67 -0.34 0.34 0 0 Z " fill="#000002" transform="translate(662,272)"/>
<path d="" fill="#82B147" transform="translate(0,0)"/>
<path d="M0 0 C0.33 0.66 0.66 1.32 1 2 C0.34 1.67 -0.32 1.34 -1 1 C-0.67 0.67 -0.34 0.34 0 0 Z " fill="#000002" transform="translate(678,252)"/>
<path d="M0 0 C0.33 0.66 0.66 1.32 1 2 C0.34 1.67 -0.32 1.34 -1 1 C-0.67 0.67 -0.34 0.34 0 0 Z " fill="#000002" transform="translate(605,250)"/>
<path d="M0 0 C0.99 0.5 0.99 0.5 2 1 C1.01 1.5 1.01 1.5 0 2 C0 1.34 0 0.68 0 0 Z " fill="#000002" transform="translate(686,242)"/>
<path d="" fill="#82B147" transform="translate(0,0)"/>
<path d="M0 0 C0.33 0.66 0.66 1.32 1 2 C0.34 1.67 -0.32 1.34 -1 1 C-0.67 0.67 -0.34 0.34 0 0 Z " fill="#000002" transform="translate(694,232)"/>
<path d="M0 0 C0.33 0.66 0.66 1.32 1 2 C0.34 1.67 -0.32 1.34 -1 1 C-0.67 0.67 -0.34 0.34 0 0 Z " fill="#000002" transform="translate(701,223)"/>
<path d="" fill="#000002" transform="translate(0,0)"/>
<path d="M0 0 C0.33 0.66 0.66 1.32 1 2 C0.34 1.67 -0.32 1.34 -1 1 C-0.67 0.67 -0.34 0.34 0 0 Z " fill="#000002" transform="translate(707,214)"/>
<path d="M0 0 C0.33 0.66 0.66 1.32 1 2 C0.34 1.67 -0.32 1.34 -1 1 C-0.67 0.67 -0.34 0.34 0 0 Z " fill="#000002" transform="translate(717,194)"/>
<path d="" fill="#000002" transform="translate(0,0)"/>
<path d="M0 0 C2 1 2 1 2 1 Z " fill="#82B147" transform="translate(733,643)"/>
<path d="M0 0 C2 1 2 1 2 1 Z " fill="#000002" transform="translate(682,574)"/>
<path d="" fill="#82B147" transform="translate(0,0)"/>
<path d="" fill="#82B147" transform="translate(0,0)"/>
<path d="" fill="#82B147" transform="translate(0,0)"/>
<path d="M0 0 C2 1 2 1 2 1 Z " fill="#82B147" transform="translate(860,453)"/>
<path d="M0 0 C2 1 2 1 2 1 Z " fill="#82B147" transform="translate(716,427)"/>
<path d="M0 0 C2 1 2 1 2 1 Z " fill="#82B147" transform="translate(712,426)"/>
<path d="M0 0 C2 1 2 1 2 1 Z " fill="#82B147" transform="translate(704,423)"/>
<path d="M0 0 C2 1 2 1 2 1 Z " fill="#82B147" transform="translate(691,418)"/>
<path d="M0 0 C2 1 2 1 2 1 Z " fill="#82B147" transform="translate(689,417)"/>
<path d="" fill="#000002" transform="translate(0,0)"/>
<path d="" fill="#000002" transform="translate(0,0)"/>
<path d="" fill="#82B147" transform="translate(0,0)"/>
<path d="" fill="#415824" transform="translate(0,0)"/>
<path d="M0 0 C2 1 2 1 2 1 Z " fill="#415824" transform="translate(522,349)"/>
<path d="" fill="#82B147" transform="translate(0,0)"/>
<path d="" fill="#82B147" transform="translate(0,0)"/>
<path d="" fill="#82B147" transform="translate(0,0)"/>
<path d="" fill="#82B147" transform="translate(0,0)"/>
<path d="M0 0 C2 1 2 1 2 1 Z " fill="#000002" transform="translate(529,331)"/>
<path d="" fill="#82B147" transform="translate(0,0)"/>
<path d="M0 0 C2 1 2 1 2 1 Z " fill="#415824" transform="translate(631,327)"/>
<path d="M0 0 C2 1 2 1 2 1 Z " fill="#000002" transform="translate(531,327)"/>
<path d="" fill="#82B147" transform="translate(0,0)"/>
<path d="" fill="#82B147" transform="translate(0,0)"/>
<path d="" fill="#000002" transform="translate(0,0)"/>
<path d="" fill="#000002" transform="translate(0,0)"/>
<path d="M0 0 C2 1 2 1 2 1 Z " fill="#000002" transform="translate(553,299)"/>
<path d="" fill="#82B147" transform="translate(0,0)"/>
<path d="" fill="#000002" transform="translate(0,0)"/>
<path d="" fill="#82B147" transform="translate(0,0)"/>
<path d="" fill="#82B147" transform="translate(0,0)"/>
<path d="M0 0 C2 1 2 1 2 1 Z " fill="#415824" transform="translate(578,275)"/>
<path d="M0 0 C2 1 2 1 2 1 Z " fill="#000002" transform="translate(581,273)"/>
<path d="" fill="#82B147" transform="translate(0,0)"/>
<path d="" fill="#82B147" transform="translate(0,0)"/>
<path d="" fill="#000002" transform="translate(0,0)"/>
<path d="M0 0 C2 1 2 1 2 1 Z " fill="#415824" transform="translate(591,264)"/>
<path d="" fill="#82B147" transform="translate(0,0)"/>
<path d="" fill="#82B147" transform="translate(0,0)"/>
<path d="M0 0 C2 1 2 1 2 1 Z " fill="#415824" transform="translate(684,244)"/>
<path d="" fill="#000002" transform="translate(0,0)"/>
<path d="M0 0 C2 1 2 1 2 1 Z " fill="#000002" transform="translate(616,235)"/>
<path d="M0 0 C2 1 2 1 2 1 Z " fill="#000002" transform="translate(619,231)"/>
<path d="" fill="#000002" transform="translate(0,0)"/>
<path d="M0 0 C2 1 2 1 2 1 Z " fill="#000002" transform="translate(623,224)"/>
<path d="" fill="#000002" transform="translate(0,0)"/>
<path d="" fill="#82B147" transform="translate(0,0)"/>
<path d="" fill="#82B147" transform="translate(0,0)"/>
<path d="" fill="#82B147" transform="translate(0,0)"/>
<path d="" fill="#82B147" transform="translate(0,0)"/>
<path d="" fill="#82B147" transform="translate(0,0)"/>
<path d="" fill="#82B147" transform="translate(0,0)"/>
<path d="" fill="#82B147" transform="translate(0,0)"/>
<path d="" fill="#82B147" transform="translate(0,0)"/>
<path d="" fill="#82B147" transform="translate(0,0)"/>
<path d="" fill="#82B147" transform="translate(0,0)"/>
<path d="" fill="#82B147" transform="translate(0,0)"/>
<path d="" fill="#82B147" transform="translate(0,0)"/>
<path d="" fill="#82B147" transform="translate(0,0)"/>
<path d="" fill="#82B147" transform="translate(0,0)"/>
<path d="" fill="#82B147" transform="translate(0,0)"/>
<path d="" fill="#000002" transform="translate(0,0)"/>
<path d="" fill="#82B147" transform="translate(0,0)"/>
<path d="" fill="#82B147" transform="translate(0,0)"/>
<path d="" fill="#000002" transform="translate(0,0)"/>
<path d="" fill="#82B147" transform="translate(0,0)"/>
<path d="" fill="#000002" transform="translate(0,0)"/>
<path d="" fill="#82B147" transform="translate(0,0)"/>
<path d="" fill="#000002" transform="translate(0,0)"/>
<path d="" fill="#82B147" transform="translate(0,0)"/>
<path d="" fill="#000002" transform="translate(0,0)"/>
<path d="" fill="#82B147" transform="translate(0,0)"/>
<path d="" fill="#82B147" transform="translate(0,0)"/>
<path d="" fill="#000002" transform="translate(0,0)"/>
<path d="" fill="#82B147" transform="translate(0,0)"/>
<path d="" fill="#82B147" transform="translate(0,0)"/>
<path d="" fill="#82B147" transform="translate(0,0)"/>
<path d="" fill="#82B147" transform="translate(0,0)"/>
<path d="" fill="#82B147" transform="translate(0,0)"/>
<path d="" fill="#82B147" transform="translate(0,0)"/>
<path d="" fill="#82B147" transform="translate(0,0)"/>
<path d="" fill="#82B147" transform="translate(0,0)"/>
<path d="" fill="#82B147" transform="translate(0,0)"/>
<path d="" fill="#000002" transform="translate(0,0)"/>
<path d="" fill="#000002" transform="translate(0,0)"/>
<path d="" fill="#000002" transform="translate(0,0)"/>
<path d="" fill="#000002" transform="translate(0,0)"/>
<path d="" fill="#82B147" transform="translate(0,0)"/>
<path d="" fill="#82B147" transform="translate(0,0)"/>
<path d="" fill="#000002" transform="translate(0,0)"/>
<path d="" fill="#82B147" transform="translate(0,0)"/>
<path d="" fill="#000002" transform="translate(0,0)"/>
<path d="" fill="#000002" transform="translate(0,0)"/>
<path d="" fill="#000002" transform="translate(0,0)"/>
<path d="" fill="#000002" transform="translate(0,0)"/>
<path d="" fill="#000002" transform="translate(0,0)"/>
<path d="" fill="#000002" transform="translate(0,0)"/>
<path d="" fill="#000002" transform="translate(0,0)"/>
<path d="" fill="#82B147" transform="translate(0,0)"/>
<path d="" fill="#82B147" transform="translate(0,0)"/>
<path d="" fill="#000002" transform="translate(0,0)"/>
<path d="" fill="#000002" transform="translate(0,0)"/>
<path d="" fill="#82B147" transform="translate(0,0)"/>
<path d="" fill="#82B147" transform="translate(0,0)"/>
<path d="" fill="#82B147" transform="translate(0,0)"/>
<path d="" fill="#82B147" transform="translate(0,0)"/>
<path d="" fill="#82B147" transform="translate(0,0)"/>
<path d="" fill="#82B147" transform="translate(0,0)"/>
<path d="" fill="#82B147" transform="translate(0,0)"/>
<path d="" fill="#82B147" transform="translate(0,0)"/>
<path d="" fill="#82B147" transform="translate(0,0)"/>
<path d="" fill="#82B147" transform="translate(0,0)"/>
<path d="" fill="#82B147" transform="translate(0,0)"/>
<path d="" fill="#82B147" transform="translate(0,0)"/>
<path d="" fill="#82B147" transform="translate(0,0)"/>
<path d="" fill="#82B147" transform="translate(0,0)"/>
<path d="" fill="#82B147" transform="translate(0,0)"/>
<path d="" fill="#82B147" transform="translate(0,0)"/>
<path d="" fill="#82B147" transform="translate(0,0)"/>
<path d="" fill="#82B147" transform="translate(0,0)"/>
<path d="" fill="#82B147" transform="translate(0,0)"/>
<path d="" fill="#000002" transform="translate(0,0)"/>
<path d="" fill="#82B147" transform="translate(0,0)"/>
<path d="" fill="#82B147" transform="translate(0,0)"/>
<path d="" fill="#000002" transform="translate(0,0)"/>
<path d="" fill="#82B147" transform="translate(0,0)"/>
<path d="" fill="#82B147" transform="translate(0,0)"/>
<path d="" fill="#82B147" transform="translate(0,0)"/>
<path d="" fill="#000002" transform="translate(0,0)"/>
<path d="" fill="#000002" transform="translate(0,0)"/>
<path d="" fill="#82B147" transform="translate(0,0)"/>
<path d="" fill="#000002" transform="translate(0,0)"/>
<path d="" fill="#82B147" transform="translate(0,0)"/>
<path d="" fill="#82B147" transform="translate(0,0)"/>
<path d="" fill="#82B147" transform="translate(0,0)"/>
<path d="" fill="#000002" transform="translate(0,0)"/>
<path d="" fill="#82B147" transform="translate(0,0)"/>
<path d="" fill="#82B147" transform="translate(0,0)"/>
<path d="" fill="#000002" transform="translate(0,0)"/>
<path d="" fill="#82B147" transform="translate(0,0)"/>
<path d="" fill="#000002" transform="translate(0,0)"/>
<path d="" fill="#82B147" transform="translate(0,0)"/>
<path d="" fill="#000002" transform="translate(0,0)"/>
<path d="" fill="#82B147" transform="translate(0,0)"/>
<path d="" fill="#000002" transform="translate(0,0)"/>
<path d="" fill="#82B147" transform="translate(0,0)"/>
<path d="" fill="#000002" transform="translate(0,0)"/>
<path d="" fill="#82B147" transform="translate(0,0)"/>
<path d="" fill="#82B147" transform="translate(0,0)"/>
<path d="" fill="#000002" transform="translate(0,0)"/>
<path d="" fill="#82B147" transform="translate(0,0)"/>
<path d="" fill="#000002" transform="translate(0,0)"/>
<path d="" fill="#82B147" transform="translate(0,0)"/>
<path d="" fill="#82B147" transform="translate(0,0)"/>
<path d="" fill="#82B147" transform="translate(0,0)"/>
<path d="" fill="#000002" transform="translate(0,0)"/>
<path d="" fill="#82B147" transform="translate(0,0)"/>
<path d="" fill="#000002" transform="translate(0,0)"/>
<path d="" fill="#82B147" transform="translate(0,0)"/>
<path d="" fill="#82B147" transform="translate(0,0)"/>
<path d="" fill="#000002" transform="translate(0,0)"/>
<path d="" fill="#82B147" transform="translate(0,0)"/>
<path d="" fill="#82B147" transform="translate(0,0)"/>
<path d="" fill="#82B147" transform="translate(0,0)"/>
<path d="" fill="#82B147" transform="translate(0,0)"/>
<path d="" fill="#000002" transform="translate(0,0)"/>
<path d="" fill="#82B147" transform="translate(0,0)"/>
<path d="" fill="#000002" transform="translate(0,0)"/>
<path d="" fill="#82B147" transform="translate(0,0)"/>
<path d="" fill="#000002" transform="translate(0,0)"/>
<path d="" fill="#82B147" transform="translate(0,0)"/>
<path d="" fill="#82B147" transform="translate(0,0)"/>
<path d="" fill="#000002" transform="translate(0,0)"/>
<path d="" fill="#000002" transform="translate(0,0)"/>
<path d="" fill="#82B147" transform="translate(0,0)"/>
<path d="" fill="#000002" transform="translate(0,0)"/>
<path d="" fill="#000002" transform="translate(0,0)"/>
<path d="" fill="#82B147" transform="translate(0,0)"/>
<path d="" fill="#82B147" transform="translate(0,0)"/>
<path d="" fill="#82B147" transform="translate(0,0)"/>
<path d="" fill="#82B147" transform="translate(0,0)"/>
<path d="" fill="#000002" transform="translate(0,0)"/>
<path d="" fill="#82B147" transform="translate(0,0)"/>
<path d="" fill="#82B147" transform="translate(0,0)"/>
<path d="" fill="#000002" transform="translate(0,0)"/>
<path d="" fill="#000002" transform="translate(0,0)"/>
<path d="" fill="#000002" transform="translate(0,0)"/>
<path d="" fill="#000002" transform="translate(0,0)"/>
<path d="" fill="#000002" transform="translate(0,0)"/>
<path d="" fill="#82B147" transform="translate(0,0)"/>
<path d="" fill="#000002" transform="translate(0,0)"/>
<path d="" fill="#82B147" transform="translate(0,0)"/>
<path d="" fill="#82B147" transform="translate(0,0)"/>
<path d="" fill="#000002" transform="translate(0,0)"/>
<path d="" fill="#82B147" transform="translate(0,0)"/>
<path d="" fill="#82B147" transform="translate(0,0)"/>
<path d="" fill="#82B147" transform="translate(0,0)"/>
<path d="" fill="#82B147" transform="translate(0,0)"/>
<path d="" fill="#000002" transform="translate(0,0)"/>
<path d="" fill="#000002" transform="translate(0,0)"/>
<path d="" fill="#000002" transform="translate(0,0)"/>
<path d="" fill="#000002" transform="translate(0,0)"/>
<path d="" fill="#000002" transform="translate(0,0)"/>
<path d="" fill="#000002" transform="translate(0,0)"/>
<path d="" fill="#000002" transform="translate(0,0)"/>
<path d="" fill="#000002" transform="translate(0,0)"/>
<path d="" fill="#82B147" transform="translate(0,0)"/>
<path d="" fill="#000002" transform="translate(0,0)"/>
<path d="" fill="#000002" transform="translate(0,0)"/>
<path d="" fill="#000002" transform="translate(0,0)"/>
<path d="" fill="#000002" transform="translate(0,0)"/>
<path d="" fill="#000002" transform="translate(0,0)"/>
<path d="" fill="#000002" transform="translate(0,0)"/>
<path d="" fill="#82B147" transform="translate(0,0)"/>
<path d="" fill="#000002" transform="translate(0,0)"/>
<path d="" fill="#000002" transform="translate(0,0)"/>
<path d="" fill="#82B147" transform="translate(0,0)"/>
<path d="" fill="#000002" transform="translate(0,0)"/>
<path d="" fill="#000002" transform="translate(0,0)"/>
<path d="" fill="#82B147" transform="translate(0,0)"/>
<path d="" fill="#000002" transform="translate(0,0)"/>
<path d="" fill="#000002" transform="translate(0,0)"/>
</svg>
